<?xml version="1.0" encoding="utf-8"?>
<!-- Generator: Adobe Illustrator 16.0.3, SVG Export Plug-In . SVG Version: 6.00 Build 0)  -->
<!DOCTYPE svg PUBLIC "-//W3C//DTD SVG 1.1//EN" "http://www.w3.org/Graphics/SVG/1.1/DTD/svg11.dtd">
<svg version="1.1"
	 id="Capa_2__x2B__Tono_x2F_saturaci贸n_1_copia_3__x2B__Grupo_3__x2B__Tono_x2F_saturaci贸n_1_copia_2__x2B__Grupo_2__x2B__Tono_x2F_saturaci贸n_1_copia__x2B__Grupo_1__x2B__Tono_x2F_saturaci贸n_1_xA0_Imagen_1_"
	 xmlns="http://www.w3.org/2000/svg" xmlns:xlink="http://www.w3.org/1999/xlink" x="0px" y="0px" width="1267px" height="243px"
	 viewBox="0 0 1267 243" enable-background="new 0 0 1267 243" xml:space="preserve">
<rect fill-rule="evenodd" clip-rule="evenodd" fill="#17181D" width="1267" height="243"/>
<g>
	<path fill-rule="evenodd" clip-rule="evenodd" fill="#5317D0" d="M142,244c0.011-0.66-0.084-1.342,0.049-1.976
		c2.163-10.281,2.169-10.278-6.747-16.04c-1.536-0.992-3.118-1.923-4.581-3.014c-2.312-1.723-3.943-3.935-2.216-6.805
		c1.857-3.087,4.851-3.469,7.832-1.838c3.2,1.751,6.336,3.697,9.219,5.923c3.094,2.39,4.015,1.431,4.627-1.979
		c0.583-3.249,1.71-6.406,2.679-9.579c1.08-3.54,3.535-5.438,7.166-4.474c3.993,1.06,3.402,4.512,2.743,7.428
		c-0.876,3.878-2.007,7.719-3.334,11.467c-1.01,2.852-0.356,4.522,2.25,6.106c4.111,2.499,7.977,5.404,11.93,8.161
		c2.29,1.598,4.057,3.491,3.384,6.618c-4.333,0-8.667,0-13,0c-2.858-2.76-6.093-4.96-9.711-6.934
		c-0.583,2.53-1.88,4.549-1.289,6.934C149.333,244,145.667,244,142,244z"/>
	<path fill-rule="evenodd" clip-rule="evenodd" fill="#F7FBF7" d="M153,244c-0.592-2.385,0.705-4.403,1.289-6.934
		c3.618,1.974,6.854,4.174,9.711,6.934C160.333,244,156.667,244,153,244z"/>
	<path fill-rule="evenodd" clip-rule="evenodd" fill="#15A9B4" d="M292.071,164.384c-0.91,4.761-3.102,9.086-5.128,13.413
		c-1.548,3.305-1.033,5.396,1.803,7.616c3.792,2.97,7.291,6.319,10.85,9.576c2.108,1.929,3.629,4.227,1.415,6.933
		c-2.265,2.767-5.29,2.923-7.993,0.864c-3.564-2.713-6.915-5.73-10.179-8.806c-2.176-2.051-3.246-2.191-4.262,1.015
		c-1.302,4.106-3.02,8.092-4.724,12.06c-1.452,3.381-4.085,4.942-7.646,3.461c-3.472-1.445-3.024-4.476-2.028-7.259
		c1.733-4.845,3.626-9.635,5.579-14.396c0.88-2.146,0.646-3.66-1.305-5.139c-3.18-2.409-6.177-5.061-9.234-7.63
		c-2.556-2.146-4.976-4.684-2.414-8.007c2.752-3.571,6.141-2.408,9.179,0.019c2.6,2.076,5.233,4.129,7.665,6.393
		c2.056,1.912,3.096,1.779,4.074-0.977c1.331-3.748,2.836-7.46,4.603-11.021c1.332-2.685,3.808-3.605,6.758-2.721
		C291.326,160.452,292.276,162.029,292.071,164.384z"/>
	<path fill-rule="evenodd" clip-rule="evenodd" fill="#1C8915" d="M752.015,185.619c-0.068,9.952-9.591,18.44-20.462,18.24
		c-9.944-0.184-19.07-10.899-19.1-22.429c-0.026-10.317,9.351-18.678,20.662-18.421
		C743.031,163.234,752.095,174.076,752.015,185.619z M720.55,180.357c-0.104,7.988,6.547,16.409,12.998,16.46
		c5.598,0.043,10.4-4.821,10.423-10.56c0.03-7.646-6.633-16.069-12.818-16.203C725.376,169.931,720.626,174.547,720.55,180.357z"/>
	<path fill-rule="evenodd" clip-rule="evenodd" fill="#1C8915" d="M603.016,166.514c-0.012,9.813-9.123,18.194-19.944,18.346
		c-10.178,0.143-19.65-10.724-19.617-22.502c0.027-9.939,9.533-18.465,20.463-18.353
		C593.885,144.107,603.03,154.886,603.016,166.514z M582.059,151.056c-5.771-0.06-10.479,4.598-10.51,10.396
		c-0.044,8.031,6.641,16.387,13.094,16.364c5.601-0.02,10.352-4.921,10.325-10.652C594.933,159.464,588.245,151.118,582.059,151.056
		z"/>
	<path fill-rule="evenodd" clip-rule="evenodd" fill="#5419D1" d="M89.876,189.877c0.021-1.471-1.111-1.664-1.933-2.131
		c-2.164-1.229-4.24-2.698-6.541-3.58c-3.691-1.416-3.383-3.087-1.81-6.319c2.062-4.238,3.708-5.053,7.96-2.406
		c7.691,4.786,7.831,4.451,12.269-3.482c0.889-1.588,1.208-4.634,3.398-4.162c2.622,0.565,5.127,2.307,7.318,4.008
		c1.361,1.058-0.453,2.351-0.907,3.478c-1.33,3.297-5.368,6.487-4.085,9.508c1.083,2.551,5.505,3.88,8.647,5.314
		c5.02,2.292,1.166,4.657,0.282,6.993c-1.058,2.797-2.339,4.479-5.669,2.155c-2.829-1.975-6.557-5.044-9.066-4.405
		c-2.373,0.604-4.059,5.248-5.358,8.399c-1.752,4.248-3.828,2.641-6.432,1.151c-2.675-1.528-5.595-2.449-2.592-6.411
		C87.238,195.507,88.439,192.513,89.876,189.877z"/>
	<path fill-rule="evenodd" clip-rule="evenodd" fill="#15A9B4" d="M464.169,179.949c-1.472,3.584-2.794,6.767-4.086,9.961
		c-1.109,2.742-3.118,4.014-5.907,2.936c-2.988-1.155-2.371-3.531-1.363-5.828c0.132-0.302,0.125-0.678,0.295-0.948
		c4.58-7.26,4.116-13.223-4.095-17.629c-2.463-1.321-3.362-3.973-1.297-6.294c1.873-2.105,4.123-1.123,6.281,0.223
		c2.631,1.641,4.598,5.825,7.394,4.983c1.812-0.546,2.336-5.108,3.604-7.792c1.064-2.253,2.884-4.029,5.479-3.025
		c2.964,1.147,3.203,3.757,1.569,6.172c-5.15,7.614-2.913,13.046,4.477,17.53c2.264,1.373,5.235,3.742,2.422,6.809
		c-2.58,2.812-5.426,1.035-7.821-1.054C468.907,184.062,466.688,182.139,464.169,179.949z"/>
	<path fill-rule="evenodd" clip-rule="evenodd" fill="#18AAB5" d="M662.594,209.309c-3.246,2.64-5.91,4.869-8.645,7.01
		c-2.093,1.639-4.38,1.974-6.207-0.231c-1.82-2.198-0.46-3.999,1.298-5.545c0.125-0.109,0.215-0.27,0.354-0.351
		c7.764-4.527,11.105-10.251,5.359-18.72c-1.318-1.943-0.607-4.078,1.442-5.105c2.36-1.183,4.353,0.143,5.39,2.203
		c1.479,2.94,2.535,6.094,3.962,9.627c2.646-2.097,5.02-4.124,7.548-5.938c2.021-1.449,4.459-2.238,6.237,0.096
		c1.791,2.351,0.321,4.232-1.629,5.94c-8.124,7.116-8.097,7.147-4.653,17.154c0.271,0.786,0.574,1.563,0.812,2.357
		c0.635,2.124,0.536,4.092-1.898,4.919c-2.195,0.747-4.077-0.146-4.98-2.19C665.442,217.052,664.189,213.44,662.594,209.309z"/>
	<path fill-rule="evenodd" clip-rule="evenodd" fill="#561CD1" d="M378.166,214.614c0.529,1.884-0.266,2.5-1.611,2.741
		c-1.141,0.205-2.271,0.625-3.412,0.643c-4.59,0.071-6.073,1.979-4.556,6.503c0.994,2.963,1.732,6.127-3.368,6.503
		c-2.885,0.212-3.71-0.729-4.173-3.336c-1.244-7.013-1.36-7.045-7.917-5.859c-2.739,0.496-4.661,0.57-5.2-3.1
		c-0.502-3.414,0.304-4.52,3.794-4.972c6.468-0.839,6.535-1.134,5.283-7.923c-0.578-3.133-0.143-4.508,3.525-5.178
		c3.918-0.715,4.069,1.253,4.436,3.834c0.186,1.31,0.663,2.594,0.723,3.902c0.12,2.633,1.455,2.915,3.601,2.231
		c1.096-0.35,2.333-0.283,3.404-0.681C377.889,207.994,378.039,211.519,378.166,214.614z"/>
	<path fill-rule="evenodd" clip-rule="evenodd" fill="#1F8B18" d="M810.558,142.398c-0.002,8.387-5.162,13.702-13.218,13.613
		c-8-0.088-13.002-5.494-12.902-13.943c0.097-8.264,4.883-13.11,12.964-13.128C805.753,128.922,810.56,133.839,810.558,142.398z
		 M790.184,142.22c-0.019,5.271,2.898,9.04,7.105,9.183c4.484,0.152,7.594-3.66,7.527-9.229c-0.063-5.254-3.091-8.952-7.35-8.979
		C793.291,133.169,790.201,136.997,790.184,142.22z"/>
	<path fill-rule="evenodd" clip-rule="evenodd" fill="#1E8A18" d="M170.888,172.994c0,2.864,0.137,5.034-0.047,7.177
		c-0.127,1.48-1.197,2.372-2.769,2.266c-1.638-0.11-2.354-1.146-2.172-2.71c0.248-2.118,0.61-4.222,0.941-6.45
		c-2.223-1.01-4.063,0.89-6.162,0.82c-1.571-0.052-3.191,0.127-3.534-1.817c-0.366-2.076,0.981-3.001,2.867-3.258
		c0.823-0.111,1.662-0.237,2.485-0.196c3.625,0.179,3.576-1.252,1.695-3.646c-0.608-0.774-1.064-1.68-1.52-2.561
		c-0.705-1.362-0.547-2.638,0.829-3.438c1.396-0.813,2.667-0.265,3.423,1.002c1.078,1.804,1.949,3.731,3.1,5.981
		c1.501-1.893,2.734-3.583,4.115-5.143c1.111-1.255,2.595-1.676,3.962-0.49c1.454,1.26,0.933,2.692-0.182,3.932
		c-1.307,1.452-2.671,2.853-4.33,4.614c2.307,0.98,4.239,1.76,6.134,2.62c1.37,0.621,2.096,1.719,1.548,3.213
		c-0.631,1.723-1.978,2.194-3.614,1.443C175.587,175.404,173.571,174.334,170.888,172.994z"/>
	<path fill-rule="evenodd" clip-rule="evenodd" fill="#1E8A18" d="M879.942,193.808c-2.419,0.469-4.461,0.91-6.52,1.248
		c-1.64,0.269-3.123-0.062-3.318-2.026c-0.179-1.809,1.023-2.631,2.662-3.004c1.898-0.433,3.996,0.312,5.784-0.923
		c-0.233-2.175-2.039-3.429-2.814-5.244c-0.581-1.363-0.746-2.657,0.559-3.553c1.563-1.073,2.938-0.362,3.787,1.075
		c0.998,1.689,1.76,3.519,2.875,5.799c1.434-1.806,2.637-3.472,4-4.994c1.231-1.375,2.798-1.999,4.311-0.468
		c1.382,1.398,0.638,2.84-0.538,3.909c-1.355,1.231-2.9,2.255-4.439,3.427c2.09,2.564,4.461,2.46,6.241,3.492
		c1.472,0.854,2.413,1.882,1.644,3.603c-0.771,1.725-2.216,1.86-3.763,1.122c-1.925-0.918-3.806-1.927-6.467-3.284
		c0,2.543,0.143,4.761-0.046,6.95c-0.146,1.69-1.25,2.729-3.083,2.47c-1.677-0.237-2.104-1.466-1.91-2.938
		C879.179,198.385,879.547,196.313,879.942,193.808z"/>
	<path fill-rule="evenodd" clip-rule="evenodd" fill="#581ED2" d="M531.882,221.372c-0.276-2.345-0.579-3.969-0.628-5.6
		c-0.054-1.763,0.453-3.535,2.528-3.64c2.214-0.112,2.619,1.77,2.652,3.48c0.035,1.785-0.776,3.566-0.088,5.433
		c2.15,0.12,3.586-1.609,5.481-2.005c1.668-0.348,3.482-0.583,4.094,1.595c0.521,1.859-0.787,2.743-2.312,3.235
		c-1.733,0.56-3.508,0.992-5.473,1.538c0.235,2.541,2.738,3.56,3.79,5.518c0.71,1.32,0.952,2.705-0.192,3.636
		c-1.27,1.032-2.889,0.932-3.973-0.476c-1.292-1.677-2.401-3.495-3.921-5.742c-1.214,1.899-2.229,3.5-3.257,5.092
		c-1.057,1.636-2.599,2.308-4.236,1.22c-1.868-1.24-1.096-2.868,0.014-4.279c1.113-1.416,2.281-2.79,3.769-4.601
		c-2.319-0.729-4.316-1.283-6.259-1.99c-1.579-0.574-2.486-1.673-1.861-3.475c0.574-1.659,2.01-1.71,3.292-1.347
		C527.354,219.547,529.325,220.418,531.882,221.372z"/>
	<path fill-rule="evenodd" clip-rule="evenodd" fill="#1F8B18" d="M413.249,219.638c-2.62-0.749-4.54-1.205-6.392-1.855
		c-1.573-0.553-2.485-1.647-1.87-3.462c0.568-1.674,1.989-1.735,3.268-1.366c2.054,0.593,4.022,1.48,6.125,2.281
		c0.999-1.756-0.114-3.476-0.109-5.193c0.006-1.986,0.341-3.918,2.719-3.904c2.16,0.013,2.44,1.959,2.415,3.673
		c-0.026,1.787-0.773,3.569,0.046,5.589c1.852-0.813,3.599-1.767,5.462-2.345c1.621-0.504,3.458-0.58,4.034,1.622
		c0.492,1.883-0.85,2.713-2.355,3.204c-1.821,0.595-3.681,1.072-5.544,1.605c0.433,2.208,2.229,3.108,3.237,4.576
		c1.108,1.613,2.162,3.373,0.114,4.702c-1.867,1.212-3.33-0.065-4.549-1.709c-1.052-1.419-1.318-3.424-3.271-4.438
		c-1.065,1.697-2.081,3.354-3.137,4.986c-1.097,1.694-2.71,2.085-4.267,0.972c-1.537-1.1-1.017-2.646-0.014-3.938
		C410.359,223.094,411.631,221.609,413.249,219.638z"/>
	<path fill-rule="evenodd" clip-rule="evenodd" fill="#1F8B18" d="M803.251,209.662c-2.267-0.66-3.828-1.12-5.393-1.569
		c-1.872-0.539-3.704-1.289-2.845-3.707c0.876-2.467,2.966-1.612,4.641-1.099c1.567,0.481,3.023,1.322,4.532,2.006
		c1.331-1.232,0.299-2.525,0.246-3.717c-0.101-2.309-0.795-5.33,2.506-5.355c2.992-0.023,2.449,2.86,2.302,5.018
		c-0.088,1.291-0.016,2.592-0.016,4.361c1.926-0.91,3.486-1.82,5.161-2.391c1.753-0.597,3.823-1.022,4.531,1.424
		c0.619,2.134-1.073,2.872-2.752,3.375c-1.687,0.506-3.383,0.979-5.129,1.48c0.507,2.311,2.472,3.288,3.524,4.924
		c0.985,1.533,1.65,3.172-0.107,4.344c-1.618,1.079-3.212,0.297-4.272-1.264c-1.087-1.6-2.087-3.257-3.362-5.265
		c-1.189,1.933-2.117,3.435-3.04,4.94c-1.11,1.81-2.725,2.735-4.558,1.431c-1.794-1.276-0.891-2.93,0.215-4.313
		C800.556,212.885,801.717,211.518,803.251,209.662z"/>
	<path fill-rule="evenodd" clip-rule="evenodd" fill="#DC2373" d="M211.016,173.088c3.67,0.056,6.692,3.145,6.364,6.751
		c-0.354,3.89-2.752,5.916-6.551,6.036c-3.643,0.116-6.617-3.145-6.417-6.715C204.602,175.78,207.586,173.037,211.016,173.088z"/>
	<path fill-rule="evenodd" clip-rule="evenodd" fill="#DC2373" d="M396.383,191.6c-0.425,3.225-2.229,5.26-5.494,5.234
		c-3.485-0.028-5.646-2.097-5.469-5.657c0.165-3.294,2.384-5.129,5.625-5.016C394.297,186.274,396.071,188.307,396.383,191.6z"/>
	<path fill-rule="evenodd" clip-rule="evenodd" fill="#DD2E79" d="M456.503,196.036c2.833,0.204,4.61,1.527,4.766,4.216
		c0.154,2.691-1.43,4.429-4.082,4.605c-2.895,0.193-4.784-1.441-4.856-4.355C452.263,197.794,454.126,196.468,456.503,196.036z"/>
	<path fill-rule="evenodd" clip-rule="evenodd" fill="#392930" d="M698.736,147.71c-0.14,2.128-1.119,3.579-3.255,3.707
		c-2.1,0.125-3.492-1.055-3.632-3.184c-0.138-2.118,1.042-3.467,3.169-3.637C697.197,144.422,698.282,145.772,698.736,147.71z"/>
	<path fill-rule="evenodd" clip-rule="evenodd" fill="#392930" d="M642.565,156.524c2.085,0.142,3.477,1.162,3.568,3.312
		c0.091,2.127-1.117,3.454-3.244,3.574c-2.162,0.121-3.47-1.183-3.576-3.246C639.206,158.085,640.457,156.835,642.565,156.524z"/>
	<path fill-rule="evenodd" clip-rule="evenodd" fill="#DF3A81" d="M56.186,184.586c-2.083-0.315-3.158-1.643-3.094-3.71
		c0.064-2.08,1.25-3.478,3.396-3.438c2.41,0.045,3.573,1.643,3.389,3.928C59.711,183.423,58.415,184.593,56.186,184.586z"/>
	<path fill-rule="evenodd" clip-rule="evenodd" fill="#DF3A81" d="M142.543,173.224c0.002,2.236-1.196,3.502-3.246,3.66
		c-2.292,0.177-3.882-0.999-3.904-3.407c-0.02-2.135,1.375-3.331,3.465-3.376C140.923,170.057,142.251,171.129,142.543,173.224z"/>
	<path fill-rule="evenodd" clip-rule="evenodd" fill="#DD2E79" d="M27.923,223.513c-2.105-0.31-3.439-1.458-3.375-3.597
		c0.063-2.119,1.407-3.412,3.531-3.356c2.12,0.056,3.406,1.401,3.354,3.53C31.381,222.223,30.01,223.318,27.923,223.513z"/>
	<path fill-rule="evenodd" clip-rule="evenodd" fill="#DF3A81" d="M22.588,230.795c-0.32,2.087-1.643,3.166-3.713,3.103
		c-2.083-0.064-3.481-1.255-3.445-3.397c0.042-2.412,1.647-3.572,3.933-3.388C21.418,227.278,22.595,228.568,22.588,230.795z"/>
	<path fill-rule="evenodd" clip-rule="evenodd" fill="#392930" d="M340.303,153.866c-0.112,2.088-1.16,3.441-3.289,3.53
		c-2.125,0.09-3.463-1.179-3.561-3.248c-0.099-2.086,1.156-3.445,3.265-3.543C338.836,150.507,340.02,151.751,340.303,153.866z"/>
	<path fill-rule="evenodd" clip-rule="evenodd" fill="#DD2E79" d="M77.224,209.937c-2.047-0.422-3.31-1.612-3.106-3.787
		c0.178-1.901,1.454-3.07,3.346-3.042c2.131,0.033,3.472,1.348,3.403,3.496C80.799,208.746,79.397,209.831,77.224,209.937z"/>
	<path fill-rule="evenodd" clip-rule="evenodd" fill="#DD2E79" d="M116.583,212.053c2.071,0.346,3.428,1.49,3.264,3.665
		c-0.16,2.127-1.552,3.327-3.717,3.144c-1.914-0.162-3.069-1.45-3.053-3.334C113.096,213.389,114.432,212.244,116.583,212.053z"/>
	<path fill-rule="evenodd" clip-rule="evenodd" fill="#DD2E79" d="M214.946,221.06c2.389,0.112,3.808,1.176,3.885,3.324
		c0.077,2.153-1.266,3.455-3.396,3.501c-1.9,0.041-3.168-1.116-3.359-3.021C211.857,222.676,213.178,221.544,214.946,221.06z"/>
	<path fill-rule="evenodd" clip-rule="evenodd" fill="#DF3A81" d="M620.313,198.977c-0.104,1.982-1.263,3.085-3.112,3.068
		c-1.955-0.019-2.939-1.407-2.838-3.268c0.088-1.62,1.079-2.832,2.802-2.825C619.031,195.959,620.181,197.015,620.313,198.977z"/>
	<path fill-rule="evenodd" clip-rule="evenodd" fill="#392930" d="M953.13,152.73c-0.292,1.742-1.351,2.644-3.081,2.569
		c-2.024-0.086-3.066-1.289-2.786-3.265c0.245-1.729,1.497-2.511,3.236-2.319C952.262,149.91,953.099,150.98,953.13,152.73z"/>
	<path fill-rule="evenodd" clip-rule="evenodd" fill="#DF3A81" d="M698.244,201.868c-0.078,1.873-1.057,3.13-3.026,3.184
		c-1.772,0.049-2.796-1.184-2.886-2.836c-0.105-1.915,0.946-3.264,2.95-3.264C696.983,198.952,697.986,200.066,698.244,201.868z"/>
	<path fill-rule="evenodd" clip-rule="evenodd" fill="#DD2E79" d="M504.613,194.641c1.702,0.067,2.926,0.801,3.084,2.592
		c0.155,1.764-0.798,2.883-2.54,3.067c-1.97,0.208-3.281-0.778-3.352-2.775C501.744,195.778,502.898,194.849,504.613,194.641z"/>
	<path fill-rule="evenodd" clip-rule="evenodd" fill="#DF3A81" d="M776.242,168.715c0.437-1.705,1.319-3.013,3.353-2.726
		c1.669,0.236,2.628,1.368,2.581,3.051c-0.059,2.077-1.459,2.813-3.324,2.676C777.107,171.588,776.291,170.481,776.242,168.715z"/>
	<path fill-rule="evenodd" clip-rule="evenodd" fill="#DD2E79" d="M762.313,200.624c1.883,0.051,3.088,0.859,3.229,2.589
		c0.164,1.998-1.024,3.132-2.969,3.127c-1.704-0.004-2.808-1.058-2.842-2.796C759.698,201.795,760.812,200.894,762.313,200.624z"/>
	<path fill-rule="evenodd" clip-rule="evenodd" fill="#DF3A81" d="M930.585,189.825c-0.212,2.081-1.214,3.198-3.187,3.088
		c-1.735-0.098-2.657-1.209-2.66-2.901c-0.003-1.684,0.889-2.811,2.634-2.923C929.354,186.961,930.317,188.114,930.585,189.825z"/>
	<path fill-rule="evenodd" clip-rule="evenodd" fill="#DF3A81" d="M888.851,213.945c-1.792-0.017-2.914-0.877-3.085-2.564
		c-0.193-1.903,0.751-3.21,2.735-3.294c1.962-0.084,3.063,1.074,3.034,3.016C891.51,212.796,890.493,213.765,888.851,213.945z"/>
	<path fill-rule="evenodd" clip-rule="evenodd" fill="#DF3A81" d="M821.243,170.043c0.349-1.732,1.519-2.499,3.166-2.411
		c1.674,0.089,2.901,1.052,2.751,2.789c-0.174,1.998-1.936,1.917-3.398,1.907C822.312,172.317,821.195,171.787,821.243,170.043z"/>
	<path fill-rule="evenodd" clip-rule="evenodd" fill="#DF3A81" d="M330.407,212.326c-0.083,1.547-0.93,2.432-2.407,2.54
		c-1.507,0.111-2.537-0.688-2.647-2.211c-0.112-1.538,0.838-2.441,2.327-2.529C329.165,210.039,330.094,210.861,330.407,212.326z"/>
	<path fill-rule="evenodd" clip-rule="evenodd" fill="#DF3A81" d="M564.434,192.551c1.258,0.253,2.864-0.436,2.959,1.224
		c0.085,1.484-1.149,2.318-2.596,2.286c-1.349-0.031-2.76-0.585-2.762-2.144C562.032,192.158,563.764,193.019,564.434,192.551z"/>
</g>
<g>
	<g>
		<path fill-rule="evenodd" clip-rule="evenodd" fill="#A0B738" d="M1194.731,83.366c-2.875,1.857-5.716,3.399-8.621,4.819
			c-5.92,2.895-12.043,5.247-18.478,6.727c-2.974,0.684-5.974,1.199-9.026,1.449c-2.904,0.238-5.813,0.231-8.703,0.098
			c-3.434-0.158-6.848-0.659-10.242-1.259c-4.153-0.733-8.232-1.782-12.294-2.888c-2.327-0.634-4.585-1.529-6.866-2.333
			c-0.274-0.097-0.774-0.079-0.735-0.504c0.039-0.421,0.159-0.868,0.649-1.105c1.563-0.757,3.095-1.582,4.666-2.322
			c7.004-3.303,14.251-5.938,21.811-7.635c2.981-0.669,6.003-1.149,9.069-1.395c3.142-0.251,6.269-0.402,9.407-0.155
			c3.04,0.24,6.065,0.581,9.085,1.053c6.602,1.033,13.011,2.747,19.273,5.044C1194.001,83.062,1194.271,83.18,1194.731,83.366z"/>
	</g>
	<path fill-rule="evenodd" clip-rule="evenodd" fill="#80674E" d="M1149.245,60.468c-4.26,2.64-8.154,5.425-11.838,8.503
		c-4.511,3.768-8.592,7.94-11.836,12.858c-2.365,3.585-4.387,7.367-5.457,11.567c-0.429,1.681-0.725,3.404-0.63,5.161
		c0.024,0.45,0.005,0.708-0.61,0.812c-0.871,0.146-1.729,0.054-2.586,0.122c-0.479,0.038-0.6-0.148-0.609-0.611
		c-0.068-3.307,0.234-6.568,1.055-9.781c2.139-8.362,6.412-15.506,12.523-21.526c2.898-2.855,6.555-4.541,10.428-5.707
		c2.359-0.71,4.76-1.222,7.244-1.291C1147.628,60.555,1148.323,60.361,1149.245,60.468z"/>
</g>
<g>
	<path fill-rule="evenodd" clip-rule="evenodd" fill="#FFFFFF" d="M1121.667,88.969c14.418-2.76,28.897-4.935,43.716-3.397
		C1159.499,88.767,1133.401,90.815,1121.667,88.969z"/>
</g>
<g>
	<path fill-rule="evenodd" clip-rule="evenodd" fill="#8C1C21" d="M1050.044,121.405c1.321-1.404,2.571-2.519,3.871-3.574
		c10.313-8.375,21.986-13.848,35.025-16.432c9.991-1.98,20.078-2.768,30.246-2.474c8.146,0.236,16.175,1.481,24.141,3.131
		c7.604,1.575,15.133,3.469,22.269,6.586c10.782,4.711,19.679,11.727,25.905,21.865c0.684,1.115,1.306,2.271,1.788,3.604
		c-2.4-0.912-4.701-1.811-7.021-2.66c-14.318-5.25-29.423-8.855-44.441-11.494c-15.164-2.663-30.02-3.671-45.383-3.12
		c-7.738,0.277-15.46,0.802-23.164,1.557C1065.583,119.149,1057.909,120.111,1050.044,121.405z"/>
</g>
<g>
	<path fill-rule="evenodd" clip-rule="evenodd" fill="#6D0507" d="M1040.103,140.291c0.627-3.365,3.234-8.881,4.551-11.922
		c2.416-0.291-0.705,0.084,1.441-0.174c8.599-1.029,17.986-2.43,26.568-3.6c7.721-1.053,15.443-2.083,23.164-3.136
		c8.582-1.169,17.158-2.373,25.744-3.51c1.639-0.217,3.547-0.565,5.184-0.41c7.641,0.729,14.746,1.923,22.291,3.35
		c8.889,1.681,17.896,4.416,26.605,6.843c5.186,1.447,10.387,2.859,15.304,5.111c0.72,0.328,1.413,0.711,2.312,1.166
		c-2.557,0-4.879,0.023-7.201-0.004c-12.418-0.145-24.836-0.289-37.254-0.461c-3.451-0.049-6.873-0.545-10.31-0.818
		c-11.102-0.883-22.208-1.426-33.349-0.871c-6.352,0.316-12.704,0.627-19.039,1.172c-6.928,0.598-13.872,1.082-20.699,2.502
		c-3.285,0.684-6.506,1.631-9.631,2.846c-1.576,0.611-3.202,0.723-4.834,0.887c-3.788,0.381-6.791,0.654-10.582,1.012
		C1040.196,140.291,1040.288,140.291,1040.103,140.291z"/>
</g>
<g>
	<path fill-rule="evenodd" clip-rule="evenodd" fill="#E5B229" d="M1111.667,131.465c3.39-0.146,6.779-0.037,10.168,0.02
		c4.411,0.074,8.852,0.363,13.24,0.764c4.326,0.395,8.645,0.807,12.965,1.279c7,0.766,13.917,2.033,20.855,3.24
		c8.824,1.535,17.592,3.352,26.288,5.504c0.593,0.146,0.817,0.365,0.859,0.99c0.399,5.975-0.551,12.738-3.568,18.135
		c0,0-0.032-0.035-0.106-0.076c-8.528-3.518-18.162-6.291-27.17-8.215c-6.686-1.428-13.435-2.475-20.23-3.195
		c-4.414-0.467-8.842-0.768-13.277-0.959c-7.439-0.322-14.879-0.164-22.316,0.055c-8.063,0.238-16.115,0.717-24.139,1.592
		c-13.424,1.461-26.422,4.598-38.869,9.898c-0.744,0.316-1.479,0.656-2.207,1.008c-0.377,0.182-0.576,0.121-0.748-0.287
		c-1.71-4.059-3.426-8.115-5.174-12.156c-0.23-0.531,0.094-0.703,0.377-0.945c3.929-3.355,8.336-5.951,13.002-8.125
		c6.578-3.066,13.544-4.746,20.689-5.801c10.219-1.508,20.497-2.242,30.813-2.574
		C1105.97,131.525,1108.818,131.525,1111.667,131.465z"/>
</g>
<g>
	<path fill-rule="evenodd" clip-rule="evenodd" fill="#D76525" d="M1046.001,165.27c4.732-0.918,9.49-1.859,14.227-2.758
		c8.979-1.701,17.975-3.311,26.994-4.779c7.602-1.238,15.217-2.381,22.859-3.35c7.406-0.939,14.826-1.766,22.262-2.43
		c5.556-0.498,11.118-0.928,16.684-1.289c2.037-0.133,4.088,0.277,6.1,0.578c7.41,1.111,14.744,2.543,21.965,4.586
		c5.049,1.428,9.99,3.16,14.826,5.193c0.188,0.08,0.372,0.168,0.558,0.375c-0.274,0-0.55,0.008-0.823-0.002
		c-11.908-0.396-23.817-0.398-35.727-0.127c-10.438,0.24-20.867,0.688-31.267,1.639c-17.04,1.555-33.845,4.539-50.468,8.574
		c-0.596,0.145-1.152,0.164-1.759,0.025c-8.669-1.99-17.343-3.959-26.016-5.934c-0.134-0.031-0.238-0.063-0.37-0.1
		C1046.05,165.406,1045.997,165.338,1046.001,165.27z"/>
</g>
<g>
	<path fill-rule="evenodd" clip-rule="evenodd" fill="#ABB633" d="M1184.974,171.086c-1.236,1.551-2.677,2.813-4.171,4.008
		c-8.554,6.84-18.22,11.492-28.722,14.451c-7.518,2.119-15.208,3.303-22.959,4.203c-6.459,0.75-12.876,0.248-19.309-0.188
		c-6.046-0.408-12.055-1.129-18.02-2.205c-16.797-3.031-31.221-10.576-43.203-22.752c-0.672-0.684-1.291-1.42-1.933-2.135
		c-0.101-0.111-0.198-0.225-0.285-0.348c-0.19-0.27-0.295-0.455-0.342-0.633c-0.058-0.219-0.086-0.25,0.04-0.193
		c3.693,1.033,8.334,1.98,12.061,2.881c11.395,2.752,22.878,5.031,34.488,6.664c8.796,1.236,17.62,2.096,26.504,2.371
		c8.406,0.26,16.796,0.02,25.182-0.561c12.873-0.895,25.64-2.582,38.299-5.084C1183.396,171.41,1184.185,171.246,1184.974,171.086z"
		/>
</g>
</svg>
