<?xml version="1.0" standalone="no"?>
<!DOCTYPE svg PUBLIC "-//W3C//DTD SVG 20010904//EN"
 "http://www.w3.org/TR/2001/REC-SVG-20010904/DTD/svg10.dtd">
<svg version="1.0" xmlns="http://www.w3.org/2000/svg"
 width="1400.000000pt" height="648.000000pt" viewBox="0 0 1400.000000 648.000000"
 preserveAspectRatio="xMidYMid meet">
<metadata>
Created by potrace 1.15, written by Peter Selinger 2001-2017
</metadata>
<g transform="translate(0.000000,648.000000) scale(0.100000,-0.100000)"
fill="#000000" stroke="none">
<path d="M0 3240 l0 -3240 470 0 471 0 92 58 c786 498 1718 928 2602 1202
1752 541 3449 674 5165 404 1553 -244 3043 -794 4300 -1585 l124 -79 388 0
388 0 0 3240 0 3240 -7000 0 -7000 0 0 -3240z"/>
<path d="M6670 1473 c-406 -15 -873 -60 -1313 -128 -198 -31 -221 -37 -261
-65 -36 -24 -55 -30 -98 -30 -30 0 -58 4 -64 9 -5 6 -27 6 -57 -1 -40 -8 -47
-13 -42 -29 6 -17 1 -19 -42 -19 -26 0 -72 -9 -101 -20 -56 -21 -112 -26 -128
-11 -9 10 -106 -7 -120 -21 -3 -4 14 -13 40 -20 77 -20 58 -49 -50 -75 -95
-22 -113 -42 -149 -160 -21 -71 -44 -120 -87 -185 -63 -96 -80 -108 -157 -108
-67 0 -91 -27 -91 -102 0 -31 -5 -69 -11 -85 -7 -15 -15 -59 -18 -98 l-6 -70
-55 -28 c-30 -16 -64 -37 -76 -48 -33 -30 -254 -123 -266 -111 -7 7 -8 33 -3
68 6 53 12 63 68 121 33 35 58 66 55 69 -3 3 -37 -10 -76 -30 l-69 -35 -37
-85 c-20 -46 -36 -88 -36 -92 0 -4 -11 -22 -25 -40 -14 -18 -25 -35 -25 -38 0
-3 197 -6 438 -6 365 1 434 3 420 14 -10 7 -18 18 -18 23 0 18 125 133 157
145 23 8 38 24 52 52 27 57 117 103 216 112 52 4 89 15 145 42 l75 37 -87 3
c-49 1 -88 7 -88 12 0 20 23 66 42 88 17 17 32 22 74 22 95 0 194 30 194 59 0
4 -14 12 -31 18 -27 11 -30 15 -27 49 3 35 7 40 73 75 45 25 83 55 108 85 25
31 55 55 87 68 35 15 63 39 101 85 67 82 63 103 -26 135 -36 12 -61 28 -63 37
-4 21 54 66 144 113 59 30 80 36 135 36 35 0 110 11 166 25 245 59 319 68 653
75 217 4 325 10 347 19 26 10 55 10 163 -4 135 -16 186 -34 289 -100 30 -19
55 -24 147 -29 110 -6 174 -20 174 -37 0 -19 -61 -39 -118 -39 l-59 0 -12 -60
c-14 -70 -27 -86 -81 -95 -22 -4 -40 -10 -40 -15 0 -4 36 -30 80 -58 44 -28
80 -55 80 -60 0 -10 -128 -52 -161 -52 -22 0 -20 -4 22 -43 43 -39 68 -81 55
-94 -2 -3 -33 -22 -67 -42 -54 -31 -64 -41 -75 -80 -7 -24 -18 -47 -25 -51 -6
-5 -50 5 -96 21 -76 26 -90 27 -135 18 l-50 -11 6 -36 c3 -21 19 -50 39 -71
24 -26 40 -58 56 -114 12 -43 19 -82 16 -88 -4 -5 -25 -22 -48 -36 -23 -14
-50 -37 -60 -50 -10 -12 -27 -23 -38 -23 -11 0 -140 -29 -287 -64 -304 -74
-365 -83 -414 -66 -31 11 -39 10 -93 -18 l-60 -31 1873 -1 c1513 0 1872 2
1872 13 0 30 -28 54 -59 49 -30 -4 -31 -3 -31 31 0 30 7 41 45 72 30 25 49 50
57 77 6 22 17 42 23 45 7 2 29 -6 49 -17 20 -12 36 -20 37 -18 1 1 6 29 13 62
l11 58 103 44 c57 24 108 44 115 44 7 0 48 -25 91 -55 l80 -55 80 0 c116 0
241 -15 412 -49 82 -16 198 -35 259 -42 105 -13 112 -15 180 -60 38 -27 93
-69 122 -94 46 -41 52 -49 46 -75 l-5 -30 52 0 c52 0 52 0 45 27 -3 15 -7 32
-8 37 -1 5 8 12 21 15 13 3 23 11 22 16 0 6 -79 55 -175 110 -97 55 -175 105
-175 110 0 6 24 8 58 6 43 -2 84 -16 171 -57 63 -30 116 -52 118 -50 3 2 -13
45 -36 95 -22 50 -37 92 -33 92 4 1 16 2 26 3 13 1 26 16 39 50 l20 48 -36 32
c-20 17 -48 54 -62 81 l-26 50 -187 73 c-962 375 -2049 622 -3107 707 -381 30
-916 42 -1295 28z m1993 -265 c66 -22 68 -24 63 -50 -5 -25 -2 -28 36 -39 72
-19 178 -77 190 -104 13 -29 5 -43 -16 -26 -19 16 -112 41 -154 41 l-33 0 51
-72 c48 -68 50 -73 30 -80 -25 -9 -38 -4 -125 48 -39 24 -104 55 -145 70 -41
15 -93 41 -115 59 -22 18 -55 40 -74 50 -33 17 -91 72 -91 87 0 4 21 7 48 7
26 0 72 7 102 15 82 21 154 19 233 -6z"/>
<path d="M3615 924 c-131 -45 -129 -44 -123 -50 3 -3 35 2 71 11 60 16 67 16
96 0 21 -10 31 -22 29 -33 -5 -26 -86 -75 -203 -123 -82 -34 -117 -54 -148
-87 -56 -57 -108 -72 -260 -72 l-118 0 -105 -97 c-101 -94 -104 -99 -104 -140
l0 -43 -44 0 c-34 0 -46 4 -50 18 -5 14 -18 17 -73 18 -38 1 -81 7 -98 14
l-30 12 55 27 c30 14 80 43 110 64 l55 38 -85 -3 c-71 -3 -96 -8 -150 -34 -36
-18 -92 -39 -125 -49 -78 -22 -705 -345 -749 -386 -6 -5 153 -9 372 -9 l383 0
72 48 c113 76 111 76 165 56 46 -17 101 -66 102 -91 0 -10 26 -13 98 -13 l97
1 50 105 c28 58 51 109 53 113 1 4 -23 13 -54 21 -30 8 -56 20 -57 25 -3 13
212 124 241 125 12 0 45 -11 72 -25 l49 -25 16 30 c18 35 32 43 104 60 30 7
82 25 116 41 33 15 90 32 126 39 127 22 119 17 146 79 14 31 47 82 74 113 50
58 79 103 79 125 0 8 -18 9 -60 6 -41 -4 -60 -2 -61 6 -1 6 -3 16 -4 21 -1 6
-3 30 -4 55 -1 29 -5 45 -13 44 -7 0 -58 -16 -113 -35z"/>
</g>
</svg>
