<?xml version="1.0" encoding="utf-8"?>
<!-- Generator: Adobe Illustrator 16.0.3, SVG Export Plug-In . SVG Version: 6.00 Build 0)  -->
<!DOCTYPE svg PUBLIC "-//W3C//DTD SVG 1.1//EN" "http://www.w3.org/Graphics/SVG/1.1/DTD/svg11.dtd">
<svg version="1.1" id="Capa_1" xmlns="http://www.w3.org/2000/svg" xmlns:xlink="http://www.w3.org/1999/xlink" x="0px" y="0px"
	 width="1400px" height="648px" viewBox="0 0 1400 648" enable-background="new 0 0 1400 648" xml:space="preserve">
<rect fill-rule="evenodd" clip-rule="evenodd" fill="#15294E" width="1400" height="648"/>
<g>
	<path fill-rule="evenodd" clip-rule="evenodd" fill="#0F82AE" d="M1126,648c-3.333,0-6.667,0-10,0
		c-0.291-2.533,1.639-5.475-0.945-7.566c-9.988-8.082-18.932-17.258-33.256-18.52c-24.652-2.17-48.655-9.897-73.719-9.117
		c-2.079,0.064-4.071-0.834-5.419-2.278c-9.14-9.795-18.821-8.306-29.412-2.377c-4.013,2.246-6.864,4.292-6.995,9.09
		c-0.125,4.54-1.834,6.189-6.071,3.196c-1.54-1.089-3.892-2.04-4.588,0.412c-1.705,5.999-6.115,9.588-10.277,13.683
		c-3.183,3.132-1.452,6.74,2.904,7.16c3.933,0.378,4.66,3.098,4.778,6.317c-124.667,0-249.333,0-374,0
		c5.219-3.214,9.945-8.188,17.042-4.164c1.133,0.642,2.962,0.297,4.42,0.08c6.424-0.956,12.841-1.898,19.167-3.482
		c14.222-3.563,28.481-6.976,42.761-10.302c6.702-1.561,9.983-7.935,15.752-10.786c0.854-0.422,0.789-1.85,0.428-2.797
		c-2.547-6.668-2.019-14.716-9.052-19.386c-2.512-1.668-2.416-4.739-2.025-7.35c0.425-2.84,3.268-2.265,5.228-2.86
		c5.852-1.779,10.671,1.663,15.838,3.209c6.106,1.827,6.995,1.7,8.707-4.221c1.076-3.726,3.177-6.04,6.555-7.582
		c1.813-0.827,3.469-1.993,5.256-2.886c2.696-1.346,2.854-3.28,1.756-5.815c-1.194-2.758-3.483-4.415-5.691-6.17
		c-2.186-1.736-1.997-2.703,0.752-3.443c3.536-0.954,7.02-2.115,10.497-3.271c1.214-0.404,2.96-0.551,3.067-2.135
		c0.101-1.496-1.56-1.99-2.612-2.749c-4.063-2.929-8.75-5.024-12.594-8.768c9.343-4.08,9.427-4.055,12.347-13.622
		c0.82-2.69,2.223-3.771,4.985-3.772c3.296-0.001,6.719,0.611,9.82-1.077c1.233-0.672,3.26-0.911,3.023-2.803
		c-0.185-1.486-1.953-1.656-3.188-1.958c-5.856-1.429-11.857-1.814-17.842-1.765c-4.69,0.039-8.706-1.063-12.544-3.885
		c-12.104-8.899-26.914-11.382-40.484-9.344c-14.198,2.133-28.151,2.067-42.168,1.979c-19.333-0.122-38.173,2.466-56.9,6.786
		c-5.83,1.345-11.611,3.979-17.584,3.424c-9.403-0.874-16.787,3.385-24.111,7.995c-2.53,1.594-6.491,3.118-6.103,6.581
		c0.42,3.736,4.777,3.44,7.633,4.52c1.09,0.412,2.339,0.563,3.271,1.192c2.317,1.567,3.653,3.911,1.719,6.334
		c-4.695,5.881-8.141,13.236-16.622,14.986c-2.271,0.468-3.723,2.197-4.887,4.047c-2.939,4.668-6.977,7.953-12.006,10.158
		c-1.975,0.865-3.924,1.901-5.666,3.161c-2.942,2.127-2.848,7.093-0.013,8.879c1.174,0.739,3.595,0.487,3.257,2.399
		c-0.355,2.013-2.286,3.183-4.353,3.676c-4.704,1.124-9.414,2.015-14.314,1.906c-5.232-0.115-8.785,2.752-10.445,7.542
		c-1.206,3.48-0.349,4.905,3.491,4.836c3.63-0.064,7.347-0.637,11.389,0.415c-8.302,5.577-11.145,6.284-22.75,7.936
		c-8.383,1.193-16.268,3.739-20.024,12.586c-0.612,1.441-1.779,2.4-3.232,2.971c-5.787,2.271-9.667,6.925-14.008,11.042
		c-2.905,2.756-3.145,5.19,0.06,7.752c-29,0-58,0-87,0c4.594-6.787,7.379-14.465,10.543-21.927
		c3.008-7.096,9.586-8.011,16.046-11.112c-0.979,4.378-3.632,6.139-5.892,7.882c-4.335,3.345-6.012,7.72-6.516,12.897
		c-0.551,5.657,0.629,6.362,6.04,4.563c11.49-3.819,21.257-10.863,31.801-16.448c1.203-0.637,2.693-1.444,2.498-2.852
		c-1.2-8.667,4.37-16.335,3.421-25.017c-0.642-5.869,2.019-8.39,8.065-8.862c1.495-0.117,2.99-0.344,4.483-0.332
		c4.061,0.03,6.511-2.08,8.934-5.248c6.599-8.631,11.226-18.098,13.504-28.673c1.321-6.135,4.817-9.559,11.025-10.555
		c3.431-0.551,6.922-1.174,9.966-3.085c1.013-0.635,2.017-1.396,1.722-2.754c-0.242-1.117-1.329-1.363-2.31-1.627
		c-2.411-0.648-4.859-1.203-6.992-2.6c4.008-1.05,8.017-2.1,12.024-3.148c3.787,2.672,7.948,1.986,11.812,0.697
		c4.382-1.463,8.503-3.245,13.358-2.472c3.461,0.552,4.107-1.253,2.148-4.033c3.405-0.748,6.812-1.496,10.217-2.245
		c6.003,4.329,13.167,2.91,19.736-3.91c1.65-0.214,3.312-0.362,4.949-0.65c55.244-9.706,110.922-15.117,166.982-16.284
		c83.789-1.744,166.757,5.808,248.832,22.874c66.405,13.808,131.053,33.381,193.812,59.142c0.901,5.133,3.646,9.204,7.469,12.568
		c3.244,2.855,3.068,11.065-0.898,11.833c-6.789,1.313-3.077,4.443-2.104,7.158c1.508,4.205,4.035,8.061,5.354,13.646
		c-5.756-2.725-10.311-4.732-14.726-7.01c-5.213-2.689-10.39-5.305-16.512-4.858c-1.251,0.092-3.026-0.805-3.455,0.898
		c-0.38,1.512,1.4,2.074,2.507,2.706c6.944,3.963,13.958,7.807,20.868,11.828c3.958,2.304,8.146,4.305,12.154,7.917
		C1122.357,639.861,1125.607,644.407,1126,648z M888.197,550.277c-0.6-3.899-1.992-6.363-4.864-7.751
		c-4.198-2.028-8.44-3.975-12.735-5.788c-2.826-1.193-7.039-0.838-5.733-6.015c0.107-0.425-0.885-1.483-1.542-1.691
		c-7.245-2.286-14.219-5.733-22.301-3.765c-5.628,1.371-11.229,3.232-17.168,2.982c-1.12-0.048-2.522-0.447-3.064,0.954
		c-0.504,1.302,0.599,2.203,1.418,2.957c6.389,5.88,13.579,10.976,21.354,14.402c8.248,3.635,16.471,7.125,24.069,11.992
		c1.699,1.088,3.458,1.982,5.57,1.959c2.843-0.031,3.807-1.102,2.065-3.646c-1.694-2.475-3.524-4.856-5.186-7.353
		c-0.79-1.188-2.486-2.452-1.525-3.904c1.032-1.56,3.065-0.941,4.63-0.56C878.112,546.254,883.063,547.409,888.197,550.277z"/>
	<path fill-rule="evenodd" clip-rule="evenodd" fill="#4CAF50" d="M416,648c-3.204-2.562-2.965-4.996-0.06-7.752
		c4.341-4.117,8.221-8.771,14.008-11.042c1.453-0.57,2.62-1.529,3.232-2.971c3.757-8.847,11.642-11.393,20.024-12.586
		c11.605-1.651,14.448-2.358,22.75-7.936c-4.042-1.052-7.759-0.479-11.389-0.415c-3.84,0.069-4.697-1.355-3.491-4.836
		c1.66-4.79,5.213-7.657,10.445-7.542c4.9,0.108,9.61-0.782,14.314-1.906c2.066-0.493,3.997-1.663,4.353-3.676
		c0.338-1.912-2.083-1.66-3.257-2.399c-2.835-1.786-2.93-6.752,0.013-8.879c1.742-1.26,3.691-2.296,5.666-3.161
		c5.029-2.205,9.066-5.49,12.006-10.158c1.164-1.85,2.616-3.579,4.887-4.047c8.481-1.75,11.927-9.105,16.622-14.986
		c1.935-2.423,0.599-4.767-1.719-6.334c-0.933-0.63-2.182-0.78-3.271-1.192c-2.855-1.079-7.213-0.783-7.633-4.52
		c-0.389-3.463,3.572-4.987,6.103-6.581c7.324-4.61,14.708-8.869,24.111-7.995c5.973,0.556,11.754-2.079,17.584-3.424
		c18.728-4.32,37.567-6.908,56.9-6.786c14.017,0.089,27.97,0.154,42.168-1.979c13.57-2.038,28.381,0.444,40.484,9.344
		c3.838,2.822,7.854,3.924,12.544,3.885c5.984-0.05,11.985,0.336,17.842,1.765c1.235,0.302,3.004,0.472,3.188,1.958
		c0.236,1.892-1.79,2.131-3.023,2.803c-3.102,1.688-6.524,1.076-9.82,1.077c-2.763,0.001-4.165,1.082-4.985,3.772
		c-2.92,9.567-3.004,9.542-12.347,13.622c3.844,3.743,8.531,5.839,12.594,8.768c1.053,0.759,2.713,1.253,2.612,2.749
		c-0.107,1.584-1.854,1.73-3.067,2.135c-3.478,1.155-6.961,2.316-10.497,3.271c-2.749,0.74-2.938,1.707-0.752,3.443
		c2.208,1.755,4.497,3.412,5.691,6.17c1.099,2.535,0.94,4.47-1.756,5.815c-1.787,0.893-3.442,2.059-5.256,2.886
		c-3.378,1.542-5.479,3.856-6.555,7.582c-1.712,5.921-2.601,6.048-8.707,4.221c-5.167-1.546-9.986-4.988-15.838-3.209
		c-1.96,0.596-4.803,0.021-5.228,2.86c-0.391,2.61-0.486,5.682,2.025,7.35c7.033,4.67,6.505,12.718,9.052,19.386
		c0.361,0.947,0.426,2.375-0.428,2.797c-5.769,2.852-9.05,9.226-15.752,10.786c-14.279,3.326-28.539,6.739-42.761,10.302
		c-6.326,1.584-12.743,2.526-19.167,3.482c-1.458,0.217-3.287,0.562-4.42-0.08c-7.097-4.024-11.823,0.95-17.042,4.164
		C524.667,648,470.333,648,416,648z"/>
	<path fill-rule="evenodd" clip-rule="evenodd" fill="#4BAF50" d="M365.676,551.804c1.479-1.804,3.685-2.175,5.722-2.808
		c19.044-5.909,38.235-11.294,57.56-16.211c2.111-0.537,4.201-1.023,6.384-0.534c2.131,1.397,4.579,1.952,6.99,2.601
		c0.98,0.264,2.067,0.51,2.31,1.627c0.295,1.358-0.709,2.119-1.722,2.754c-3.044,1.911-6.535,2.534-9.966,3.085
		c-6.208,0.996-9.704,4.42-11.025,10.555c-2.278,10.575-6.905,20.042-13.504,28.673c-2.423,3.168-4.873,5.278-8.934,5.248
		c-1.493-0.012-2.988,0.215-4.483,0.332c-6.047,0.473-8.707,2.993-8.065,8.862c0.949,8.682-4.621,16.35-3.421,25.017
		c0.195,1.407-1.295,2.215-2.498,2.852c-10.544,5.585-20.311,12.629-31.801,16.448c-5.411,1.799-6.591,1.094-6.04-4.563
		c0.504-5.178,2.181-9.553,6.516-12.897c2.26-1.743,4.912-3.504,5.892-7.882c-6.46,3.102-13.038,4.017-16.046,11.112
		c-3.164,7.462-5.949,15.14-10.543,21.927c-17,0-34,0-51,0c0.921-5.019,3.76-9.215,5.923-13.693
		c3.916-8.108,3.957-8.084-4.322-11.082c-1.05-0.38-2.495-0.423-2.603-1.899c-0.103-1.407,1.177-1.903,2.193-2.423
		c4.002-2.045,8.201-3.763,12.003-6.124c5.977-3.712,11.751-5.173,17.964-0.646c2.33,1.697,4.305,1.13,5.691-1.521
		c0.928-1.773,2.002-3.568,4.209-3.97c12.932-2.35,24.179-10.516,37.713-10.857c2.525-0.063,5.046-0.95,5.828-3.86
		c1.984-7.38,7.035-12.706,11.949-18.139c1.805-1.994,3.343-4.131,3.875-6.864c0.291-1.5,0.424-2.438-1.725-2.523
		c-9.972-0.394-9.968-0.462-10.794-10.611C365.852,553.124,365.753,552.465,365.676,551.804z"/>
	<path fill-rule="evenodd" clip-rule="evenodd" fill="#0F82AE" d="M365.676,551.804c0.077,0.661,0.176,1.32,0.229,1.983
		c0.826,10.149,0.822,10.218,10.794,10.611c2.148,0.085,2.016,1.023,1.725,2.523c-0.532,2.733-2.07,4.87-3.875,6.864
		c-4.914,5.433-9.965,10.759-11.949,18.139c-0.782,2.91-3.303,3.797-5.828,3.86c-13.534,0.342-24.781,8.508-37.713,10.857
		c-2.207,0.401-3.281,2.196-4.209,3.97c-1.387,2.65-3.361,3.218-5.691,1.521c-6.213-4.527-11.987-3.066-17.964,0.646
		c-3.802,2.361-8.001,4.079-12.003,6.124c-1.017,0.52-2.296,1.016-2.193,2.423c0.108,1.477,1.553,1.52,2.603,1.899
		c8.278,2.998,8.237,2.974,4.322,11.082c-2.163,4.479-5.002,8.675-5.923,13.693c-6.667,0-13.333,0-20,0
		c-2.043-7.61-11.503-13.855-17.147-10.808C235.241,640.223,229.7,643.544,225,648c-26,0-52,0-78,0
		c24.293-14.506,49.52-27.246,74.942-39.618c4.81-0.68,9.348-1.998,13.626-4.481c6.645-3.856,13.855-4.743,22.508-3.212
		c-5.819,4.123-10.618,7.823-16.416,9.993c-1.007,0.376-2.45,0.624-2.279,2.162c0.051,0.459,0.833,1.086,1.372,1.202
		c4.04,0.869,8.024,2.752,12.206,1.878c2.421-0.506,3.807-0.492,5.342,1.795c1.626,2.423,4.55,1.405,6.953,1.113
		c1.67-0.202,1.999-1.789,1.795-3.102c-0.75-4.86,2.694-7.219,5.312-10.492c9.444-11.809,21.199-16.072,36.171-14.285
		c6.533,0.78,13.144-1.778,17.437-7.828c1.586-2.234,3.9-3.488,6.41-4.554c6.733-2.856,13.401-5.869,20.09-8.831
		c2.614-1.157,4.876-2.817,6.952-4.779c1.926-1.818,1.854-3.325-0.374-4.802c-2.29-1.52-4.576-2.582-7.463-1.639
		c-2.523,0.824-5.144,1.359-7.731,1.977c-1.035,0.247-2.182,0.468-1.528-1.316C350.108,556.722,357.892,554.263,365.676,551.804z"/>
	<path fill-rule="evenodd" clip-rule="evenodd" fill="#4CAF50" d="M953,648c-0.118-3.22-0.846-5.939-4.778-6.317
		c-4.356-0.42-6.087-4.028-2.904-7.16c4.162-4.095,8.572-7.684,10.277-13.683c0.696-2.452,3.048-1.501,4.588-0.412
		c4.237,2.993,5.946,1.344,6.071-3.196c0.131-4.798,2.982-6.844,6.995-9.09c10.591-5.929,20.272-7.418,29.412,2.377
		c1.348,1.444,3.34,2.343,5.419,2.278c25.063-0.78,49.066,6.947,73.719,9.117c14.324,1.262,23.268,10.438,33.256,18.52
		c2.584,2.092,0.654,5.033,0.945,7.566C1061.667,648,1007.333,648,953,648z"/>
	<path fill-rule="evenodd" clip-rule="evenodd" fill="#4CAF50" d="M1119.21,582.222c1.923-0.35,3.602,0.464,5.283,1.162
		c43.85,18.223,86.46,38.971,127.628,62.654c1.004,0.577,1.921,1.305,2.879,1.962c-43,0-86,0-129,0
		c-0.393-3.593-3.643-8.139,3.866-9.092c-4.009-3.612-8.196-5.613-12.154-7.917c-6.91-4.021-13.924-7.865-20.868-11.828
		c-1.106-0.632-2.887-1.194-2.507-2.706c0.429-1.703,2.204-0.807,3.455-0.898c6.122-0.446,11.299,2.169,16.512,4.858
		c4.415,2.277,8.97,4.285,14.726,7.01c-1.318-5.585-3.846-9.44-5.354-13.646c-0.973-2.715-4.685-5.846,2.104-7.158
		c3.967-0.768,4.143-8.978,0.898-11.833C1122.856,591.426,1120.111,587.354,1119.21,582.222z"/>
	<path fill-rule="evenodd" clip-rule="evenodd" fill="#4BAE51" d="M225,648c4.7-4.456,10.241-7.777,15.853-10.808
		c5.644-3.048,15.104,3.197,17.147,10.808C247,648,236,648,225,648z"/>
	<path fill-rule="evenodd" clip-rule="evenodd" fill="#4BAE51" d="M888.197,550.277c-5.135-2.868-10.085-4.023-15.012-5.225
		c-1.564-0.382-3.598-1-4.63,0.56c-0.961,1.452,0.735,2.717,1.525,3.904c1.661,2.496,3.491,4.878,5.186,7.353
		c1.741,2.544,0.777,3.614-2.065,3.646c-2.112,0.023-3.871-0.871-5.57-1.959c-7.599-4.867-15.821-8.357-24.069-11.992
		c-7.775-3.427-14.966-8.522-21.354-14.402c-0.819-0.754-1.922-1.655-1.418-2.957c0.542-1.401,1.944-1.002,3.064-0.954
		c5.938,0.25,11.54-1.611,17.168-2.982c8.082-1.969,15.056,1.479,22.301,3.765c0.657,0.208,1.649,1.267,1.542,1.691
		c-1.306,5.177,2.907,4.821,5.733,6.015c4.295,1.813,8.537,3.76,12.735,5.788C886.205,543.914,887.598,546.378,888.197,550.277z"/>
	<path fill-rule="evenodd" clip-rule="evenodd" fill="#4BAD53" d="M447.363,529.104c8.813-3.323,17.843-5.616,27.319-5.809
		c1.958,2.781,1.312,4.586-2.149,4.034c-4.855-0.773-8.977,1.009-13.358,2.472C455.312,531.09,451.15,531.775,447.363,529.104z"/>
	<path fill-rule="evenodd" clip-rule="evenodd" fill="#4CAE52" d="M484.898,521.051c6.305-2.682,12.949-3.653,19.735-3.91
		C498.065,523.961,490.901,525.38,484.898,521.051z"/>
	<path fill-rule="evenodd" clip-rule="evenodd" fill="#4CAE50" d="M342.324,559.181c-0.653,1.784,0.493,1.563,1.528,1.316
		c2.588-0.617,5.208-1.152,7.731-1.977c2.887-0.943,5.173,0.119,7.463,1.639c2.228,1.477,2.3,2.983,0.374,4.802
		c-2.076,1.962-4.338,3.622-6.952,4.779c-6.688,2.962-13.356,5.975-20.09,8.831c-2.51,1.065-4.824,2.319-6.41,4.554
		c-4.293,6.05-10.903,8.608-17.437,7.828c-14.972-1.787-26.727,2.477-36.171,14.285c-2.618,3.273-6.062,5.632-5.312,10.492
		c0.203,1.313-0.125,2.899-1.795,3.102c-2.403,0.292-5.327,1.31-6.953-1.113c-1.535-2.287-2.92-2.301-5.342-1.795
		c-4.182,0.874-8.166-1.009-12.206-1.878c-0.54-0.116-1.321-0.743-1.372-1.202c-0.171-1.538,1.271-1.786,2.279-2.162
		c5.797-2.17,10.596-5.87,16.416-9.993c-8.653-1.531-15.863-0.645-22.508,3.212c-4.278,2.483-8.816,3.802-13.626,4.481
		c1.937-2.227,4.685-3.13,7.229-4.321c34.264-16.037,69.218-30.39,104.957-42.811C336.794,560.323,339.426,559.209,342.324,559.181z
		"/>
</g>
</svg>
