<?xml version="1.0" encoding="utf-8"?>
<!-- Generator: Adobe Illustrator 16.0.3, SVG Export Plug-In . SVG Version: 6.00 Build 0)  -->
<!DOCTYPE svg PUBLIC "-//W3C//DTD SVG 1.1//EN" "http://www.w3.org/Graphics/SVG/1.1/DTD/svg11.dtd">
<svg version="1.1" xmlns="http://www.w3.org/2000/svg" xmlns:xlink="http://www.w3.org/1999/xlink" x="0px" y="0px" width="750px"
	 height="500px" viewBox="0 0 750 500" enable-background="new 0 0 750 500" xml:space="preserve">
<g id="BACKGROUND_2">
	<g>
		<rect y="-4" fill="#FFFFFF" width="750" height="500"/>
		<rect display="none" fill="#E9E6E1" width="750" height="500"/>
		<g>
			<defs>
				<rect id="SVGID_1_" width="750" height="500"/>
			</defs>
			<clipPath id="SVGID_2_">
				<use xlink:href="#SVGID_1_"  overflow="visible"/>
			</clipPath>
			<g clip-path="url(#SVGID_2_)">
				<g>
					<g>
						<g>
							<g>
								<polygon fill="#FFA73B" points="850.306,340.603 850.306,397.904 800.714,369.26 800.714,369.234 								"/>
							</g>
							<g>
								<polygon fill="#0C2E3A" points="800.714,369.321 800.714,426.499 800.664,426.524 751.152,397.929 								"/>
								<polygon fill="#78001B" points="800.714,369.234 800.714,369.321 751.152,397.929 751.115,397.904 751.115,340.603 								
									"/>
							</g>
							<g>
								<polygon fill="#FFA73B" points="800.711,254.705 800.711,312.007 751.118,283.361 751.118,283.337 								"/>
								<polygon fill="#F5340B" points="800.711,312.007 800.711,312.05 751.181,340.64 751.118,340.603 751.118,283.361 								
									"/>
								<polygon fill="#F5340B" points="800.711,312.05 800.711,369.234 751.181,340.64 								"/>
								<polygon fill="#FF823B" points="850.26,340.627 800.711,369.234 800.711,312.05 800.748,312.031 								"/>
							</g>
						</g>
					</g>
					<g>
						<g>
							<g>
								<polygon fill="#018790" points="800.711,426.499 800.711,483.802 751.118,455.156 751.118,455.132 								"/>
								<polygon fill="#018790" points="800.711,483.802 800.711,483.845 751.181,512.434 751.118,512.397 751.118,455.156 								
									"/>
								<polygon fill="#E3651D" points="800.711,483.845 800.711,541.029 751.181,512.434 								"/>
								<polygon fill="#FFA73B" points="850.309,455.132 850.309,455.219 800.748,483.826 800.711,483.802 800.711,426.499 								
									"/>
							</g>
							<g>
								<polygon fill="#FFA73B" points="850.306,340.603 850.306,397.904 800.714,369.26 800.714,369.234 								"/>
							</g>
							<g>
								<polygon fill="#00A6A6" points="800.664,426.524 751.115,455.132 751.115,397.947 751.152,397.929 								"/>
								<polygon fill="#0C2E3A" points="800.714,369.321 800.714,426.499 800.664,426.524 751.152,397.929 								"/>
								<polygon fill="#FFA73B" points="800.714,369.234 800.714,369.321 751.152,397.929 751.115,397.904 751.115,340.603 								
									"/>
							</g>
						</g>
					</g>
					<g>
						<g>
							<g>
								<polygon fill="#78001B" points="751.115,340.603 751.115,397.904 701.523,369.26 701.523,369.234 								"/>
								<polygon fill="#78001B" points="751.115,397.904 751.115,397.947 701.585,426.536 701.523,426.499 701.523,369.26 								
									"/>
								<polygon fill="#78001B" points="800.714,369.234 800.714,369.321 751.152,397.929 751.115,397.904 751.115,340.603 								
									"/>
							</g>
							<g>
								<polygon fill="#78001B" points="701.523,369.321 701.523,426.499 701.474,426.524 651.962,397.929 								"/>
								<polygon fill="#F5340B" points="701.523,369.234 701.523,369.321 651.962,397.929 651.925,397.904 651.925,340.603 								
									"/>
							</g>
							<g>
								<polygon fill="#1DCDC3" points="701.52,254.705 701.52,312.007 651.928,283.361 651.928,283.337 								"/>
								<polygon fill="#0C2E3A" points="701.52,312.007 701.52,312.05 651.99,340.64 651.928,340.603 651.928,283.361 								"/>
								<polygon fill="#0C2E3A" points="701.52,312.05 701.52,369.234 651.99,340.64 								"/>
								<polygon fill="#018790" points="751.068,340.627 701.52,369.234 701.52,312.05 701.558,312.031 								"/>
								<polygon fill="#018790" points="751.118,283.424 751.118,340.603 751.068,340.627 701.558,312.031 								"/>
								<polygon fill="#018790" points="733.533,165.72 733.533,182.323 733.519,182.33 719.143,174.027 								"/>
								<polygon fill="#1DCDC3" points="751.118,226.01 751.118,226.097 701.558,254.705 701.52,254.68 701.52,197.378 								"/>
							</g>
						</g>
					</g>
					<g>
						<g>
							<g>
								<polygon fill="#78001B" points="701.52,426.499 701.52,483.802 651.928,455.156 651.928,455.132 								"/>
								<polygon fill="#78001B" points="701.52,483.802 701.52,483.845 651.99,512.434 651.928,512.397 651.928,455.156 								"/>
								<polygon fill="#00A6A6" points="701.52,483.845 701.52,541.029 651.99,512.434 								"/>
								<polygon fill="#00A6A6" points="751.068,512.422 701.52,541.029 701.52,483.845 701.558,483.826 								"/>
								<polygon fill="#0C2E3A" points="751.118,455.219 751.118,512.397 751.068,512.422 701.558,483.826 								"/>
								<polygon fill="#0C2E3A" points="751.118,455.132 751.118,455.219 701.558,483.826 701.52,483.802 701.52,426.499 								
									"/>
							</g>
							<g>
								<polygon fill="#F5340B" points="751.115,340.603 751.115,397.904 701.523,369.26 701.523,369.234 								"/>
								<polygon fill="#F5340B" points="751.115,397.904 751.115,397.947 701.585,426.536 701.523,426.499 701.523,369.26 								
									"/>
								<polygon fill="#00A6A6" points="751.115,397.947 751.115,455.132 701.585,426.536 								"/>
								<polygon fill="#FF823B" points="800.664,426.524 751.115,455.132 751.115,397.947 751.152,397.929 								"/>
								<polygon fill="#FFA73B" points="800.714,369.234 800.714,369.321 751.152,397.929 751.115,397.904 751.115,340.603 								
									"/>
							</g>
							<g>
								<polygon fill="#F5340B" points="701.474,426.524 651.925,455.132 651.925,397.947 651.962,397.929 								"/>
								<polygon fill="#F5340B" points="701.523,369.321 701.523,426.499 701.474,426.524 651.962,397.929 								"/>
								<polygon fill="none" points="701.523,369.234 701.523,369.321 651.962,397.929 651.925,397.904 651.925,340.603 								"/>
							</g>
						</g>
					</g>
					<g>
						<g>
							<g>
								<polygon fill="#F5340B" points="651.925,340.603 651.925,397.904 602.333,369.26 602.333,369.234 								"/>
								<polygon fill="#E3651D" points="651.925,397.904 651.925,397.947 602.395,426.536 602.333,426.499 602.333,369.26 								
									"/>
								<polygon fill="#FFA73B" points="701.523,369.234 701.523,369.321 651.962,397.929 651.925,397.904 651.925,340.603 								
									"/>
							</g>
							<g>
								<polygon fill="#FFD497" points="602.33,254.705 602.33,312.007 552.737,283.361 552.737,283.337 								"/>
								<polygon fill="#FF823B" points="651.879,340.627 602.33,369.234 602.33,312.05 602.367,312.031 								"/>
								<polygon fill="#FF823B" points="568.533,340.63 545.393,353.99 545.393,327.284 545.41,327.275 								"/>
								<polygon fill="#FFD497" points="568.116,259.122 552.31,268.249 552.31,250.006 552.321,250 								"/>
								<polygon fill="#FF823B" points="651.928,283.424 651.928,340.603 651.879,340.627 602.367,312.031 								"/>
								<polygon fill="#FFA73B" points="651.928,283.337 651.928,283.424 602.367,312.031 602.33,312.007 602.33,254.705 								
									"/>
							</g>
						</g>
					</g>
					<g>
						<g>
							<g>
								<polygon fill="#FF7C4E" points="602.33,426.499 602.33,483.802 552.737,455.156 552.737,455.132 								"/>
								<polygon fill="#F54132" points="651.879,512.422 602.33,541.029 602.33,483.845 602.367,483.826 								"/>
								<polygon fill="#F54132" points="552.737,512.422 503.188,541.029 503.188,483.845 503.226,483.826 								"/>
								<polygon fill="#F54132" points="651.928,455.219 651.928,512.397 651.879,512.422 602.367,483.826 								"/>
								<polygon fill="#F54132" points="651.928,455.132 651.928,455.219 602.367,483.826 602.33,483.802 602.33,426.499 								
									"/>
							</g>
							<g>
								<polygon fill="#FFA73B" points="651.925,340.603 651.925,397.904 602.333,369.26 602.333,369.234 								"/>
								<polygon fill="#FFA73B" points="651.925,397.904 651.925,397.947 602.395,426.536 602.333,426.499 602.333,369.26 								
									"/>
								<polygon fill="#E3651D" points="651.925,397.947 651.925,455.132 602.395,426.536 								"/>
								<polygon fill="#78001B" points="701.474,426.524 651.925,455.132 651.925,397.947 651.962,397.929 								"/>
								<polygon fill="#FFA73B" points="701.523,369.234 701.523,369.321 651.962,397.929 651.925,397.904 651.925,340.603 								
									"/>
							</g>
						</g>
					</g>
				</g>
				<g>
					<g>
						<g>
							<g>
								<polygon fill="#FFA73B" points="-148.782,84.201 -148.782,26.899 -99.19,55.544 -99.19,55.568 								"/>
							</g>
							<g>
								<polygon fill="#0C2E3A" points="-99.19,55.482 -99.19,-1.696 -99.141,-1.721 -49.629,26.874 								"/>
								<polygon fill="#78001B" points="-99.19,55.568 -99.19,55.482 -49.629,26.874 -49.592,26.899 -49.592,84.201 								"/>
							</g>
							<g>
								<polygon fill="#FFA73B" points="-99.188,170.099 -99.188,112.796 -49.595,141.441 -49.595,141.466 								"/>
								<polygon fill="#F5340B" points="-99.188,112.796 -99.188,112.753 -49.656,84.164 -49.595,84.201 -49.595,141.441 								
									"/>
								<polygon fill="#F5340B" points="-99.188,112.753 -99.188,55.568 -49.656,84.164 								"/>
								<polygon fill="#FF823B" points="-148.735,84.176 -99.188,55.568 -99.188,112.753 -99.224,112.771 								"/>
							</g>
						</g>
					</g>
					<g>
						<g>
							<g>
								<polygon fill="#018790" points="-99.188,-1.696 -99.188,-58.999 -49.595,-30.354 -49.595,-30.329 								"/>
								<polygon fill="#018790" points="-99.188,-58.999 -99.188,-59.042 -49.656,-87.631 -49.595,-87.594 -49.595,-30.354 								
									"/>
								<polygon fill="#E3651D" points="-99.188,-59.042 -99.188,-116.227 -49.656,-87.631 								"/>
								<polygon fill="#FFA73B" points="-148.785,-30.329 -148.785,-30.416 -99.224,-59.023 -99.188,-58.999 -99.188,-1.696 
																	"/>
							</g>
							<g>
								<polygon fill="#FFA73B" points="-148.782,84.201 -148.782,26.899 -99.19,55.544 -99.19,55.568 								"/>
							</g>
							<g>
								<polygon fill="#00A6A6" points="-99.141,-1.721 -49.592,-30.329 -49.592,26.855 -49.629,26.874 								"/>
								<polygon fill="#0C2E3A" points="-99.19,55.482 -99.19,-1.696 -99.141,-1.721 -49.629,26.874 								"/>
								<polygon fill="#FFA73B" points="-99.19,55.568 -99.19,55.482 -49.629,26.874 -49.592,26.899 -49.592,84.201 								"/>
							</g>
						</g>
					</g>
					<g>
						<g>
							<g>
								<polygon fill="#78001B" points="-49.592,84.201 -49.592,26.899 0,55.544 0,55.568 								"/>
								<polygon fill="#78001B" points="-49.592,26.899 -49.592,26.855 -0.062,-1.733 0,-1.696 0,55.544 								"/>
								<polygon fill="#78001B" points="-99.19,55.568 -99.19,55.482 -49.629,26.874 -49.592,26.899 -49.592,84.201 								"/>
							</g>
							<g>
								<polygon fill="#78001B" points="0,55.482 0,-1.696 0.05,-1.721 49.562,26.874 								"/>
								<polygon fill="#F5340B" points="0,55.568 0,55.482 49.562,26.874 49.599,26.899 49.599,84.201 								"/>
							</g>
							<g>
								<polygon fill="#1DCDC3" points="0.004,170.099 0.004,112.796 49.596,141.441 49.596,141.466 								"/>
								<polygon fill="#0C2E3A" points="0.004,112.796 0.004,112.753 49.534,84.164 49.596,84.201 49.596,141.441 								"/>
								<polygon fill="#0C2E3A" points="16.453,174.8 16.453,174.786 33.125,165.163 33.146,165.175 33.146,184.442 								"/>
								<polygon fill="#0C2E3A" points="0.004,112.753 0.004,55.568 49.534,84.164 								"/>
								<polygon fill="#018790" points="-49.545,84.176 0.004,55.568 0.004,112.753 -0.033,112.771 								"/>
								<polygon fill="#018790" points="-49.595,141.379 -49.595,84.201 -49.545,84.176 -0.033,112.771 								"/>
								<polygon fill="#1DCDC3" points="-49.595,198.792 -49.595,198.706 -0.033,170.099 0.004,170.123 0.004,227.425 								"/>
							</g>
						</g>
					</g>
					<g>
						<g>
							<g>
								<polygon fill="#78001B" points="0.004,-1.696 0.004,-58.999 49.596,-30.354 49.596,-30.329 								"/>
								<polygon fill="#78001B" points="0.004,-58.999 0.004,-59.042 49.534,-87.631 49.596,-87.594 49.596,-30.354 								"/>
								<polygon fill="#00A6A6" points="0.004,-59.042 0.004,-116.227 49.534,-87.631 								"/>
								<polygon fill="#00A6A6" points="-49.545,-87.619 0.004,-116.227 0.004,-59.042 -0.033,-59.023 								"/>
								<polygon fill="#0C2E3A" points="-49.595,-30.416 -49.595,-87.594 -49.545,-87.619 -0.033,-59.023 								"/>
								<polygon fill="#0C2E3A" points="-49.595,-30.329 -49.595,-30.416 -0.033,-59.023 0.004,-58.999 0.004,-1.696 								"/>
							</g>
							<g>
								<polygon fill="#F5340B" points="-49.592,84.201 -49.592,26.899 0,55.544 0,55.568 								"/>
								<polygon fill="#F5340B" points="-49.592,26.899 -49.592,26.855 -0.062,-1.733 0,-1.696 0,55.544 								"/>
								<polygon fill="#00A6A6" points="-49.592,26.855 -49.592,-30.329 -0.062,-1.733 								"/>
								<polygon fill="#FF823B" points="-99.141,-1.721 -49.592,-30.329 -49.592,26.855 -49.629,26.874 								"/>
								<polygon fill="#FFA73B" points="-99.19,55.568 -99.19,55.482 -49.629,26.874 -49.592,26.899 -49.592,84.201 								"/>
							</g>
							<g>
								<polygon fill="#F5340B" points="0.05,-1.721 49.599,-30.329 49.599,26.855 49.562,26.874 								"/>
								<polygon fill="#F5340B" points="0,55.482 0,-1.696 0.05,-1.721 49.562,26.874 								"/>
								<polygon fill="none" points="0,55.568 0,55.482 49.562,26.874 49.599,26.899 49.599,84.201 								"/>
							</g>
						</g>
					</g>
					<g>
						<g>
							<g>
								<polygon fill="#F5340B" points="49.599,84.201 49.599,26.899 99.19,55.544 99.19,55.568 								"/>
								<polygon fill="#E3651D" points="49.599,26.899 49.599,26.855 99.129,-1.733 99.19,-1.696 99.19,55.544 								"/>
								<polygon fill="#FFA73B" points="0,55.568 0,55.482 49.562,26.874 49.599,26.899 49.599,84.201 								"/>
							</g>
							<g>
								<polygon fill="#FFA73B" points="99.19,55.482 99.19,-1.696 99.24,-1.721 148.752,26.874 								"/>
							</g>
							<g>
								<polygon fill="#FFD497" points="163.41,38.494 163.41,15.277 163.43,15.267 183.533,26.878 								"/>
							</g>
							<g>
								<polygon fill="#FFD497" points="99.194,170.099 99.194,112.796 148.786,141.441 148.786,141.466 								"/>
								<polygon fill="#FF823B" points="49.646,84.176 99.194,55.568 99.194,112.753 99.157,112.771 								"/>
								<polygon fill="#FF823B" points="49.596,141.379 49.596,84.201 49.646,84.176 99.157,112.771 								"/>
								<polygon fill="#FFA73B" points="49.596,141.466 49.596,141.379 99.157,112.771 99.194,112.796 99.194,170.099 								"/>
							</g>
						</g>
					</g>
					<g>
						<g>
							<g>
								<polygon fill="#FF7C4E" points="99.194,-1.696 99.194,-58.999 148.786,-30.354 148.786,-30.329 								"/>
								<polygon fill="#F54132" points="49.646,-87.619 99.194,-116.227 99.194,-59.042 99.157,-59.023 								"/>
								<polygon fill="#F54132" points="49.596,-30.416 49.596,-87.594 49.646,-87.619 99.157,-59.023 								"/>
								<polygon fill="#F54132" points="49.596,-30.329 49.596,-30.416 99.157,-59.023 99.194,-58.999 99.194,-1.696 								"/>
							</g>
							<g>
								<polygon fill="#FFA73B" points="49.599,84.201 49.599,26.899 99.19,55.544 99.19,55.568 								"/>
								<polygon fill="#FFA73B" points="49.599,26.899 49.599,26.855 99.129,-1.733 99.19,-1.696 99.19,55.544 								"/>
								<polygon fill="#E3651D" points="49.599,26.855 49.599,-30.329 99.129,-1.733 								"/>
								<polygon fill="#78001B" points="0.05,-1.721 49.599,-30.329 49.599,26.855 49.562,26.874 								"/>
								<polygon fill="#FFA73B" points="0,55.568 0,55.482 49.562,26.874 49.599,26.899 49.599,84.201 								"/>
							</g>
						</g>
					</g>
				</g>
			</g>
		</g>
	</g>
</g>
<g id="BACKGROUND_1">
	<g>
		<rect x="-530.467" fill="#E9E6E1" width="500" height="500"/>
		<g>
			<defs>
				<rect id="SVGID_3_" x="-530.467" width="500" height="500"/>
			</defs>
			<clipPath id="SVGID_4_">
				<use xlink:href="#SVGID_3_"  overflow="visible"/>
			</clipPath>
			<g clip-path="url(#SVGID_4_)">
				<g>
					<g>
						<g>
							<g>
								<polygon fill="#FFA73B" points="47.498,416.077 47.498,460.987 8.631,438.537 8.631,438.518 								"/>
							</g>
							<g>
								<polygon fill="#0C2E3A" points="8.631,438.585 8.631,483.398 8.592,483.418 -30.212,461.006 								"/>
								<polygon fill="#78001B" points="8.631,438.518 8.631,438.585 -30.212,461.006 -30.241,460.987 -30.241,416.077 								"/>
							</g>
							<g>
								<polygon fill="#FFA73B" points="8.629,348.756 8.629,393.666 -30.238,371.216 -30.238,371.196 								"/>
								<polygon fill="#F5340B" points="8.629,393.666 8.629,393.7 -30.19,416.106 -30.238,416.077 -30.238,371.216 								"/>
								<polygon fill="#F5340B" points="8.629,393.7 8.629,438.518 -30.19,416.106 								"/>
								<polygon fill="#FF823B" points="47.462,416.097 8.629,438.518 8.629,393.7 8.657,393.686 								"/>
							</g>
						</g>
					</g>
					<g>
						<g>
							<g>
								<polygon fill="#018790" points="8.629,483.398 8.629,528.308 -30.238,505.857 -30.238,505.839 								"/>
								<polygon fill="#018790" points="8.629,528.308 8.629,528.342 -30.19,550.748 -30.238,550.719 -30.238,505.857 								"/>
								<polygon fill="#E3651D" points="8.629,528.342 8.629,573.159 -30.19,550.748 								"/>
								<polygon fill="#FFA73B" points="47.5,505.839 47.5,505.906 8.657,528.327 8.629,528.308 8.629,483.398 								"/>
							</g>
							<g>
								<polygon fill="#FFA73B" points="47.498,416.077 47.498,460.987 8.631,438.537 8.631,438.518 								"/>
							</g>
							<g>
								<polygon fill="#00A6A6" points="8.592,483.418 -30.241,505.839 -30.241,461.021 -30.212,461.006 								"/>
								<polygon fill="#0C2E3A" points="8.631,438.585 8.631,483.398 8.592,483.418 -30.212,461.006 								"/>
								<polygon fill="#FFA73B" points="8.631,438.518 8.631,438.585 -30.212,461.006 -30.241,460.987 -30.241,416.077 								"/>
							</g>
						</g>
					</g>
					<g>
						<g>
							<g>
								<polygon fill="#78001B" points="-30.241,416.077 -30.241,460.987 -69.108,438.537 -69.108,438.518 								"/>
								<polygon fill="#78001B" points="-30.241,460.987 -30.241,461.021 -69.06,483.428 -69.108,483.398 -69.108,438.537 								
									"/>
								<polygon fill="#78001B" points="8.631,438.518 8.631,438.585 -30.212,461.006 -30.241,460.987 -30.241,416.077 								"/>
							</g>
							<g>
								<polygon fill="#78001B" points="-69.108,438.585 -69.108,483.398 -69.147,483.418 -107.951,461.006 								"/>
								<polygon fill="#F5340B" points="-69.108,438.518 -69.108,438.585 -107.951,461.006 -107.98,460.987 -107.98,416.077 
																	"/>
							</g>
							<g>
								<polygon fill="#1DCDC3" points="-69.11,348.756 -69.11,393.666 -107.978,371.216 -107.978,371.196 								"/>
								<polygon fill="#0C2E3A" points="-69.11,393.666 -69.11,393.7 -107.93,416.106 -107.978,416.077 -107.978,371.216 								
									"/>
								<polygon fill="#0C2E3A" points="-69.11,393.7 -69.11,438.518 -107.93,416.106 								"/>
								<polygon fill="#018790" points="-30.277,416.097 -69.11,438.518 -69.11,393.7 -69.082,393.686 								"/>
								<polygon fill="#018790" points="-30.238,371.265 -30.238,416.077 -30.277,416.097 -69.082,393.686 								"/>
								<polygon fill="#018790" points="-44.021,279.016 -44.021,292.028 -44.032,292.033 -55.3,285.526 								"/>
								<polygon fill="#1DCDC3" points="-30.238,326.268 -30.238,326.335 -69.082,348.756 -69.11,348.736 -69.11,303.827 								
									"/>
							</g>
						</g>
					</g>
					<g>
						<g>
							<g>
								<polygon fill="#78001B" points="-69.11,483.398 -69.11,528.308 -107.978,505.857 -107.978,505.839 								"/>
								<polygon fill="#78001B" points="-69.11,528.308 -69.11,528.342 -107.93,550.748 -107.978,550.719 -107.978,505.857 								
									"/>
								<polygon fill="#00A6A6" points="-69.11,528.342 -69.11,573.159 -107.93,550.748 								"/>
								<polygon fill="#00A6A6" points="-30.277,550.738 -69.11,573.159 -69.11,528.342 -69.082,528.327 								"/>
								<polygon fill="#0C2E3A" points="-30.238,505.906 -30.238,550.719 -30.277,550.738 -69.082,528.327 								"/>
								<polygon fill="#0C2E3A" points="-30.238,505.839 -30.238,505.906 -69.082,528.327 -69.11,528.308 -69.11,483.398 								
									"/>
							</g>
							<g>
								<polygon fill="#F5340B" points="-30.241,416.077 -30.241,460.987 -69.108,438.537 -69.108,438.518 								"/>
								<polygon fill="#F5340B" points="-30.241,460.987 -30.241,461.021 -69.06,483.428 -69.108,483.398 -69.108,438.537 								
									"/>
								<polygon fill="#00A6A6" points="-30.241,461.021 -30.241,505.839 -69.06,483.428 								"/>
								<polygon fill="#FF823B" points="8.592,483.418 -30.241,505.839 -30.241,461.021 -30.212,461.006 								"/>
								<polygon fill="#FFA73B" points="8.631,438.518 8.631,438.585 -30.212,461.006 -30.241,460.987 -30.241,416.077 								"/>
							</g>
							<g>
								<polygon fill="#F5340B" points="-69.147,483.418 -107.98,505.839 -107.98,461.021 -107.951,461.006 								"/>
								<polygon fill="#F5340B" points="-69.108,438.585 -69.108,483.398 -69.147,483.418 -107.951,461.006 								"/>
								<polygon fill="none" points="-69.108,438.518 -69.108,438.585 -107.951,461.006 -107.98,460.987 -107.98,416.077 								
									"/>
							</g>
						</g>
					</g>
					<g>
						<g>
							<g>
								<polygon fill="#F5340B" points="-107.98,416.077 -107.98,460.987 -146.848,438.537 -146.848,438.518 								"/>
								<polygon fill="#E3651D" points="-107.98,460.987 -107.98,461.021 -146.799,483.428 -146.848,483.398 -146.848,438.537 
																	"/>
								<polygon fill="#FFA73B" points="-69.108,438.518 -69.108,438.585 -107.951,461.006 -107.98,460.987 -107.98,416.077 
																	"/>
							</g>
							<g>
								<polygon fill="#FFD497" points="-146.85,348.756 -146.85,393.666 -185.717,371.216 -185.717,371.196 								"/>
								<polygon fill="#FF823B" points="-108.017,416.097 -146.85,438.518 -146.85,393.7 -146.821,393.686 								"/>
								<polygon fill="#FF823B" points="-173.338,416.1 -191.474,426.57 -191.474,405.64 -191.46,405.633 								"/>
								<polygon fill="#FFD497" points="-173.664,352.219 -186.053,359.371 -186.053,345.073 -186.043,345.069 								"/>
								<polygon fill="#FF823B" points="-107.978,371.265 -107.978,416.077 -108.017,416.097 -146.821,393.686 								"/>
								<polygon fill="#FFA73B" points="-107.978,371.196 -107.978,371.265 -146.821,393.686 -146.85,393.666 -146.85,348.756 
																	"/>
							</g>
						</g>
					</g>
					<g>
						<g>
							<g>
								<polygon fill="#FF7C4E" points="-146.85,483.398 -146.85,528.308 -185.717,505.857 -185.717,505.839 								"/>
								<polygon fill="#F54132" points="-108.017,550.738 -146.85,573.159 -146.85,528.342 -146.821,528.327 								"/>
								<polygon fill="#F54132" points="-185.717,550.738 -224.551,573.159 -224.551,528.342 -224.521,528.327 								"/>
								<polygon fill="#F54132" points="-107.978,505.906 -107.978,550.719 -108.017,550.738 -146.821,528.327 								"/>
								<polygon fill="#F54132" points="-107.978,505.839 -107.978,505.906 -146.821,528.327 -146.85,528.308 -146.85,483.398 
																	"/>
							</g>
							<g>
								<polygon fill="#FFA73B" points="-107.98,416.077 -107.98,460.987 -146.848,438.537 -146.848,438.518 								"/>
								<polygon fill="#FFA73B" points="-107.98,460.987 -107.98,461.021 -146.799,483.428 -146.848,483.398 -146.848,438.537 
																	"/>
								<polygon fill="#E3651D" points="-107.98,461.021 -107.98,505.839 -146.799,483.428 								"/>
								<polygon fill="#78001B" points="-69.147,483.418 -107.98,505.839 -107.98,461.021 -107.951,461.006 								"/>
								<polygon fill="#FFA73B" points="-69.108,438.518 -69.108,438.585 -107.951,461.006 -107.98,460.987 -107.98,416.077 
																	"/>
							</g>
						</g>
					</g>
				</g>
				<g>
					<g>
						<g>
							<g>
								<polygon fill="#FFA73B" points="-647.859,118.707 -647.859,73.797 -608.992,96.247 -608.992,96.266 								"/>
							</g>
							<g>
								<polygon fill="#0C2E3A" points="-608.992,96.198 -608.992,51.385 -608.953,51.366 -570.149,73.777 								"/>
								<polygon fill="#78001B" points="-608.992,96.266 -608.992,96.198 -570.149,73.777 -570.12,73.797 -570.12,118.707 								
									"/>
							</g>
							<g>
								<polygon fill="#FFA73B" points="-608.989,186.027 -608.989,141.118 -570.122,163.568 -570.122,163.587 								"/>
								<polygon fill="#F5340B" points="-608.989,141.118 -608.989,141.083 -570.171,118.677 -570.122,118.707 -570.122,163.568 
																	"/>
								<polygon fill="#F5340B" points="-608.989,141.083 -608.989,96.266 -570.171,118.677 								"/>
								<polygon fill="#FF823B" points="-647.823,118.687 -608.989,96.266 -608.989,141.083 -609.019,141.098 								"/>
							</g>
						</g>
					</g>
					<g>
						<g>
							<g>
								<polygon fill="#018790" points="-608.989,51.385 -608.989,6.476 -570.122,28.926 -570.122,28.945 								"/>
								<polygon fill="#018790" points="-608.989,6.476 -608.989,6.442 -570.171,-15.965 -570.122,-15.936 -570.122,28.926 								
									"/>
								<polygon fill="#E3651D" points="-608.989,6.442 -608.989,-38.376 -570.171,-15.965 								"/>
								<polygon fill="#FFA73B" points="-647.861,28.945 -647.861,28.877 -609.019,6.456 -608.989,6.476 -608.989,51.385 								
									"/>
							</g>
							<g>
								<polygon fill="#FFA73B" points="-647.859,118.707 -647.859,73.797 -608.992,96.247 -608.992,96.266 								"/>
							</g>
							<g>
								<polygon fill="#00A6A6" points="-608.953,51.366 -570.12,28.945 -570.12,73.763 -570.149,73.777 								"/>
								<polygon fill="#0C2E3A" points="-608.992,96.198 -608.992,51.385 -608.953,51.366 -570.149,73.777 								"/>
								<polygon fill="#FFA73B" points="-608.992,96.266 -608.992,96.198 -570.149,73.777 -570.12,73.797 -570.12,118.707 								
									"/>
							</g>
						</g>
					</g>
					<g>
						<g>
							<g>
								<polygon fill="#78001B" points="-570.12,118.707 -570.12,73.797 -531.252,96.247 -531.252,96.266 								"/>
								<polygon fill="#78001B" points="-570.12,73.797 -570.12,73.763 -531.301,51.356 -531.252,51.385 -531.252,96.247 								
									"/>
								<polygon fill="#78001B" points="-608.992,96.266 -608.992,96.198 -570.149,73.777 -570.12,73.797 -570.12,118.707 								
									"/>
							</g>
							<g>
								<polygon fill="#78001B" points="-531.252,96.198 -531.252,51.385 -531.214,51.366 -492.41,73.777 								"/>
								<polygon fill="#F5340B" points="-531.252,96.266 -531.252,96.198 -492.41,73.777 -492.38,73.797 -492.38,118.707 								
									"/>
							</g>
							<g>
								<polygon fill="#1DCDC3" points="-531.25,186.027 -531.25,141.118 -492.383,163.568 -492.383,163.587 								"/>
								<polygon fill="#0C2E3A" points="-531.25,141.118 -531.25,141.083 -492.432,118.677 -492.383,118.707 -492.383,163.568 
																	"/>
								<polygon fill="#0C2E3A" points="-518.358,189.712 -518.358,189.701 -505.292,182.159 -505.275,182.169 -505.275,197.269 
																	"/>
								<polygon fill="#0C2E3A" points="-531.25,141.083 -531.25,96.266 -492.432,118.677 								"/>
								<polygon fill="#018790" points="-570.083,118.687 -531.25,96.266 -531.25,141.083 -531.279,141.098 								"/>
								<polygon fill="#018790" points="-570.122,163.519 -570.122,118.707 -570.083,118.687 -531.279,141.098 								"/>
								<polygon fill="#1DCDC3" points="-570.122,208.516 -570.122,208.448 -531.279,186.027 -531.25,186.047 -531.25,230.957 
																	"/>
							</g>
						</g>
					</g>
					<g>
						<g>
							<g>
								<polygon fill="#78001B" points="-531.25,51.385 -531.25,6.476 -492.383,28.926 -492.383,28.945 								"/>
								<polygon fill="#78001B" points="-531.25,6.476 -531.25,6.442 -492.432,-15.965 -492.383,-15.936 -492.383,28.926 								
									"/>
								<polygon fill="#00A6A6" points="-531.25,6.442 -531.25,-38.376 -492.432,-15.965 								"/>
								<polygon fill="#00A6A6" points="-570.083,-15.955 -531.25,-38.376 -531.25,6.442 -531.279,6.456 								"/>
								<polygon fill="#0C2E3A" points="-570.122,28.877 -570.122,-15.936 -570.083,-15.955 -531.279,6.456 								"/>
								<polygon fill="#0C2E3A" points="-570.122,28.945 -570.122,28.877 -531.279,6.456 -531.25,6.476 -531.25,51.385 								"/>
							</g>
							<g>
								<polygon fill="#F5340B" points="-570.12,118.707 -570.12,73.797 -531.252,96.247 -531.252,96.266 								"/>
								<polygon fill="#F5340B" points="-570.12,73.797 -570.12,73.763 -531.301,51.356 -531.252,51.385 -531.252,96.247 								
									"/>
								<polygon fill="#00A6A6" points="-570.12,73.763 -570.12,28.945 -531.301,51.356 								"/>
								<polygon fill="#FF823B" points="-608.953,51.366 -570.12,28.945 -570.12,73.763 -570.149,73.777 								"/>
								<polygon fill="#FFA73B" points="-608.992,96.266 -608.992,96.198 -570.149,73.777 -570.12,73.797 -570.12,118.707 								
									"/>
							</g>
							<g>
								<polygon fill="#F5340B" points="-531.214,51.366 -492.38,28.945 -492.38,73.763 -492.41,73.777 								"/>
								<polygon fill="#F5340B" points="-531.252,96.198 -531.252,51.385 -531.214,51.366 -492.41,73.777 								"/>
								<polygon fill="none" points="-531.252,96.266 -531.252,96.198 -492.41,73.777 -492.38,73.797 -492.38,118.707 								"/>
							</g>
						</g>
					</g>
					<g>
						<g>
							<g>
								<polygon fill="#F5340B" points="-492.38,118.707 -492.38,73.797 -453.513,96.247 -453.513,96.266 								"/>
								<polygon fill="#E3651D" points="-492.38,73.797 -492.38,73.763 -453.562,51.356 -453.513,51.385 -453.513,96.247 								
									"/>
								<polygon fill="#FFA73B" points="-531.252,96.266 -531.252,96.198 -492.41,73.777 -492.38,73.797 -492.38,118.707 								
									"/>
							</g>
							<g>
								<polygon fill="#FFA73B" points="-453.513,96.198 -453.513,51.385 -453.475,51.366 -414.67,73.777 								"/>
							</g>
							<g>
								<polygon fill="#FFD497" points="-403.183,82.884 -403.183,64.688 -403.167,64.68 -387.411,73.78 								"/>
							</g>
							<g>
								<polygon fill="#FFD497" points="-453.511,186.027 -453.511,141.118 -414.644,163.568 -414.644,163.587 								"/>
								<polygon fill="#FF823B" points="-492.344,118.687 -453.511,96.266 -453.511,141.083 -453.54,141.098 								"/>
								<polygon fill="#FF823B" points="-492.383,163.519 -492.383,118.707 -492.344,118.687 -453.54,141.098 								"/>
								<polygon fill="#FFA73B" points="-492.383,163.587 -492.383,163.519 -453.54,141.098 -453.511,141.118 -453.511,186.027 
																	"/>
							</g>
						</g>
					</g>
					<g>
						<g>
							<g>
								<polygon fill="#FF7C4E" points="-453.511,51.385 -453.511,6.476 -414.644,28.926 -414.644,28.945 								"/>
								<polygon fill="#F54132" points="-492.344,-15.955 -453.511,-38.376 -453.511,6.442 -453.54,6.456 								"/>
								<polygon fill="#F54132" points="-492.383,28.877 -492.383,-15.936 -492.344,-15.955 -453.54,6.456 								"/>
								<polygon fill="#F54132" points="-492.383,28.945 -492.383,28.877 -453.54,6.456 -453.511,6.476 -453.511,51.385 								"/>
							</g>
							<g>
								<polygon fill="#FFA73B" points="-492.38,118.707 -492.38,73.797 -453.513,96.247 -453.513,96.266 								"/>
								<polygon fill="#FFA73B" points="-492.38,73.797 -492.38,73.763 -453.562,51.356 -453.513,51.385 -453.513,96.247 								
									"/>
								<polygon fill="#E3651D" points="-492.38,73.763 -492.38,28.945 -453.562,51.356 								"/>
								<polygon fill="#78001B" points="-531.214,51.366 -492.38,28.945 -492.38,73.763 -492.41,73.777 								"/>
								<polygon fill="#FFA73B" points="-531.252,96.266 -531.252,96.198 -492.41,73.777 -492.38,73.797 -492.38,118.707 								
									"/>
							</g>
						</g>
					</g>
				</g>
			</g>
		</g>
	</g>
</g>
</svg>
