<?xml version="1.0" encoding="utf-8"?>
<!-- Generator: Adobe Illustrator 16.0.3, SVG Export Plug-In . SVG Version: 6.00 Build 0)  -->
<!DOCTYPE svg PUBLIC "-//W3C//DTD SVG 1.1//EN" "http://www.w3.org/Graphics/SVG/1.1/DTD/svg11.dtd">
<svg version="1.1" xmlns="http://www.w3.org/2000/svg" xmlns:xlink="http://www.w3.org/1999/xlink" x="0px" y="0px"
	 width="184.923px" height="330.064px" viewBox="0 0 184.923 330.064" enable-background="new 0 0 184.923 330.064"
	 xml:space="preserve">
<g id="BACKGROUND_2">
	<g>
		<g>
			<path fill="#FFF8B5" d="M209.207,427.651c-12.43,0.099-25.942,108.738,0.863,108.525
				C236.875,535.963,221.639,427.553,209.207,427.651z"/>
			<g>
				<g>
					<path fill="#DEBA2B" d="M209.917,536.174c5.438-0.043,9.491-2.928,12.418-7.71l-7.566-0.125
						C213.646,533.218,212.066,536.157,209.917,536.174z"/>
					<path fill="#E9C32D" d="M204.882,528.175l-7.888-0.131c3.032,5.111,7.251,8.175,12.923,8.13
						C207.732,536.191,206.086,533.183,204.882,528.175z"/>
					<g>
						<path fill="#DEBA2B" d="M217.753,446.642c1.695,0.028,2.913-1.647,2.349-3.246c-0.266-0.75-0.534-1.48-0.806-2.189
							c-0.354-0.922-1.243-1.524-2.231-1.541l-1.314-0.021c-1.509-0.025-2.675,1.302-2.454,2.794c0.1,0.672,0.197,1.362,0.294,2.069
							c0.164,1.191,1.176,2.085,2.377,2.104L217.753,446.642z"/>
						<path fill="#DEBA2B" d="M223.701,497.901l-1.795-0.027c-2.667-0.042-4.87,2.113-4.908,4.781
							c-0.009,0.604-0.019,1.205-0.031,1.802c-0.055,2.675,2.076,4.895,4.753,4.938l1.714,0.028
							c2.589,0.043,4.729-1.961,4.909-4.544c0.043-0.612,0.08-1.229,0.113-1.849C228.6,500.279,226.457,497.945,223.701,497.901z"/>
						<path fill="#DEBA2B" d="M219.201,463.981l1.344,0.022c2.563,0.042,4.476-2.322,3.932-4.827
							c-0.1-0.461-0.202-0.918-0.305-1.373c-0.404-1.784-1.973-3.06-3.802-3.09l-1.156-0.019c-2.357-0.039-4.222,1.976-4.01,4.324
							c0.041,0.444,0.08,0.891,0.119,1.34C215.499,462.381,217.174,463.947,219.201,463.981z"/>
						<path fill="#DEBA2B" d="M221.1,474.559c-2.572-0.043-4.647,2.09-4.529,4.658c0.03,0.67,0.06,1.338,0.087,2.007
							c0.098,2.357,2.024,4.227,4.383,4.266l2.26,0.038c2.669,0.044,4.781-2.251,4.523-4.907c-0.065-0.67-0.134-1.339-0.206-2.007
							c-0.244-2.253-2.105-3.981-4.369-4.02L221.1,474.559z"/>
						<path fill="#DEBA2B" d="M214.769,528.339l7.566,0.125c1.457-2.382,2.632-5.237,3.555-8.455l-9.792-0.162
							C215.758,523.076,215.319,525.941,214.769,528.339z"/>
					</g>
					<g>
						<path fill="#DEBA2B" d="M219.305,454.696c2.094,0.035,3.65-1.952,3.09-3.969c-0.169-0.606-0.341-1.205-0.514-1.795
							c-0.39-1.328-1.589-2.249-2.971-2.272l-1.436-0.023c-1.904-0.031-3.394,1.617-3.176,3.508
							c0.064,0.566,0.129,1.139,0.193,1.718c0.173,1.574,1.49,2.779,3.072,2.806L219.305,454.696z"/>
						<path fill="#DEBA2B" d="M220.459,474.548l1.45,0.023c2.76,0.046,4.918-2.403,4.487-5.131c-0.09-0.564-0.181-1.126-0.274-1.687
							c-0.355-2.125-2.178-3.694-4.333-3.729l-1.292-0.021c-2.611-0.044-4.701,2.15-4.523,4.758
							c0.037,0.538,0.072,1.078,0.107,1.621C216.23,472.697,218.14,474.509,220.459,474.548z"/>
						<path fill="#DEBA2B" d="M221.858,485.503c-2.742-0.046-4.969,2.2-4.911,4.941c0.018,0.892,0.032,1.778,0.046,2.661
							c0.036,2.615,2.142,4.725,4.756,4.766l1.916,0.029c2.758,0.044,4.983-2.173,4.918-4.931c-0.021-0.927-0.053-1.859-0.091-2.795
							c-0.107-2.561-2.196-4.599-4.76-4.641L221.858,485.503z"/>
						<path fill="#DEBA2B" d="M222.371,509.406l-0.878-0.015c-2.573-0.043-4.742,1.939-4.905,4.507
							c-0.019,0.295-0.037,0.587-0.058,0.877c-0.188,2.763,1.974,5.111,4.742,5.157l0.76,0.013c2.325,0.038,4.345-1.58,4.822-3.855
							c0.06-0.288,0.118-0.578,0.176-0.87C227.612,512.246,225.4,509.457,222.371,509.406z"/>
					</g>
					<path fill="#E9C32D" d="M203.439,519.637l-9.992-0.166c0.93,3.25,2.104,6.141,3.547,8.573l7.888,0.131
						C204.301,525.758,203.822,522.878,203.439,519.637z"/>
					<g>
						<path fill="#E9C32D" d="M202.712,439.427l-1.221-0.02c-1.025-0.018-1.963,0.603-2.32,1.563
							c-0.26,0.701-0.515,1.423-0.767,2.165c-0.531,1.563,0.626,3.195,2.275,3.223l1.686,0.027c1.247,0.021,2.312-0.905,2.463-2.143
							c0.086-0.704,0.174-1.391,0.263-2.06C205.283,440.734,204.173,439.451,202.712,439.427z"/>
						<path fill="#E9C32D" d="M199.558,454.369l-1.075-0.018c-1.896-0.032-3.548,1.279-3.943,3.132
							c-0.102,0.471-0.199,0.944-0.296,1.42c-0.495,2.418,1.352,4.687,3.819,4.728l1.264,0.021c2.103,0.035,3.865-1.584,4.016-3.682
							c0.032-0.448,0.065-0.895,0.099-1.338C203.611,456.356,201.839,454.407,199.558,454.369z"/>
						<path fill="#E9C32D" d="M195.565,485.066l2.22,0.037c2.442,0.041,4.467-1.891,4.533-4.334
							c0.018-0.668,0.037-1.336,0.058-2.003c0.078-2.485-1.898-4.551-4.384-4.592l-2.1-0.035c-2.34-0.038-4.3,1.738-4.524,4.066
							c-0.063,0.667-0.125,1.333-0.182,2.001C190.967,482.79,192.974,485.023,195.565,485.066z"/>
						<path fill="#E9C32D" d="M197.531,497.493l-1.824-0.028c-2.89-0.046-5.083,2.281-4.903,5.166
							c0.04,0.646,0.085,1.29,0.136,1.927c0.195,2.466,2.265,4.365,4.737,4.406l1.754,0.028c2.773,0.047,5.006-2.239,4.911-5.011
							c-0.02-0.589-0.039-1.181-0.055-1.778C202.214,499.614,200.121,497.534,197.531,497.493z"/>
					</g>
					<g>
						<path fill="#E9C32D" d="M201.132,446.365l-1.342-0.021c-1.435-0.024-2.699,0.922-3.086,2.305
							c-0.164,0.584-0.326,1.178-0.486,1.779c-0.521,1.968,0.96,3.901,2.996,3.936l1.646,0.027c1.642,0.027,3.028-1.219,3.183-2.853
							c0.054-0.579,0.11-1.15,0.167-1.713C204.393,447.99,202.976,446.396,201.132,446.365z"/>
						<path fill="#E9C32D" d="M196.819,474.155l1.386,0.023c2.403,0.04,4.41-1.835,4.529-4.234c0.027-0.541,0.056-1.079,0.084-1.617
							c0.135-2.523-1.854-4.648-4.381-4.69l-1.226-0.021c-2.229-0.036-4.147,1.575-4.488,3.778
							c-0.087,0.557-0.171,1.117-0.252,1.678C192.085,471.725,194.138,474.111,196.819,474.155z"/>
						<path fill="#E9C32D" d="M197.247,497.488c2.703,0.043,4.91-2.135,4.909-4.838c-0.001-0.892,0.003-1.787,0.008-2.685
							c0.016-2.633-2.12-4.825-4.751-4.868l-1.861-0.031c-2.645-0.044-4.842,2.047-4.921,4.689
							c-0.028,0.943-0.049,1.883-0.061,2.818c-0.033,2.661,2.105,4.843,4.769,4.884L197.247,497.488z"/>
						<path fill="#E9C32D" d="M198.118,509.004l-0.975-0.016c-3.101-0.052-5.43,2.786-4.818,5.826
							c0.06,0.293,0.12,0.585,0.182,0.874c0.476,2.21,2.397,3.807,4.658,3.844l0.854,0.015c2.858,0.047,5.129-2.374,4.896-5.225
							c-0.021-0.275-0.043-0.555-0.064-0.833C202.661,510.994,200.619,509.046,198.118,509.004z"/>
					</g>
					<path fill="#FFDD39" d="M214.769,528.339l-9.887-0.164c1.204,5.008,2.851,8.017,5.035,7.999
						C212.066,536.157,213.646,533.218,214.769,528.339z"/>
					<g>
						<path fill="#FFDD39" d="M207.504,446.472l3.281,0.054c1.626,0.027,2.894-1.413,2.665-3.022
							c-0.083-0.579-0.165-1.146-0.25-1.699c-0.193-1.279-1.279-2.224-2.573-2.245l-2.817-0.047
							c-1.341-0.022-2.487,0.954-2.667,2.283c-0.074,0.552-0.148,1.116-0.222,1.692C204.725,445.049,205.93,446.445,207.504,446.472
							z"/>
						<path fill="#FFDD39" d="M204.882,528.175l9.887,0.164c0.551-2.397,0.989-5.263,1.329-8.492l-12.658-0.21
							C203.823,522.878,204.301,525.758,204.882,528.175z"/>
						<path fill="#FFDD39" d="M206.791,463.775l4.938,0.082c2.086,0.034,3.747-1.748,3.565-3.826
							c-0.067-0.766-0.137-1.524-0.206-2.275c-0.168-1.786-1.651-3.156-3.446-3.187l-4.566-0.075
							c-1.86-0.031-3.423,1.386-3.567,3.239c-0.058,0.749-0.114,1.505-0.169,2.269C203.194,462.016,204.772,463.742,206.791,463.775
							z"/>
						<path fill="#FFDD39" d="M206.153,485.242l6.529,0.108c2.255,0.037,4.069-1.833,3.978-4.087
							c-0.044-1.036-0.09-2.071-0.141-3.105c-0.1-2.066-1.775-3.705-3.845-3.74l-6.3-0.104c-2.143-0.035-3.908,1.657-3.978,3.799
							c-0.033,1.033-0.064,2.067-0.092,3.103C202.249,483.395,203.975,485.206,206.153,485.242z"/>
						<path fill="#FFDD39" d="M213.154,497.737l-6.906-0.108c-2.228-0.034-4.034,1.8-3.978,4.027c0.035,1.258,0.074,2.5,0.122,3.723
							c0.082,2.079,1.77,3.726,3.85,3.76l6.724,0.111c2.15,0.036,3.929-1.664,3.979-3.815c0.03-1.224,0.051-2.468,0.064-3.729
							C217.034,499.549,215.312,497.771,213.154,497.737z"/>
					</g>
					<g>
						<path fill="#FFDD39" d="M207.035,454.493l4.33,0.071c1.819,0.03,3.256-1.55,3.053-3.359c-0.075-0.681-0.152-1.35-0.23-2.01
							c-0.179-1.504-1.438-2.637-2.951-2.662l-3.905-0.064c-1.569-0.026-2.896,1.146-3.056,2.705
							c-0.067,0.658-0.135,1.326-0.198,2.004C203.908,452.933,205.272,454.464,207.035,454.493z"/>
						<path fill="#FFDD39" d="M212.776,509.247l-5.968-0.099c-2.295-0.038-4.142,1.901-3.97,4.189
							c0.073,0.962,0.152,1.904,0.236,2.823c0.184,1.984,1.842,3.5,3.832,3.533l5.554,0.092c2.062,0.034,3.808-1.531,3.967-3.588
							c0.071-0.917,0.135-1.855,0.192-2.813C216.754,511.166,214.998,509.284,212.776,509.247z"/>
						<path fill="#FFDD39" d="M206.566,474.317l5.533,0.092c2.29,0.038,4.12-1.895,3.972-4.179c-0.06-0.912-0.121-1.818-0.185-2.718
							c-0.145-2.03-1.807-3.616-3.841-3.65l-5.208-0.086c-2.107-0.035-3.857,1.604-3.974,3.707c-0.05,0.899-0.098,1.804-0.143,2.714
							C202.612,472.41,204.351,474.28,206.566,474.317z"/>
						<path fill="#FFDD39" d="M206.013,497.626l7.012,0.109c2.206,0.034,4.004-1.758,3.977-3.963
							c-0.019-1.517-0.046-3.047-0.082-4.585c-0.05-2.104-1.747-3.796-3.85-3.83l-6.92-0.115c-2.176-0.036-3.962,1.713-3.979,3.89
							c-0.012,1.539-0.017,3.07-0.013,4.589C202.165,495.856,203.877,497.592,206.013,497.626z"/>
					</g>
				</g>
			</g>
		</g>
		<path fill="#308037" d="M215.318,537.249l-6.678-5.055l-6.842,4.831l0.423,10.562c0,0,1.399,1.761,1.696,3.845
			c0.252,1.771,1.691,3.152,3.46,3.422c0.301,0.046,0.599,0.075,0.886,0.08c0.02,0,0.04,0.001,0.061,0
			c1.921,0.01,3.603-1.438,3.925-3.331c0.356-2.087,1.829-3.818,1.829-3.818L215.318,537.249z"/>
		<g>
			<path fill="#609E3E" d="M214.078,547.784c0,0-7.086-4.617-6.876-17.284c0.21-12.668,13.584-58.508,44.728-45.869
				c-14.269,3.758-20.441,6.694-20.782,27.227S229.014,540.862,214.078,547.784z"/>
			<path fill="#72AA43" d="M202.222,547.587c0,0,8.308-4.361,8.518-17.028c0.211-12.668-11.636-58.926-43.182-47.328
				c14.137,4.229,20.209,7.37,19.868,27.902C187.085,531.664,191.233,541.493,202.222,547.587z"/>
		</g>
	</g>
	<g>
		<rect x="-0.004" fill="none" stroke="#E9E6E1" stroke-miterlimit="10" width="750" height="500"/>
		<rect x="-0.004" fill="none" width="750" height="500"/>
		<g>
			<defs>
				<rect id="SVGID_1_" x="-0.004" width="750" height="500"/>
			</defs>
			<clipPath id="SVGID_2_">
				<use xlink:href="#SVGID_1_"  overflow="visible"/>
			</clipPath>
			<g clip-path="url(#SVGID_2_)">
				<g>
					<g>
						<g>
							<g>
								<polygon fill="#FFA73B" points="850.302,340.603 850.302,397.904 800.71,369.26 800.71,369.234 								"/>
							</g>
							<g>
								<polygon fill="#0C2E3A" points="800.71,369.321 800.71,426.499 800.66,426.524 751.148,397.929 								"/>
								<polygon fill="#78001B" points="800.71,369.234 800.71,369.321 751.148,397.929 751.111,397.904 751.111,340.603 								
									"/>
							</g>
							<g>
								<polygon fill="#FFA73B" points="800.707,254.705 800.707,312.007 751.114,283.361 751.114,283.337 								"/>
								<polygon fill="#F5340B" points="800.707,312.007 800.707,312.05 751.177,340.64 751.114,340.603 751.114,283.361 								
									"/>
								<polygon fill="#F5340B" points="800.707,312.05 800.707,369.234 751.177,340.64 								"/>
								<polygon fill="#FF823B" points="850.256,340.627 800.707,369.234 800.707,312.05 800.744,312.031 								"/>
							</g>
						</g>
					</g>
					<g>
						<g>
							<g>
								<polygon fill="#018790" points="800.707,426.499 800.707,483.802 751.114,455.156 751.114,455.132 								"/>
								<polygon fill="#018790" points="800.707,483.802 800.707,483.845 751.177,512.434 751.114,512.397 751.114,455.156 								
									"/>
								<polygon fill="#E3651D" points="800.707,483.845 800.707,541.029 751.177,512.434 								"/>
								<polygon fill="#FFA73B" points="850.305,455.132 850.305,455.219 800.744,483.826 800.707,483.802 800.707,426.499 								
									"/>
							</g>
							<g>
								<polygon fill="#FFA73B" points="850.302,340.603 850.302,397.904 800.71,369.26 800.71,369.234 								"/>
							</g>
							<g>
								<polygon fill="#00A6A6" points="800.66,426.524 751.111,455.132 751.111,397.947 751.148,397.929 								"/>
								<polygon fill="#0C2E3A" points="800.71,369.321 800.71,426.499 800.66,426.524 751.148,397.929 								"/>
								<polygon fill="#FFA73B" points="800.71,369.234 800.71,369.321 751.148,397.929 751.111,397.904 751.111,340.603 								
									"/>
							</g>
						</g>
					</g>
					<g>
						<g>
							<g>
								<polygon fill="#78001B" points="751.111,340.603 751.111,397.904 701.52,369.26 701.52,369.234 								"/>
								<polygon fill="#78001B" points="751.111,397.904 751.111,397.947 701.581,426.536 701.52,426.499 701.52,369.26 								"/>
								<polygon fill="#78001B" points="800.71,369.234 800.71,369.321 751.148,397.929 751.111,397.904 751.111,340.603 								
									"/>
							</g>
							<g>
								<polygon fill="#78001B" points="701.52,369.321 701.52,426.499 701.47,426.524 651.958,397.929 								"/>
								<polygon fill="#F5340B" points="701.52,369.234 701.52,369.321 651.958,397.929 651.921,397.904 651.921,340.603 								
									"/>
							</g>
							<g>
								<polygon fill="#1DCDC3" points="701.516,254.705 701.516,312.007 651.924,283.361 651.924,283.337 								"/>
								<polygon fill="#0C2E3A" points="701.516,312.007 701.516,312.05 651.986,340.64 651.924,340.603 651.924,283.361 								
									"/>
								<polygon fill="#0C2E3A" points="701.516,312.05 701.516,369.234 651.986,340.64 								"/>
								<polygon fill="#018790" points="751.064,340.627 701.516,369.234 701.516,312.05 701.554,312.031 								"/>
								<polygon fill="#018790" points="751.114,283.424 751.114,340.603 751.064,340.627 701.554,312.031 								"/>
								<polygon fill="#018790" points="733.529,165.72 733.529,182.323 733.515,182.33 719.139,174.027 								"/>
								<polygon fill="#1DCDC3" points="751.114,226.01 751.114,226.097 701.554,254.705 701.516,254.68 701.516,197.378 								
									"/>
							</g>
						</g>
					</g>
					<g>
						<g>
							<g>
								<polygon fill="#78001B" points="701.516,426.499 701.516,483.802 651.924,455.156 651.924,455.132 								"/>
								<polygon fill="#78001B" points="701.516,483.802 701.516,483.845 651.986,512.434 651.924,512.397 651.924,455.156 								
									"/>
								<polygon fill="#00A6A6" points="701.516,483.845 701.516,541.029 651.986,512.434 								"/>
								<polygon fill="#00A6A6" points="751.064,512.422 701.516,541.029 701.516,483.845 701.554,483.826 								"/>
								<polygon fill="#0C2E3A" points="751.114,455.219 751.114,512.397 751.064,512.422 701.554,483.826 								"/>
								<polygon fill="#0C2E3A" points="751.114,455.132 751.114,455.219 701.554,483.826 701.516,483.802 701.516,426.499 								
									"/>
							</g>
							<g>
								<polygon fill="#F5340B" points="751.111,340.603 751.111,397.904 701.52,369.26 701.52,369.234 								"/>
								<polygon fill="#F5340B" points="751.111,397.904 751.111,397.947 701.581,426.536 701.52,426.499 701.52,369.26 								"/>
								<polygon fill="#00A6A6" points="751.111,397.947 751.111,455.132 701.581,426.536 								"/>
								<polygon fill="#FF823B" points="800.66,426.524 751.111,455.132 751.111,397.947 751.148,397.929 								"/>
								<polygon fill="#FFA73B" points="800.71,369.234 800.71,369.321 751.148,397.929 751.111,397.904 751.111,340.603 								
									"/>
							</g>
							<g>
								<polygon fill="#F5340B" points="701.47,426.524 651.921,455.132 651.921,397.947 651.958,397.929 								"/>
								<polygon fill="#F5340B" points="701.52,369.321 701.52,426.499 701.47,426.524 651.958,397.929 								"/>
								<polygon fill="none" points="701.52,369.234 701.52,369.321 651.958,397.929 651.921,397.904 651.921,340.603 								"/>
							</g>
						</g>
					</g>
					<g>
						<g>
							<g>
								<polygon fill="#F5340B" points="651.921,340.603 651.921,397.904 602.329,369.26 602.329,369.234 								"/>
								<polygon fill="#E3651D" points="651.921,397.904 651.921,397.947 602.391,426.536 602.329,426.499 602.329,369.26 								
									"/>
								<polygon fill="#FFA73B" points="701.52,369.234 701.52,369.321 651.958,397.929 651.921,397.904 651.921,340.603 								
									"/>
							</g>
							<g>
								<polygon fill="#FFD497" points="602.326,254.705 602.326,312.007 552.733,283.361 552.733,283.337 								"/>
								<polygon fill="#FF823B" points="651.875,340.627 602.326,369.234 602.326,312.05 602.363,312.031 								"/>
								<polygon fill="#FF823B" points="568.529,340.63 545.389,353.99 545.389,327.284 545.406,327.275 								"/>
								<polygon fill="#FFD497" points="568.112,259.122 552.306,268.249 552.306,250.006 552.317,250 								"/>
								<polygon fill="#FF823B" points="651.924,283.424 651.924,340.603 651.875,340.627 602.363,312.031 								"/>
								<polygon fill="#FFA73B" points="651.924,283.337 651.924,283.424 602.363,312.031 602.326,312.007 602.326,254.705 								
									"/>
							</g>
						</g>
					</g>
					<g>
						<g>
							<g>
								<polygon fill="#FF7C4E" points="602.326,426.499 602.326,483.802 552.733,455.156 552.733,455.132 								"/>
								<polygon fill="#F54132" points="651.875,512.422 602.326,541.029 602.326,483.845 602.363,483.826 								"/>
								<polygon fill="#F54132" points="552.733,512.422 503.185,541.029 503.185,483.845 503.222,483.826 								"/>
								<polygon fill="#F54132" points="651.924,455.219 651.924,512.397 651.875,512.422 602.363,483.826 								"/>
								<polygon fill="#F54132" points="651.924,455.132 651.924,455.219 602.363,483.826 602.326,483.802 602.326,426.499 								
									"/>
							</g>
							<g>
								<polygon fill="#FFA73B" points="651.921,340.603 651.921,397.904 602.329,369.26 602.329,369.234 								"/>
								<polygon fill="#FFA73B" points="651.921,397.904 651.921,397.947 602.391,426.536 602.329,426.499 602.329,369.26 								
									"/>
								<polygon fill="#E3651D" points="651.921,397.947 651.921,455.132 602.391,426.536 								"/>
								<polygon fill="#78001B" points="701.47,426.524 651.921,455.132 651.921,397.947 651.958,397.929 								"/>
								<polygon fill="#FFA73B" points="701.52,369.234 701.52,369.321 651.958,397.929 651.921,397.904 651.921,340.603 								
									"/>
							</g>
						</g>
					</g>
				</g>
				<g>
					<g>
						<g>
							<g>
								<polygon fill="#FFA73B" points="-148.786,84.201 -148.786,26.899 -99.194,55.544 -99.194,55.568 								"/>
							</g>
							<g>
								<polygon fill="#0C2E3A" points="-99.194,55.482 -99.194,-1.696 -99.145,-1.721 -49.633,26.874 								"/>
								<polygon fill="#78001B" points="-99.194,55.568 -99.194,55.482 -49.633,26.874 -49.596,26.899 -49.596,84.201 								"/>
							</g>
							<g>
								<polygon fill="#FFA73B" points="-99.191,170.099 -99.191,112.796 -49.599,141.441 -49.599,141.466 								"/>
								<polygon fill="#F5340B" points="-99.191,112.796 -99.191,112.753 -49.66,84.164 -49.599,84.201 -49.599,141.441 								"/>
								<polygon fill="#F5340B" points="-99.191,112.753 -99.191,55.568 -49.66,84.164 								"/>
								<polygon fill="#FF823B" points="-148.739,84.176 -99.191,55.568 -99.191,112.753 -99.228,112.771 								"/>
							</g>
						</g>
					</g>
					<g>
						<g>
							<g>
								<polygon fill="#018790" points="-99.191,-1.696 -99.191,-58.999 -49.599,-30.354 -49.599,-30.329 								"/>
								<polygon fill="#018790" points="-99.191,-58.999 -99.191,-59.042 -49.66,-87.631 -49.599,-87.594 -49.599,-30.354 								
									"/>
								<polygon fill="#E3651D" points="-99.191,-59.042 -99.191,-116.227 -49.66,-87.631 								"/>
								<polygon fill="#FFA73B" points="-148.789,-30.329 -148.789,-30.416 -99.228,-59.023 -99.191,-58.999 -99.191,-1.696 
																	"/>
							</g>
							<g>
								<polygon fill="#FFA73B" points="-148.786,84.201 -148.786,26.899 -99.194,55.544 -99.194,55.568 								"/>
							</g>
							<g>
								<polygon fill="#00A6A6" points="-99.145,-1.721 -49.596,-30.329 -49.596,26.855 -49.633,26.874 								"/>
								<polygon fill="#0C2E3A" points="-99.194,55.482 -99.194,-1.696 -99.145,-1.721 -49.633,26.874 								"/>
								<polygon fill="#FFA73B" points="-99.194,55.568 -99.194,55.482 -49.633,26.874 -49.596,26.899 -49.596,84.201 								"/>
							</g>
						</g>
					</g>
					<g>
						<g>
							<g>
								<polygon fill="#78001B" points="-49.596,84.201 -49.596,26.899 -0.004,55.544 -0.004,55.568 								"/>
								<polygon fill="#78001B" points="-49.596,26.899 -49.596,26.855 -0.065,-1.733 -0.004,-1.696 -0.004,55.544 								"/>
								<polygon fill="#78001B" points="-99.194,55.568 -99.194,55.482 -49.633,26.874 -49.596,26.899 -49.596,84.201 								"/>
							</g>
							<g>
								<polygon fill="#78001B" points="-0.004,55.482 -0.004,-1.696 0.046,-1.721 49.558,26.874 								"/>
								<polygon fill="#F5340B" points="-0.004,55.568 -0.004,55.482 49.558,26.874 49.595,26.899 49.595,84.201 								"/>
							</g>
							<g>
								<polygon fill="#1DCDC3" points="0,170.099 0,112.796 49.592,141.441 49.592,141.466 								"/>
								<polygon fill="#0C2E3A" points="0,112.796 0,112.753 49.53,84.164 49.592,84.201 49.592,141.441 								"/>
								<polygon fill="#0C2E3A" points="16.449,174.8 16.449,174.786 33.121,165.163 33.142,165.175 33.142,184.442 								"/>
								<polygon fill="#0C2E3A" points="0,112.753 0,55.568 49.53,84.164 								"/>
								<polygon fill="#018790" points="-49.549,84.176 0,55.568 0,112.753 -0.037,112.771 								"/>
								<polygon fill="#018790" points="-49.599,141.379 -49.599,84.201 -49.549,84.176 -0.037,112.771 								"/>
								<polygon fill="#1DCDC3" points="-49.599,198.792 -49.599,198.706 -0.037,170.099 0,170.123 0,227.425 								"/>
							</g>
						</g>
					</g>
					<g>
						<g>
							<g>
								<polygon fill="#78001B" points="0,-1.696 0,-58.999 49.592,-30.354 49.592,-30.329 								"/>
								<polygon fill="#78001B" points="0,-58.999 0,-59.042 49.53,-87.631 49.592,-87.594 49.592,-30.354 								"/>
								<polygon fill="#00A6A6" points="0,-59.042 0,-116.227 49.53,-87.631 								"/>
								<polygon fill="#00A6A6" points="-49.549,-87.619 0,-116.227 0,-59.042 -0.037,-59.023 								"/>
								<polygon fill="#0C2E3A" points="-49.599,-30.416 -49.599,-87.594 -49.549,-87.619 -0.037,-59.023 								"/>
								<polygon fill="#0C2E3A" points="-49.599,-30.329 -49.599,-30.416 -0.037,-59.023 0,-58.999 0,-1.696 								"/>
							</g>
							<g>
								<polygon fill="#F5340B" points="-49.596,84.201 -49.596,26.899 -0.004,55.544 -0.004,55.568 								"/>
								<polygon fill="#F5340B" points="-49.596,26.899 -49.596,26.855 -0.065,-1.733 -0.004,-1.696 -0.004,55.544 								"/>
								<polygon fill="#00A6A6" points="-49.596,26.855 -49.596,-30.329 -0.065,-1.733 								"/>
								<polygon fill="#FF823B" points="-99.145,-1.721 -49.596,-30.329 -49.596,26.855 -49.633,26.874 								"/>
								<polygon fill="#FFA73B" points="-99.194,55.568 -99.194,55.482 -49.633,26.874 -49.596,26.899 -49.596,84.201 								"/>
							</g>
							<g>
								<polygon fill="#F5340B" points="-0.004,55.482 -0.004,-1.696 0.046,-1.721 49.558,26.874 								"/>
								<polygon fill="none" points="-0.004,55.568 -0.004,55.482 49.558,26.874 49.595,26.899 49.595,84.201 								"/>
							</g>
						</g>
					</g>
					<g>
						<g>
							<g>
								<polygon fill="#F5340B" points="49.595,84.201 49.595,26.899 99.187,55.544 99.187,55.568 								"/>
								<polygon fill="#E3651D" points="49.817,221.568 49.817,221.612 0.057,249.798 -0.004,249.761 0.46,192.522 								"/>
								<polygon fill="#FFA73B" points="-0.004,55.568 -0.004,55.482 49.558,26.874 49.595,26.899 49.595,84.201 								"/>
							</g>
							<g>
								<polygon fill="#FFA73B" points="99.205,112.803 99.205,55.625 99.255,55.6 148.767,84.195 								"/>
							</g>
							<g>
								<polygon fill="#FFD497" points="163.406,38.494 163.406,15.277 163.426,15.267 183.529,26.878 								"/>
							</g>
							<g>
								<polygon fill="#FFD497" points="99.19,170.099 99.19,112.796 148.782,141.441 148.782,141.466 								"/>
								<polygon fill="#FF823B" points="49.642,84.176 99.19,55.568 99.19,112.753 99.153,112.771 								"/>
								<polygon fill="#FF823B" points="49.592,141.379 49.592,84.201 49.642,84.176 99.153,112.771 								"/>
								<polygon fill="#FFA73B" points="49.592,141.466 49.592,141.379 99.153,112.771 99.19,112.796 99.19,170.099 								"/>
							</g>
						</g>
					</g>
					<g>
						<g>
							<g>
								<polygon fill="#FF7C4E" points="99.19,-1.696 99.19,-58.999 148.782,-30.354 148.782,-30.329 								"/>
								<polygon fill="#F54132" points="49.642,-87.619 99.19,-116.227 99.19,-59.042 99.153,-59.023 								"/>
								<polygon fill="#F54132" points="49.592,-30.416 49.592,-87.594 49.642,-87.619 99.153,-59.023 								"/>
								<polygon fill="#F54132" points="49.592,-30.329 49.592,-30.416 99.153,-59.023 99.19,-58.999 99.19,-1.696 								"/>
							</g>
							<g>
								<polygon fill="#FFA73B" points="49.595,84.201 49.595,26.899 99.187,55.544 99.187,55.568 								"/>
								<polygon fill="#FFA73B" points="99.125,112.833 99.125,112.79 148.655,84.201 148.717,84.238 148.717,141.479 								"/>
								<polygon fill="#FFA73B" points="-0.004,55.568 -0.004,55.482 49.558,26.874 49.595,26.899 49.595,84.201 								"/>
							</g>
						</g>
					</g>
				</g>
			</g>
		</g>
	</g>
	<g>
		<g>
			<path fill="#9E8E01" d="M378.612,468.464c0.829,6.185,7.815,10.424,7.815,10.424s5.644-5.789,4.816-11.973
				c-0.829-6.186-7.813-10.424-7.813-10.424S377.785,462.278,378.612,468.464z"/>
			<path fill="#6C5C00" d="M383.548,460.147c0,0,4.019,10.209,2.881,18.74"/>
		</g>
		<path fill="#6C5C00" d="M397.039,462.919c0,0,1.287,8.921-11.873,20.662l-2.191-1.971c0,0,8.586-7.948,10.098-17.296
			C393.774,459.976,397.039,462.919,397.039,462.919z"/>
		<g>
			<path fill="#E55639" d="M351.79,481.248c-0.071,0.284-0.142,0.566-0.213,0.851c-0.42,1.586-0.729,3.17-0.907,4.724
				c-0.032,0.244-0.053,0.476-0.068,0.706c-0.068,0.463-0.08,0.898-0.105,1.322c-0.322,7.138,2.222,13.154,5.577,16.18
				c0.291,0.262,0.593,0.508,0.906,0.742c1.166,0.875,2.239,1.843,3.219,2.9c0.266,0.287,0.543,0.559,0.831,0.821
				c3.345,3.013,9.786,5.089,17.207,4.347c2.039-0.199,4.177-0.633,6.336-1.246c13.895-3.976,28.02-15.842,15.525-27.1
				c-1.887-1.699-4.249-2.884-6.89-3.6c-4.195-1.17-7.709-4.012-9.618-7.719c-0.271-0.518-0.514-1.033-0.705-1.58
				c-0.921-2.494-2.3-4.68-4.173-6.365c-1.248-1.129-2.493-2.002-3.732-2.644C364.417,458.048,355.134,469.556,351.79,481.248z"/>
			<path fill="#C73D2E" d="M351.79,481.248c-0.071,0.284-0.142,0.566-0.213,0.851c-0.416,1.689-0.725,3.297-0.907,4.724
				c-0.032,0.244-0.053,0.476-0.068,0.706c-0.068,0.463-0.08,0.898-0.105,1.322c-0.322,7.138,2.222,13.154,5.577,16.18
				c0.291,0.262,0.593,0.508,0.906,0.742c1.166,0.875,2.239,1.843,3.219,2.9c0.266,0.287,0.543,0.559,0.831,0.821
				c3.345,3.013,9.786,5.089,17.207,4.347c2.039-0.199,4.177-0.633,6.336-1.246c-10.023-0.385-15.758-1.256-19.713-5.389
				c-6.485-6.787-11.464-11.645-7.978-25.198c3.766-14.687,18.098-18.419,26.708-7.831c-0.271-0.518-0.514-1.033-0.705-1.58
				c-0.921-2.494-2.3-4.68-4.173-6.365c-1.248-1.129-2.493-2.002-3.732-2.644C364.417,458.048,355.134,469.556,351.79,481.248z"/>
			<g>
				<path fill="#F6F2DA" d="M395.48,498.05c-2.546,3.764-6.529,5.622-4.606,6.813c1.917,1.19,5.538-0.896,8.08-4.657
					c2.548-3.762,3.055-7.777,1.135-8.969S398.024,494.288,395.48,498.05z"/>
				<path fill="#F6F2DA" d="M383.063,505.364c-0.909,0.926-0.864,2.383,0.103,3.254s2.487,0.828,3.399-0.1
					c0.911-0.925,0.864-2.383-0.102-3.254C385.494,504.394,383.973,504.438,383.063,505.364z"/>
			</g>
		</g>
	</g>
	<g>
		<g>
			<g>
				<path fill="#FFECD2" d="M99.342,464.983c-7.087-0.674-12.398,0.979-14.282-7.557c-1.884-8.537-1.2-6.211-1.2-6.211
					s-0.541-1.27-4.362-0.426c-3.823,0.844-3.779,2.223-3.779,2.223s-0.359-2.397,1.525,6.139c1.884,8.535-3.629,9.272-9.773,12.867
					c-6.144,3.594-11.731,13.279-7.202,25.228c3.457,9.122,10.392,13.396,15.51,11.602c0,0,7.942,6.792,16.285-1.126
					c10.9,3.672,15.245-5.834,15.245-5.834c5.399-0.526,9.889-7.322,9.187-17.053C115.572,472.091,106.428,465.658,99.342,464.983z"
					/>
				<path fill="#EBD4B8" d="M73.34,475.039c1.893-2.71,2.058-5.114,1.439-7.123c-1.895,1.438-4.536,2.479-7.31,4.103
					c-6.144,3.594-11.731,13.278-7.202,25.228c3.457,9.122,10.392,13.396,15.51,11.602C69.213,501.347,66.87,484.3,73.34,475.039z"
					/>
			</g>
			<g>
				<path fill="#EEE4B8" d="M73.62,474.739c-0.178,0.182-0.28,0.3-0.28,0.3S73.445,474.927,73.62,474.739z"/>
				<path fill="#C6B59E" d="M99.342,464.983c-7.087-0.674-12.398,0.979-14.282-7.557c-1.562-7.074-1.158-6.025-1.2-6.212
					c0,0-0.277-1.326-4.362-0.425c-0.62,0.137-1.152,0.289-1.626,0.448c-2.639,0.886-2.153,1.774-2.153,1.774
					c0.041,0.186-0.036-0.934,1.525,6.139c1.884,8.535-3.629,9.272-9.773,12.867c-1.164,0.682-2.286,1.688-3.369,2.675
					c-0.001,0.001,0,0-0.001,0.001c4.91-3.199,7.744-1.266,9.24,0.345c0,0,0.103-0.118,0.28-0.3c1.1-1.123,5.396-4.965,10.627-2.428
					c3.567-5.264,9.296-3.227,13.399-0.721c5.103,3.117,14.424,16.778,9.663,30.297c5.397-0.526,9.887-7.322,9.185-17.053
					C115.572,472.091,106.428,465.658,99.342,464.983z"/>
			</g>
		</g>
		<circle fill="#FFFFFF" cx="78.249" cy="483.522" r="5.808"/>
		<g>
			<defs>
				<path id="SVGID_3_" d="M99.342,464.983c-7.087-0.674-12.398,0.979-14.282-7.557c-1.884-8.537-1.2-6.211-1.2-6.211
					s-0.541-1.27-4.362-0.426c-3.823,0.844-3.779,2.223-3.779,2.223s-0.359-2.397,1.525,6.139c1.884,8.535-3.629,9.272-9.773,12.867
					c-6.144,3.594-11.731,13.279-7.202,25.228c3.457,9.122,10.392,13.396,15.51,11.602c0,0,7.942,6.792,16.285-1.126
					c10.9,3.672,15.245-5.834,15.245-5.834c5.399-0.526,9.889-7.322,9.187-17.053C115.572,472.091,106.428,465.658,99.342,464.983z"
					/>
			</defs>
			<clipPath id="SVGID_4_">
				<use xlink:href="#SVGID_3_"  overflow="visible"/>
			</clipPath>
			<path clip-path="url(#SVGID_4_)" fill="#9D8F7F" d="M85.463,516.234c0,0-0.314-0.019-0.864-0.19
				c-0.552-0.17-1.339-0.497-2.267-1.048c-1.86-1.097-4.204-3.144-6.593-5.952c-1.195-1.406-2.3-3.119-3.168-5.047
				c-0.885-1.924-1.61-4.045-2.133-6.29c-0.527-2.243-0.862-4.61-0.95-7.024c-0.127-2.412-0.01-4.883,0.421-7.304
				c0.434-2.419,1.18-4.801,2.36-6.935c1.173-2.154,2.778-3.93,4.184-5.739c1.401-1.791,2.769-3.597,3.241-5.605
				c0.235-0.999,0.197-1.996-0.05-2.946c-0.206-0.969-0.404-1.904-0.595-2.804c-0.754-3.597-1.382-6.595-1.821-8.694
				c-0.421-2.103-0.661-3.305-0.661-3.305l0.04-0.008c0,0,0.287,1.191,0.79,3.275c0.485,2.089,1.178,5.072,2.008,8.652
				c0.206,0.896,0.42,1.829,0.641,2.795c0.258,0.966,0.309,2.074,0.059,3.128c-0.5,2.138-1.901,3.986-3.33,5.769
				c-1.428,1.797-3.026,3.577-4.212,5.646c-1.192,2.074-1.981,4.414-2.444,6.809c-0.456,2.398-0.611,4.855-0.505,7.26
				c0.127,2.404,0.497,4.755,1.058,6.975c1.107,4.442,3.001,8.369,5.309,11.191c1.166,1.413,2.324,2.634,3.415,3.641
				c1.091,1.012,2.132,1.79,3.025,2.371c0.896,0.578,1.663,0.931,2.201,1.119c0.54,0.191,0.846,0.22,0.846,0.22L85.463,516.234z"/>
			<path clip-path="url(#SVGID_4_)" fill="#9D8F7F" d="M101.797,512.589c0,0,0.27-0.148,0.687-0.546
				c0.417-0.394,0.975-1.032,1.551-1.936c0.575-0.903,1.195-2.052,1.754-3.438c0.563-1.384,1.085-2.991,1.529-4.776
				c0.443-1.787,0.733-3.754,0.878-5.855c0.127-2.1,0.054-4.332-0.285-6.607c-0.345-2.272-0.94-4.592-1.868-6.826
				c-0.936-2.23-2.212-4.354-3.748-6.266c-1.541-1.906-3.355-3.588-5.326-4.973c-1.955-1.414-4.088-2.462-6.166-3.474
				c-2.051-1.022-4.131-2.057-5.537-3.759c-0.699-0.837-1.139-1.862-1.32-2.855c-0.207-0.973-0.407-1.914-0.599-2.817
				c-0.758-3.614-1.389-6.626-1.83-8.735c-0.422-2.112-0.665-3.32-0.665-3.32l0.041-0.008c0,0,0.288,1.197,0.793,3.291
				c0.488,2.098,1.183,5.096,2.018,8.693c0.206,0.9,0.421,1.838,0.644,2.809c0.183,0.963,0.585,1.885,1.245,2.678
				c1.323,1.596,3.359,2.613,5.396,3.656c2.055,1.031,4.229,2.094,6.177,3.571c1.971,1.435,3.768,3.17,5.295,5.112
				c1.526,1.943,2.774,4.103,3.699,6.349c0.968,2.229,1.604,4.554,1.987,6.838c0.376,2.287,0.481,4.537,0.384,6.661
				c-0.091,2.125-0.435,4.125-0.907,5.915c-0.945,3.583-2.204,6.451-3.447,8.229c-0.617,0.892-1.206,1.516-1.642,1.897
				c-0.436,0.384-0.717,0.527-0.717,0.527L101.797,512.589z"/>
			<path clip-path="url(#SVGID_4_)" fill="#9D8F7F" d="M87.842,515.71c0,0-0.302-0.021-0.807-0.24
				c-0.506-0.213-1.198-0.638-1.978-1.3c-1.57-1.323-3.389-3.646-5.155-6.663c-0.871-1.523-1.659-3.258-2.32-5.15
				c-0.685-1.884-1.238-3.927-1.714-6.056c-0.468-2.131-0.845-4.358-1.066-6.638c-0.253-2.273-0.38-4.605-0.267-6.934
				c0.103-2.325,0.437-4.658,1.169-6.852c0.741-2.208,2.011-4.104,3.031-6.015c1.036-1.888,1.896-3.845,1.878-5.809
				c0.008-0.974-0.222-1.899-0.423-2.824c-0.194-0.919-0.382-1.807-0.563-2.659c-0.713-3.411-1.307-6.254-1.723-8.244
				c-0.397-1.994-0.623-3.134-0.623-3.134l0.039-0.009c0,0,0.273,1.129,0.753,3.105c0.461,1.98,1.119,4.809,1.908,8.203
				c0.195,0.849,0.399,1.732,0.609,2.648c0.199,0.906,0.448,1.882,0.442,2.913c0.025,2.077-0.868,4.12-1.939,6.008
				c-1.05,1.91-2.306,3.798-3.072,5.927c-0.757,2.137-1.142,4.441-1.275,6.752c-0.141,2.312-0.057,4.639,0.18,6.908
				c0.259,2.271,0.674,4.483,1.174,6.598c0.515,2.113,1.135,4.12,1.812,5.99c0.688,1.865,1.421,3.602,2.262,5.113
				c0.858,1.508,1.722,2.852,2.567,3.979c0.848,1.127,1.686,2.029,2.426,2.716c0.742,0.685,1.41,1.13,1.899,1.357
				c0.49,0.235,0.78,0.267,0.78,0.267L87.842,515.71z"/>
			<path clip-path="url(#SVGID_4_)" fill="#9D8F7F" d="M99.662,513.061c0,0,0.237-0.169,0.56-0.61
				c0.322-0.435,0.716-1.135,1.089-2.078c0.376-0.94,0.753-2.118,1.066-3.497c0.319-1.379,0.565-2.962,0.769-4.69
				c0.18-1.729,0.258-3.617,0.206-5.611c-0.062-1.992-0.225-4.098-0.601-6.246c-0.367-2.146-0.912-4.343-1.674-6.503
				c-0.789-2.149-1.785-4.266-3.012-6.239c-1.217-1.977-2.669-3.812-4.301-5.404c-1.612-1.621-3.458-2.902-5.244-4.17
				c-1.771-1.258-3.485-2.694-4.37-4.584c-0.454-0.928-0.649-1.926-0.847-2.834c-0.193-0.922-0.382-1.813-0.561-2.669
				c-0.717-3.423-1.313-6.275-1.731-8.271c-0.399-2.001-0.629-3.145-0.629-3.145l0.039-0.008c0,0,0.274,1.133,0.753,3.115
				c0.462,1.986,1.12,4.825,1.912,8.232c0.196,0.852,0.402,1.738,0.615,2.656c0.205,0.928,0.393,1.863,0.826,2.74
				c0.838,1.784,2.489,3.152,4.235,4.432c1.757,1.279,3.644,2.588,5.237,4.268c1.624,1.642,3.049,3.521,4.246,5.529
				c1.209,2.004,2.183,4.142,2.945,6.309c0.797,2.156,1.382,4.352,1.787,6.504c0.401,2.153,0.66,4.266,0.719,6.276
				c0.082,2.011-0.012,3.917-0.229,5.66c-0.443,3.478-1.162,6.34-1.996,8.218c-0.417,0.938-0.845,1.629-1.19,2.057
				c-0.345,0.431-0.598,0.596-0.598,0.596L99.662,513.061z"/>
			<path clip-path="url(#SVGID_4_)" fill="#9D8F7F" d="M89.874,515.259c0,0-0.293-0.063-0.717-0.383
				c-0.429-0.313-0.993-0.854-1.61-1.623c-0.623-0.768-1.275-1.775-1.962-2.961c-0.682-1.19-1.396-2.561-2.091-4.1
				c-1.38-3.092-2.508-6.881-3.389-10.999c-0.441-2.06-0.831-4.202-1.121-6.394c-0.321-2.186-0.563-4.422-0.653-6.668
				c-0.09-2.244-0.046-4.506,0.313-6.705c0.36-2.215,1.236-4.237,1.874-6.227c0.66-1.979,1.025-3.98,0.777-5.867
				c-0.109-0.935-0.346-1.846-0.532-2.734c-0.187-0.888-0.369-1.744-0.543-2.567c-0.687-3.295-1.259-6.04-1.659-7.962
				c-0.382-1.926-0.601-3.025-0.601-3.025l0.04-0.01c0,0,0.266,1.09,0.729,2.998c0.445,1.912,1.082,4.643,1.846,7.92
				c0.188,0.82,0.385,1.674,0.589,2.558c0.189,0.885,0.43,1.793,0.55,2.773c0.267,1.956-0.109,4.056-0.807,6.047
				c-0.67,2.001-1.531,4.005-1.933,6.155c-0.394,2.157-0.49,4.404-0.435,6.64c0.063,2.237,0.263,4.474,0.568,6.657
				c0.328,2.183,0.754,4.313,1.23,6.357c0.486,2.044,1.039,3.997,1.609,5.834c0.585,1.829,1.177,3.552,1.83,5.091
				c1.337,3.078,2.734,5.521,3.898,7.087c0.579,0.786,1.115,1.342,1.523,1.666c0.408,0.333,0.681,0.402,0.681,0.402L89.874,515.259z
				"/>
			<path clip-path="url(#SVGID_4_)" fill="#9D8F7F" d="M97.63,513.511c0,0,0.188-0.205,0.373-0.696
				c0.191-0.483,0.393-1.225,0.549-2.185c0.334-1.918,0.521-4.71,0.469-8.055c-0.04-1.667-0.141-3.477-0.329-5.383
				c-0.198-1.905-0.446-3.914-0.844-5.967c-0.388-2.056-0.884-4.164-1.517-6.268c-0.658-2.098-1.446-4.189-2.38-6.213
				c-0.938-2.023-2.028-3.975-3.28-5.771c-1.233-1.815-2.707-3.379-4.126-4.934c-1.42-1.545-2.598-3.311-3.158-5.191
				c-0.288-0.939-0.461-1.857-0.651-2.739c-0.186-0.884-0.364-1.738-0.536-2.559c-0.687-3.281-1.258-6.016-1.658-7.93
				c-0.385-1.918-0.604-3.014-0.604-3.014l0.039-0.009c0,0,0.263,1.086,0.722,2.987c0.442,1.905,1.075,4.626,1.834,7.892
				c0.188,0.816,0.387,1.666,0.59,2.547c0.213,0.879,0.379,1.804,0.662,2.697c0.544,1.82,1.693,3.487,3.073,5.044
				c1.382,1.556,2.888,3.159,4.09,5.021c1.232,1.836,2.287,3.824,3.198,5.869c0.912,2.047,1.675,4.156,2.306,6.266
				c0.654,2.102,1.198,4.204,1.617,6.261c0.853,4.109,1.289,8.024,1.285,11.392c-0.005,3.359-0.239,6.162-0.621,8.09
				c-0.202,0.961-0.44,1.701-0.657,2.182c-0.209,0.486-0.416,0.695-0.416,0.695L97.63,513.511z"/>
			<path clip-path="url(#SVGID_4_)" fill="#9D8F7F" d="M91.943,514.8c0,0-0.065-0.036-0.162-0.129
				c-0.099-0.092-0.226-0.243-0.381-0.449c-0.307-0.415-0.695-1.064-1.132-1.919c-0.44-0.853-0.903-1.922-1.4-3.16
				c-0.489-1.238-1.033-2.649-1.551-4.204c-0.516-1.56-1.048-3.261-1.508-5.086c-0.491-1.815-0.914-3.754-1.347-5.759
				c-0.42-2.007-0.833-4.087-1.188-6.21c-0.38-2.119-0.751-4.277-1.017-6.449c-0.267-2.17-0.506-4.352-0.525-6.516
				c-0.046-2.172,0.279-4.285,0.441-6.316c0.18-2.03,0.106-3.998-0.237-5.828c-0.389-1.836-0.758-3.57-1.098-5.173
				c-0.667-3.21-1.225-5.886-1.614-7.759c-0.371-1.877-0.584-2.949-0.584-2.949l0.04-0.009c0,0,0.259,1.062,0.712,2.921
				c0.435,1.863,1.057,4.524,1.802,7.718c0.373,1.601,0.773,3.32,1.156,5.174c0.36,1.862,0.444,3.89,0.233,5.94
				c-0.191,2.049-0.508,4.142-0.516,6.28c-0.021,2.142,0.165,4.323,0.399,6.491c0.237,2.171,0.565,4.332,0.932,6.451
				c0.393,2.115,0.843,4.186,1.299,6.182c0.952,3.982,1.944,7.676,2.914,10.797c1.004,3.117,2.003,5.663,2.806,7.392
				c0.397,0.866,0.757,1.526,1.043,1.948c0.145,0.21,0.264,0.365,0.355,0.457c0.091,0.096,0.146,0.127,0.146,0.127L91.943,514.8z"/>
			<path clip-path="url(#SVGID_4_)" fill="#9D8F7F" d="M95.642,513.955c0,0,0.076-0.258,0.097-0.767
				c0.024-0.508,0.012-1.255-0.047-2.203c-0.089-1.898-0.356-4.604-0.79-7.839c-0.458-3.224-1.02-6.991-1.828-10.988
				c-0.397-1.999-0.864-4.056-1.386-6.132c-0.549-2.072-1.167-4.157-1.835-6.227c-0.684-2.064-1.441-4.103-2.27-6.072
				c-0.825-1.974-1.793-3.832-2.722-5.659c-0.934-1.824-1.617-3.715-2.06-5.544c-0.428-1.832-0.766-3.562-1.107-5.16
				c-0.668-3.195-1.226-5.859-1.614-7.724c-0.374-1.868-0.589-2.935-0.589-2.935l0.04-0.01c0,0,0.256,1.059,0.702,2.91
				c0.432,1.855,1.049,4.506,1.787,7.686c0.367,1.59,0.765,3.312,1.185,5.133c0.436,1.807,1.138,3.635,2.032,5.461
				c0.895,1.823,1.871,3.713,2.654,5.714c0.796,1.995,1.513,4.056,2.166,6.134c0.641,2.084,1.232,4.181,1.754,6.26
				c0.533,2.076,1.053,4.122,1.479,6.119c0.887,3.987,1.563,7.744,1.945,10.994c0.382,3.245,0.595,5.963,0.645,7.873
				c0.012,0.954-0.014,1.705-0.063,2.215c-0.046,0.511-0.139,0.776-0.139,0.776L95.642,513.955z"/>
			<path clip-path="url(#SVGID_4_)" fill="#9D8F7F" d="M93.617,514.747c-0.867-3.518-1.699-7.042-2.492-10.576
				c-0.818-3.527-1.559-7.073-2.29-10.62c-0.718-3.551-1.521-7.083-2.337-10.61l-2.44-10.586l-0.004-0.01l-0.001-0.01
				c-0.23-1.929-0.533-3.838-0.893-5.742c-0.359-1.902-0.812-3.795-1.203-5.696c-0.775-3.808-1.6-7.604-2.326-11.421l0.04-0.01
				c0.939,3.771,1.779,7.564,2.671,11.346c0.424,1.896,0.865,3.785,1.24,5.7c0.376,1.909,0.639,3.846,0.857,5.776l-0.003-0.018
				l2.255,10.627c0.747,3.543,1.511,7.084,2.357,10.605c0.833,3.525,1.659,7.051,2.405,10.596c0.772,3.539,1.506,7.085,2.203,10.639
				L93.617,514.747z"/>
			<path clip-path="url(#SVGID_4_)" fill="#9D8F7F" d="M98.27,517.296c0,0,0.315-0.174,0.906-0.502
				c0.589-0.329,1.437-0.837,2.469-1.559c1.024-0.729,2.235-1.66,3.518-2.854c1.278-1.193,2.617-2.655,3.901-4.383
				c1.294-1.722,2.507-3.723,3.582-5.941c1.048-2.23,1.992-4.664,2.664-7.27c0.676-2.602,1.113-5.37,1.125-8.196
				c-0.01-2.815-0.41-5.706-1.385-8.413c-0.989-2.694-2.503-5.203-4.456-7.238c-1.944-2.043-4.294-3.622-6.771-4.623
				c-1.237-0.506-2.513-0.854-3.78-1.04c-1.268-0.168-2.546-0.209-3.776-0.268c-2.455-0.114-4.876-0.099-6.946-0.98
				c-1.017-0.452-1.878-1.147-2.481-1.957c-0.615-0.804-1.022-1.675-1.319-2.511c-0.584-1.685-0.786-3.209-1.063-4.438
				c-0.25-1.236-0.415-2.215-0.523-2.882c-0.112-0.657-0.132-1.053-0.093-1.022l0.04-0.01c-0.038,0.008-0.003,0.351,0.139,1.018
				c0.132,0.66,0.36,1.625,0.636,2.854c0.307,1.22,0.548,2.747,1.146,4.376c0.585,1.606,1.704,3.392,3.683,4.197
				c1.951,0.83,4.338,0.822,6.8,0.925c1.242,0.049,2.511,0.108,3.819,0.29c1.303,0.203,2.605,0.57,3.864,1.098
				c2.524,1.041,4.872,2.709,6.807,4.805c1.941,2.095,3.44,4.639,4.4,7.362c0.981,2.72,1.473,5.605,1.501,8.458
				c0.017,2.85-0.399,5.645-1.055,8.273c-0.651,2.635-1.569,5.107-2.669,7.34c-1.105,2.227-2.348,4.234-3.668,5.957
				c-1.313,1.728-2.674,3.188-3.974,4.377c-1.296,1.195-2.536,2.107-3.586,2.811c-1.053,0.697-1.92,1.188-2.516,1.502
				c-0.599,0.313-0.919,0.479-0.919,0.479L98.27,517.296z"/>
			<path clip-path="url(#SVGID_4_)" fill="#9D8F7F" d="M98.287,517.292c0,0,0.305-0.184,0.878-0.525
				c0.57-0.348,1.39-0.881,2.384-1.629c0.991-0.752,2.145-1.73,3.359-2.961c1.216-1.23,2.453-2.752,3.617-4.531
				c1.154-1.787,2.212-3.85,3.045-6.139c0.819-2.291,1.482-4.787,1.79-7.432c0.326-2.637,0.336-5.408-0.024-8.182
				c-0.368-2.766-0.965-5.58-2.135-8.176c-1.139-2.6-2.813-4.975-4.951-6.762c-2.132-1.798-4.661-2.979-7.199-3.72
				c-2.542-0.763-5.122-0.977-7.534-1.515c-1.202-0.275-2.375-0.666-3.374-1.311c-1.006-0.637-1.777-1.525-2.333-2.459
				c-1.117-1.885-1.48-3.875-1.832-5.561c-0.354-1.699-0.664-3.182-0.893-4.408c-0.466-2.45-0.683-3.859-0.683-3.859l0.04-0.008
				c0,0,0.26,1.401,0.799,3.836c0.271,1.216,0.598,2.693,0.974,4.389c0.378,1.688,0.783,3.63,1.895,5.429
				c0.551,0.89,1.3,1.706,2.253,2.297c0.945,0.604,2.067,0.979,3.248,1.245c2.367,0.516,4.974,0.73,7.555,1.539
				c2.574,0.766,5.144,2.01,7.271,3.888c2.135,1.863,3.794,4.287,4.904,6.918c1.103,2.638,1.824,5.424,2.216,8.208
				c0.396,2.787,0.412,5.581,0.111,8.248c-0.298,2.666-0.895,5.213-1.771,7.516c-0.865,2.307-1.955,4.379-3.139,6.168
				c-2.378,3.59-5.093,6.016-7.124,7.455c-1.018,0.725-1.856,1.24-2.434,1.576c-0.583,0.326-0.894,0.5-0.894,0.5L98.287,517.292z"/>
			<path clip-path="url(#SVGID_4_)" fill="#9D8F7F" d="M98.268,517.296c0,0,0.285-0.194,0.822-0.559
				c0.521-0.381,1.283-0.949,2.155-1.785c1.749-1.646,4.004-4.331,5.762-8.083c0.891-1.862,1.666-3.974,2.247-6.267
				c0.593-2.289,1.011-4.762,1.137-7.34c0.117-2.576-0.053-5.268-0.737-7.895c-0.301-1.33-0.693-2.64-1.158-3.932
				c-0.253-0.641-0.482-1.291-0.797-1.906c-0.293-0.623-0.582-1.249-0.938-1.841c-0.646-1.218-1.456-2.34-2.305-3.413
				c-0.896-1.033-1.83-2.035-2.9-2.86c-1.061-0.835-2.179-1.577-3.359-2.174c-1.181-0.598-2.403-1.043-3.645-1.407
				c-1.239-0.367-2.467-0.721-3.657-1.119c-1.188-0.402-2.349-0.873-3.355-1.566c-1.015-0.684-1.8-1.624-2.346-2.621
				c-0.553-1-0.901-2.045-1.162-3.056c-0.475-2.032-0.811-3.896-1.162-5.547c-0.332-1.653-0.622-3.094-0.861-4.28
				c-0.471-2.375-0.74-3.731-0.74-3.731l0.04-0.009c0,0,0.301,1.35,0.828,3.712c0.261,1.182,0.578,2.616,0.94,4.263
				c0.373,1.641,0.729,3.52,1.236,5.518c0.535,1.961,1.494,4.119,3.459,5.412c1.938,1.307,4.44,1.839,6.905,2.618
				c2.504,0.727,4.99,1.952,7.088,3.731c1.071,0.864,1.998,1.899,2.882,2.963c0.833,1.105,1.64,2.244,2.271,3.481
				c0.673,1.214,1.213,2.495,1.695,3.788c0.491,1.287,0.913,2.607,1.236,3.927c0.734,2.637,0.929,5.358,0.839,7.956
				c-0.107,2.602-0.471,5.11-1.091,7.418c-0.612,2.31-1.417,4.43-2.335,6.299c-1.822,3.757-4.099,6.471-5.918,8.068
				c-0.9,0.816-1.684,1.367-2.217,1.735c-0.547,0.349-0.838,0.536-0.838,0.536L98.268,517.296z"/>
			<g clip-path="url(#SVGID_4_)">
				<path fill="#9D8F7F" d="M90.46,519.06c0,0-0.359-0.016-1.035-0.047c-0.673-0.035-1.665-0.115-2.914-0.305
					c-1.247-0.195-2.757-0.502-4.436-1.039c-1.68-0.532-3.529-1.283-5.446-2.299c-1.923-1.007-3.896-2.305-5.837-3.859
					c-1.937-1.562-3.809-3.42-5.509-5.534c-1.701-2.11-3.255-4.469-4.439-7.062c-1.175-2.6-1.944-5.424-2.198-8.303
					c-0.277-2.876,0.014-5.814,0.892-8.531c0.872-2.715,2.301-5.217,4.152-7.224c0.921-1.008,1.947-1.89,3.043-2.622
					c1.111-0.715,2.237-1.304,3.343-1.871c2.189-1.129,4.357-2.127,5.778-3.701c1.456-1.563,1.72-3.654,1.574-5.357
					c-0.144-1.729-0.568-3.216-0.803-4.451c-0.268-1.232-0.466-2.203-0.625-2.857c-0.152-0.664-0.265-0.99-0.302-0.98l0.04-0.009
					c0.022-0.044,0.171,0.323,0.345,0.967c0.183,0.651,0.446,1.607,0.739,2.835c0.266,1.23,0.726,2.697,0.903,4.472
					c0.083,0.883,0.08,1.845-0.14,2.833c-0.206,0.988-0.695,1.981-1.427,2.82c-1.508,1.672-3.71,2.676-5.888,3.813
					c-1.092,0.571-2.234,1.146-3.313,1.832c-1.071,0.704-2.082,1.557-2.991,2.535c-1.826,1.951-3.292,4.371-4.196,7.043
					c-0.914,2.67-1.231,5.582-0.995,8.442c0.255,2.865,1.107,5.656,2.285,8.214c1.2,2.559,2.763,4.887,4.471,6.961
					c1.706,2.082,3.587,3.893,5.476,5.473c1.91,1.561,3.854,2.865,5.751,3.883c1.893,1.026,3.721,1.789,5.384,2.332
					c1.664,0.543,3.156,0.879,4.393,1.109c1.238,0.22,2.223,0.324,2.896,0.374c0.674,0.05,1.033,0.073,1.033,0.073L90.46,519.06z"/>
				<path fill="#9D8F7F" d="M90.44,519.063c0,0-0.354-0.027-1.021-0.078c-0.665-0.061-1.642-0.176-2.87-0.404
					c-2.449-0.451-5.933-1.51-9.601-3.764c-1.826-1.125-3.688-2.547-5.442-4.273c-1.765-1.721-3.379-3.78-4.771-6.073
					c-1.396-2.292-2.558-4.833-3.372-7.528c-0.815-2.689-1.333-5.521-1.444-8.377c-0.1-2.855,0.385-5.752,1.537-8.34
					c1.14-2.6,2.946-4.811,4.961-6.588c2-1.819,4.272-3.112,6.204-4.576c0.959-0.738,1.818-1.551,2.422-2.496
					c0.616-0.938,0.952-1.994,1.077-3.032c0.251-2.1-0.2-4.032-0.568-5.722c-0.372-1.696-0.696-3.174-0.964-4.392
					c-0.534-2.435-0.891-3.815-0.891-3.815l0.04-0.01c0,0,0.397,1.369,1.006,3.788c0.31,1.209,0.652,2.684,1.047,4.375
					c0.39,1.677,0.897,3.634,0.678,5.815c-0.11,1.08-0.437,2.211-1.08,3.212c-0.637,1.005-1.534,1.854-2.51,2.608
					c-1.962,1.504-4.211,2.785-6.196,4.546c-1.989,1.74-3.788,3.876-4.965,6.403c-1.188,2.521-1.705,5.381-1.645,8.219
					c0.032,2.847,0.674,5.651,1.506,8.314c0.839,2.668,2.016,5.177,3.421,7.433c1.393,2.269,3.045,4.255,4.752,5.987
					c1.72,1.727,3.546,3.152,5.346,4.286c1.805,1.124,3.567,1.983,5.188,2.588s3.079,1.007,4.294,1.272
					c1.218,0.26,2.186,0.398,2.849,0.475c0.664,0.068,1.018,0.105,1.018,0.105L90.44,519.063z"/>
				<path fill="#9D8F7F" d="M90.458,519.06c0,0-0.343-0.048-0.984-0.134c-0.641-0.108-1.582-0.279-2.742-0.64
					c-2.323-0.684-5.53-2.188-8.764-4.828c-1.62-1.311-3.243-2.895-4.771-4.73c-1.533-1.833-2.918-3.955-4.112-6.271
					c-1.174-2.319-2.144-4.869-2.587-7.57c-0.262-1.333-0.436-2.707-0.532-4.082c-0.107-1.375-0.157-2.765-0.057-4.149
					c0.053-1.389,0.304-2.762,0.594-4.115c0.354-1.336,0.761-2.666,1.369-3.899c1.152-2.497,2.894-4.656,4.858-6.369
					c1.907-1.744,3.952-3.28,5.161-5.28c1.237-2,1.2-4.362,0.859-6.366c-0.381-2.026-0.85-3.881-1.201-5.524
					c-0.363-1.646-0.68-3.082-0.941-4.264c-0.517-2.364-0.811-3.715-0.811-3.715l0.04-0.01c0,0,0.326,1.344,0.898,3.697
					c0.283,1.176,0.626,2.605,1.021,4.244c0.377,1.646,0.855,3.479,1.28,5.521c0.188,1.026,0.313,2.121,0.232,3.261
					c-0.074,1.134-0.392,2.317-1.024,3.364c-0.62,1.053-1.477,1.969-2.384,2.834c-0.912,0.862-1.877,1.699-2.847,2.555
					c-0.973,0.853-1.894,1.771-2.714,2.811c-0.819,1.037-1.521,2.183-2.132,3.385c-0.624,1.2-1.049,2.502-1.428,3.816
					c-0.317,1.33-0.579,2.689-0.653,4.066c-0.072,0.686-0.072,1.375-0.075,2.064c-0.025,0.69,0.04,1.377,0.079,2.063
					c0.122,1.368,0.317,2.722,0.604,4.054c0.485,2.672,1.464,5.186,2.654,7.472c1.2,2.286,2.619,4.354,4.121,6.181
					c1.492,1.834,3.084,3.423,4.676,4.738c3.173,2.664,6.349,4.148,8.629,4.906c1.143,0.391,2.073,0.586,2.707,0.712
					c0.64,0.104,0.981,0.161,0.981,0.161L90.458,519.06z"/>
			</g>
		</g>
		<path fill="#C6B59E" d="M74.637,504.138l-30.688-10.965c0,0,2.023,8.225,4.716,15.757c2.853,7.981,10.954,13.38,21.134,9.365
			c6.383-2.517,7.589-7.112,7.6-10.192C77.404,506.322,76.298,504.73,74.637,504.138z"/>
		<path fill="#FFECD2" d="M46.035,494.965c0,0,4.827,15.42,14.843,17.405c10.017,1.984,14.578-4.052,14.047-6.459L46.035,494.965z"
			/>
	</g>
</g>
<g id="BACKGROUND_1">
</g>
</svg>
