<?xml version="1.0" encoding="utf-8"?>
<!-- Generator: Adobe Illustrator 16.0.3, SVG Export Plug-In . SVG Version: 6.00 Build 0)  -->
<!DOCTYPE svg PUBLIC "-//W3C//DTD SVG 1.1//EN" "http://www.w3.org/Graphics/SVG/1.1/DTD/svg11.dtd">
<svg version="1.1" xmlns="http://www.w3.org/2000/svg" xmlns:xlink="http://www.w3.org/1999/xlink" x="0px" y="0px"
	 width="246.812px" height="348px" viewBox="0 0 246.812 348" enable-background="new 0 0 246.812 348" xml:space="preserve">
<g id="BACKGROUND_2">
	<g>
		<rect x="-503.188" y="-152" fill="none" stroke="#E9E6E1" stroke-miterlimit="10" width="750" height="500"/>
		<rect x="-503.188" y="-152" fill="none" width="750" height="500"/>
		<g>
			<defs>
				<rect id="SVGID_1_" x="-503.188" y="-152" width="750" height="500"/>
			</defs>
			<clipPath id="SVGID_2_">
				<use xlink:href="#SVGID_1_"  overflow="visible"/>
			</clipPath>
			<g clip-path="url(#SVGID_2_)">
				<g>
					<g>
						<g>
							<g>
								<polygon fill="#FFA73B" points="347.117,188.603 347.117,245.904 297.525,217.26 297.525,217.234 								"/>
							</g>
							<g>
								<polygon fill="#0C2E3A" points="297.525,217.321 297.525,274.499 297.476,274.524 247.964,245.929 								"/>
								<polygon fill="#78001B" points="297.525,217.234 297.525,217.321 247.964,245.929 247.927,245.904 247.927,188.603 								
									"/>
							</g>
							<g>
								<polygon fill="#FFA73B" points="297.522,102.705 297.522,160.007 247.93,131.361 247.93,131.337 								"/>
								<polygon fill="#F5340B" points="297.522,160.007 297.522,160.05 247.992,188.64 247.93,188.603 247.93,131.361 								"/>
								<polygon fill="#F5340B" points="297.522,160.05 297.522,217.234 247.992,188.64 								"/>
								<polygon fill="#FF823B" points="347.071,188.627 297.522,217.234 297.522,160.05 297.56,160.031 								"/>
							</g>
						</g>
					</g>
					<g>
						<g>
							<g>
								<polygon fill="#018790" points="297.522,274.499 297.522,331.802 247.93,303.156 247.93,303.132 								"/>
								<polygon fill="#018790" points="297.522,331.802 297.522,331.845 247.992,360.434 247.93,360.397 247.93,303.156 								
									"/>
								<polygon fill="#E3651D" points="297.522,331.845 297.522,389.029 247.992,360.434 								"/>
								<polygon fill="#FFA73B" points="347.12,303.132 347.12,303.219 297.56,331.826 297.522,331.802 297.522,274.499 								"/>
							</g>
							<g>
								<polygon fill="#FFA73B" points="347.117,188.603 347.117,245.904 297.525,217.26 297.525,217.234 								"/>
							</g>
							<g>
								<polygon fill="#00A6A6" points="297.476,274.524 247.927,303.132 247.927,245.947 247.964,245.929 								"/>
								<polygon fill="#0C2E3A" points="297.525,217.321 297.525,274.499 297.476,274.524 247.964,245.929 								"/>
								<polygon fill="#FFA73B" points="297.525,217.234 297.525,217.321 247.964,245.929 247.927,245.904 247.927,188.603 								
									"/>
							</g>
						</g>
					</g>
					<g>
						<g>
							<g>
								<polygon fill="#78001B" points="247.927,188.603 247.927,245.904 198.335,217.26 198.335,217.234 								"/>
								<polygon fill="#78001B" points="247.927,245.904 247.927,245.947 198.396,274.536 198.335,274.499 198.335,217.26 								
									"/>
								<polygon fill="#78001B" points="297.525,217.234 297.525,217.321 247.964,245.929 247.927,245.904 247.927,188.603 								
									"/>
							</g>
							<g>
								<polygon fill="#78001B" points="198.335,217.321 198.335,274.499 198.285,274.524 148.773,245.929 								"/>
								<polygon fill="#F5340B" points="198.335,217.234 198.335,217.321 148.773,245.929 148.736,245.904 148.736,188.603 								
									"/>
							</g>
							<g>
								<polygon fill="#1DCDC3" points="198.331,102.705 198.331,160.007 148.739,131.361 148.739,131.337 								"/>
								<polygon fill="#0C2E3A" points="198.331,160.007 198.331,160.05 148.802,188.64 148.739,188.603 148.739,131.361 								
									"/>
								<polygon fill="#0C2E3A" points="198.331,160.05 198.331,217.234 148.802,188.64 								"/>
								<polygon fill="#018790" points="247.88,188.627 198.331,217.234 198.331,160.05 198.369,160.031 								"/>
								<polygon fill="#018790" points="247.93,131.424 247.93,188.603 247.88,188.627 198.369,160.031 								"/>
								<polygon fill="#018790" points="230.345,13.72 230.345,30.323 230.33,30.33 215.954,22.027 								"/>
								<polygon fill="#1DCDC3" points="247.93,74.01 247.93,74.097 198.369,102.705 198.331,102.68 198.331,45.378 								"/>
							</g>
						</g>
					</g>
					<g>
						<g>
							<g>
								<polygon fill="#78001B" points="198.331,274.499 198.331,331.802 148.739,303.156 148.739,303.132 								"/>
								<polygon fill="#78001B" points="198.331,331.802 198.331,331.845 148.802,360.434 148.739,360.397 148.739,303.156 								
									"/>
								<polygon fill="#00A6A6" points="198.331,331.845 198.331,389.029 148.802,360.434 								"/>
								<polygon fill="#00A6A6" points="247.88,360.422 198.331,389.029 198.331,331.845 198.369,331.826 								"/>
								<polygon fill="#0C2E3A" points="247.93,303.219 247.93,360.397 247.88,360.422 198.369,331.826 								"/>
								<polygon fill="#0C2E3A" points="247.93,303.132 247.93,303.219 198.369,331.826 198.331,331.802 198.331,274.499 								
									"/>
							</g>
							<g>
								<polygon fill="#F5340B" points="247.927,188.603 247.927,245.904 198.335,217.26 198.335,217.234 								"/>
								<polygon fill="#F5340B" points="247.927,245.904 247.927,245.947 198.396,274.536 198.335,274.499 198.335,217.26 								
									"/>
								<polygon fill="#00A6A6" points="247.927,245.947 247.927,303.132 198.396,274.536 								"/>
								<polygon fill="#FF823B" points="297.476,274.524 247.927,303.132 247.927,245.947 247.964,245.929 								"/>
								<polygon fill="#FFA73B" points="297.525,217.234 297.525,217.321 247.964,245.929 247.927,245.904 247.927,188.603 								
									"/>
							</g>
							<g>
								<polygon fill="#F5340B" points="198.285,274.524 148.736,303.132 148.736,245.947 148.773,245.929 								"/>
								<polygon fill="#F5340B" points="198.335,217.321 198.335,274.499 198.285,274.524 148.773,245.929 								"/>
								<polygon fill="none" points="198.335,217.234 198.335,217.321 148.773,245.929 148.736,245.904 148.736,188.603 								"/>
							</g>
						</g>
					</g>
					<g>
						<g>
							<g>
								<polygon fill="#F5340B" points="148.736,188.603 148.736,245.904 99.145,217.26 99.145,217.234 								"/>
								<polygon fill="#E3651D" points="148.736,245.904 148.736,245.947 99.206,274.536 99.145,274.499 99.145,217.26 								"/>
								<polygon fill="#FFA73B" points="198.335,217.234 198.335,217.321 148.773,245.929 148.736,245.904 148.736,188.603 								
									"/>
							</g>
							<g>
								<polygon fill="#FFD497" points="99.142,102.705 99.142,160.007 49.549,131.361 49.549,131.337 								"/>
								<polygon fill="#FF823B" points="148.69,188.627 99.142,217.234 99.142,160.05 99.179,160.031 								"/>
								<polygon fill="#FF823B" points="65.345,188.63 42.204,201.99 42.204,175.284 42.222,175.275 								"/>
								<polygon fill="#FFD497" points="64.928,107.122 49.121,116.249 49.121,98.006 49.133,98 								"/>
								<polygon fill="#FF823B" points="148.739,131.424 148.739,188.603 148.69,188.627 99.179,160.031 								"/>
								<polygon fill="#FFA73B" points="148.739,131.337 148.739,131.424 99.179,160.031 99.142,160.007 99.142,102.705 								"/>
							</g>
						</g>
					</g>
					<g>
						<g>
							<g>
								<polygon fill="#FF7C4E" points="99.142,274.499 99.142,331.802 49.549,303.156 49.549,303.132 								"/>
								<polygon fill="#F54132" points="148.69,360.422 99.142,389.029 99.142,331.845 99.179,331.826 								"/>
								<polygon fill="#F54132" points="49.549,360.422 0,389.029 0,331.845 0.037,331.826 								"/>
								<polygon fill="#F54132" points="148.739,303.219 148.739,360.397 148.69,360.422 99.179,331.826 								"/>
								<polygon fill="#F54132" points="148.739,303.132 148.739,303.219 99.179,331.826 99.142,331.802 99.142,274.499 								"/>
							</g>
							<g>
								<polygon fill="#FFA73B" points="148.736,188.603 148.736,245.904 99.145,217.26 99.145,217.234 								"/>
								<polygon fill="#FFA73B" points="148.736,245.904 148.736,245.947 99.206,274.536 99.145,274.499 99.145,217.26 								"/>
								<polygon fill="#E3651D" points="148.736,245.947 148.736,303.132 99.206,274.536 								"/>
								<polygon fill="#78001B" points="198.285,274.524 148.736,303.132 148.736,245.947 148.773,245.929 								"/>
								<polygon fill="#FFA73B" points="198.335,217.234 198.335,217.321 148.773,245.929 148.736,245.904 148.736,188.603 								
									"/>
							</g>
						</g>
					</g>
				</g>
				<g>
					<g>
						<g>
							<g>
								<polygon fill="#FFA73B" points="-651.971,-67.799 -651.971,-125.101 -602.379,-96.456 -602.379,-96.432 								"/>
							</g>
							<g>
								<polygon fill="#0C2E3A" points="-602.379,-96.518 -602.379,-153.696 -602.329,-153.721 -552.817,-125.126 								"/>
								<polygon fill="#78001B" points="-602.379,-96.432 -602.379,-96.518 -552.817,-125.126 -552.78,-125.101 -552.78,-67.799 
																	"/>
							</g>
							<g>
								<polygon fill="#FFA73B" points="-602.376,18.099 -602.376,-39.204 -552.783,-10.559 -552.783,-10.534 								"/>
								<polygon fill="#F5340B" points="-602.376,-39.204 -602.376,-39.247 -552.845,-67.836 -552.783,-67.799 -552.783,-10.559 
																	"/>
								<polygon fill="#F5340B" points="-602.376,-39.247 -602.376,-96.432 -552.845,-67.836 								"/>
								<polygon fill="#FF823B" points="-651.924,-67.824 -602.376,-96.432 -602.376,-39.247 -602.412,-39.229 								"/>
							</g>
						</g>
					</g>
					<g>
						<g>
							<g>
								<polygon fill="#018790" points="-602.376,-153.696 -602.376,-210.999 -552.783,-182.354 -552.783,-182.329 								"/>
								<polygon fill="#018790" points="-602.376,-210.999 -602.376,-211.042 -552.845,-239.631 -552.783,-239.594 
									-552.783,-182.354 								"/>
								<polygon fill="#E3651D" points="-602.376,-211.042 -602.376,-268.227 -552.845,-239.631 								"/>
								<polygon fill="#FFA73B" points="-651.974,-182.329 -651.974,-182.416 -602.412,-211.023 -602.376,-210.999 
									-602.376,-153.696 								"/>
							</g>
							<g>
								<polygon fill="#FFA73B" points="-651.971,-67.799 -651.971,-125.101 -602.379,-96.456 -602.379,-96.432 								"/>
							</g>
							<g>
								<polygon fill="#00A6A6" points="-602.329,-153.721 -552.78,-182.329 -552.78,-125.145 -552.817,-125.126 								"/>
								<polygon fill="#0C2E3A" points="-602.379,-96.518 -602.379,-153.696 -602.329,-153.721 -552.817,-125.126 								"/>
								<polygon fill="#FFA73B" points="-602.379,-96.432 -602.379,-96.518 -552.817,-125.126 -552.78,-125.101 -552.78,-67.799 
																	"/>
							</g>
						</g>
					</g>
					<g>
						<g>
							<g>
								<polygon fill="#78001B" points="-552.78,-67.799 -552.78,-125.101 -503.188,-96.456 -503.188,-96.432 								"/>
								<polygon fill="#78001B" points="-552.78,-125.101 -552.78,-125.145 -503.25,-153.733 -503.188,-153.696 -503.188,-96.456 
																	"/>
								<polygon fill="#78001B" points="-602.379,-96.432 -602.379,-96.518 -552.817,-125.126 -552.78,-125.101 -552.78,-67.799 
																	"/>
							</g>
							<g>
								<polygon fill="#78001B" points="-503.188,-96.518 -503.188,-153.696 -503.139,-153.721 -453.627,-125.126 								"/>
								<polygon fill="#F5340B" points="-503.188,-96.432 -503.188,-96.518 -453.627,-125.126 -453.59,-125.101 -453.59,-67.799 
																	"/>
							</g>
							<g>
								<polygon fill="#1DCDC3" points="-503.185,18.099 -503.185,-39.204 -453.593,-10.559 -453.593,-10.534 								"/>
								<polygon fill="#0C2E3A" points="-503.185,-39.204 -503.185,-39.247 -453.654,-67.836 -453.593,-67.799 -453.593,-10.559 
																	"/>
								<polygon fill="#0C2E3A" points="-486.735,22.8 -486.735,22.786 -470.063,13.163 -470.043,13.175 -470.043,32.442 								
									"/>
								<polygon fill="#0C2E3A" points="-503.185,-39.247 -503.185,-96.432 -453.654,-67.836 								"/>
								<polygon fill="#018790" points="-552.733,-67.824 -503.185,-96.432 -503.185,-39.247 -503.222,-39.229 								"/>
								<polygon fill="#018790" points="-552.783,-10.621 -552.783,-67.799 -552.733,-67.824 -503.222,-39.229 								"/>
								<polygon fill="#1DCDC3" points="-552.783,46.792 -552.783,46.706 -503.222,18.099 -503.185,18.123 -503.185,75.425 								
									"/>
							</g>
						</g>
					</g>
					<g>
						<g>
							<g>
								<polygon fill="#78001B" points="-503.185,-153.696 -503.185,-210.999 -453.593,-182.354 -453.593,-182.329 								"/>
								<polygon fill="#78001B" points="-503.185,-210.999 -503.185,-211.042 -453.654,-239.631 -453.593,-239.594 
									-453.593,-182.354 								"/>
								<polygon fill="#00A6A6" points="-503.185,-211.042 -503.185,-268.227 -453.654,-239.631 								"/>
								<polygon fill="#00A6A6" points="-552.733,-239.619 -503.185,-268.227 -503.185,-211.042 -503.222,-211.023 								"/>
								<polygon fill="#0C2E3A" points="-552.783,-182.416 -552.783,-239.594 -552.733,-239.619 -503.222,-211.023 								"/>
								<polygon fill="#0C2E3A" points="-552.783,-182.329 -552.783,-182.416 -503.222,-211.023 -503.185,-210.999 
									-503.185,-153.696 								"/>
							</g>
							<g>
								<polygon fill="#F5340B" points="-552.78,-67.799 -552.78,-125.101 -503.188,-96.456 -503.188,-96.432 								"/>
								<polygon fill="#F5340B" points="-552.78,-125.101 -552.78,-125.145 -503.25,-153.733 -503.188,-153.696 -503.188,-96.456 
																	"/>
								<polygon fill="#00A6A6" points="-552.78,-125.145 -552.78,-182.329 -503.25,-153.733 								"/>
								<polygon fill="#FF823B" points="-602.329,-153.721 -552.78,-182.329 -552.78,-125.145 -552.817,-125.126 								"/>
								<polygon fill="#FFA73B" points="-602.379,-96.432 -602.379,-96.518 -552.817,-125.126 -552.78,-125.101 -552.78,-67.799 
																	"/>
							</g>
							<g>
								<polygon fill="#F5340B" points="-503.139,-153.721 -453.59,-182.329 -453.59,-125.145 -453.627,-125.126 								"/>
								<polygon fill="#F5340B" points="-503.188,-96.518 -503.188,-153.696 -503.139,-153.721 -453.627,-125.126 								"/>
								<polygon fill="none" points="-503.188,-96.432 -503.188,-96.518 -453.627,-125.126 -453.59,-125.101 -453.59,-67.799 
																	"/>
							</g>
						</g>
					</g>
					<g>
						<g>
							<g>
								<polygon fill="#F5340B" points="-453.59,-67.799 -453.59,-125.101 -403.998,-96.456 -403.998,-96.432 								"/>
								<polygon fill="#E3651D" points="-453.367,69.568 -453.367,69.612 -503.128,97.798 -503.188,97.761 -502.725,40.522 								
									"/>
								<polygon fill="#FFA73B" points="-503.188,-96.432 -503.188,-96.518 -453.627,-125.126 -453.59,-125.101 -453.59,-67.799 
																	"/>
							</g>
							<g>
								<polygon fill="#FFA73B" points="-403.979,-39.197 -403.979,-96.375 -403.93,-96.4 -354.418,-67.805 								"/>
							</g>
							<g>
								<polygon fill="#FFD497" points="-339.778,-113.506 -339.778,-136.723 -339.759,-136.733 -319.655,-125.122 								"/>
							</g>
							<g>
								<polygon fill="#FFD497" points="-403.994,18.099 -403.994,-39.204 -354.402,-10.559 -354.402,-10.534 								"/>
								<polygon fill="#FF823B" points="-453.543,-67.824 -403.994,-96.432 -403.994,-39.247 -404.031,-39.229 								"/>
								<polygon fill="#FF823B" points="-453.593,-10.621 -453.593,-67.799 -453.543,-67.824 -404.031,-39.229 								"/>
								<polygon fill="#FFA73B" points="-453.593,-10.534 -453.593,-10.621 -404.031,-39.229 -403.994,-39.204 -403.994,18.099 
																	"/>
							</g>
						</g>
					</g>
					<g>
						<g>
							<g>
								<polygon fill="#FF7C4E" points="-403.994,-153.696 -403.994,-210.999 -354.402,-182.354 -354.402,-182.329 								"/>
								<polygon fill="#F54132" points="-453.543,-239.619 -403.994,-268.227 -403.994,-211.042 -404.031,-211.023 								"/>
								<polygon fill="#F54132" points="-453.593,-182.416 -453.593,-239.594 -453.543,-239.619 -404.031,-211.023 								"/>
								<polygon fill="#F54132" points="-453.593,-182.329 -453.593,-182.416 -404.031,-211.023 -403.994,-210.999 
									-403.994,-153.696 								"/>
							</g>
							<g>
								<polygon fill="#FFA73B" points="-453.59,-67.799 -453.59,-125.101 -403.998,-96.456 -403.998,-96.432 								"/>
								<polygon fill="#FFA73B" points="-404.06,-39.167 -404.06,-39.21 -354.529,-67.799 -354.468,-67.762 -354.468,-10.521 
																	"/>
								<polygon fill="#E3651D" points="-453.59,-125.145 -453.59,-182.329 -404.06,-153.733 								"/>
								<polygon fill="#78001B" points="-503.139,-153.721 -453.59,-182.329 -453.59,-125.145 -453.627,-125.126 								"/>
								<polygon fill="#FFA73B" points="-503.188,-96.432 -503.188,-96.518 -453.627,-125.126 -453.59,-125.101 -453.59,-67.799 
																	"/>
							</g>
						</g>
					</g>
				</g>
			</g>
		</g>
	</g>
	<g>
		<g>
			<path fill="#9E8E01" d="M-441.575,16.681c0.829,6.185,7.815,10.423,7.815,10.423s5.644-5.788,4.816-11.973
				c-0.829-6.185-7.813-10.423-7.813-10.423S-442.402,10.496-441.575,16.681z"/>
			<path fill="#6C5C00" d="M-436.64,8.365c0,0,4.019,10.209,2.881,18.739"/>
		</g>
		<path fill="#6C5C00" d="M-423.148,11.136c0,0,1.287,8.921-11.873,20.663l-2.191-1.972c0,0,8.586-7.948,10.098-17.295
			C-426.413,8.193-423.148,11.136-423.148,11.136z"/>
		<g>
			<path fill="#E55639" d="M-468.397,29.465c-0.071,0.284-0.142,0.566-0.213,0.851c-0.42,1.585-0.729,3.169-0.907,4.723
				c-0.032,0.244-0.053,0.476-0.068,0.706c-0.068,0.463-0.08,0.898-0.105,1.322c-0.322,7.138,2.222,13.155,5.577,16.181
				c0.291,0.261,0.593,0.507,0.906,0.742c1.166,0.874,2.239,1.842,3.219,2.899c0.266,0.288,0.543,0.56,0.831,0.822
				c3.345,3.013,9.786,5.089,17.207,4.347c2.039-0.2,4.177-0.634,6.336-1.247c13.895-3.975,28.02-15.841,15.525-27.099
				c-1.887-1.7-4.249-2.884-6.89-3.601c-4.195-1.17-7.709-4.011-9.618-7.718c-0.271-0.518-0.514-1.034-0.705-1.58
				c-0.921-2.494-2.3-4.681-4.173-6.366c-1.248-1.129-2.493-2.001-3.732-2.644C-455.771,6.265-465.054,17.773-468.397,29.465z"/>
			<path fill="#C73D2E" d="M-468.397,29.465c-0.071,0.284-0.142,0.566-0.213,0.851c-0.416,1.689-0.725,3.297-0.907,4.723
				c-0.032,0.244-0.053,0.476-0.068,0.706c-0.068,0.463-0.08,0.898-0.105,1.322c-0.322,7.138,2.222,13.155,5.577,16.181
				c0.291,0.261,0.593,0.507,0.906,0.742c1.166,0.874,2.239,1.842,3.219,2.899c0.266,0.288,0.543,0.56,0.831,0.822
				c3.345,3.013,9.786,5.089,17.207,4.347c2.039-0.2,4.177-0.634,6.336-1.247c-10.023-0.385-15.758-1.255-19.713-5.388
				c-6.485-6.787-11.464-11.645-7.978-25.198c3.766-14.686,18.098-18.418,26.708-7.831c-0.271-0.518-0.514-1.034-0.705-1.58
				c-0.921-2.494-2.3-4.681-4.173-6.366c-1.248-1.129-2.493-2.001-3.732-2.644C-455.771,6.265-465.054,17.773-468.397,29.465z"/>
			<g>
				<path fill="#F6F2DA" d="M-424.707,46.267c-2.546,3.764-6.529,5.622-4.606,6.813c1.917,1.19,5.538-0.895,8.08-4.657
					c2.548-3.763,3.055-7.777,1.135-8.969S-422.163,42.505-424.707,46.267z"/>
				<path fill="#F6F2DA" d="M-437.125,53.581c-0.909,0.926-0.864,2.383,0.103,3.255c0.967,0.871,2.487,0.828,3.399-0.1
					c0.911-0.925,0.864-2.383-0.102-3.254C-434.693,52.611-436.215,52.655-437.125,53.581z"/>
			</g>
		</g>
	</g>
	<g>
		<g>
			<g>
				<path fill="#FFECD2" d="M-367.721,118.678c-7.087-0.674-12.398,0.979-14.282-7.557c-1.884-8.537-1.2-6.211-1.2-6.211
					s-0.541-1.27-4.362-0.426c-3.823,0.844-3.779,2.223-3.779,2.223s-0.359-2.397,1.525,6.139c1.884,8.535-3.629,9.272-9.773,12.867
					c-6.144,3.594-11.731,13.279-7.202,25.228c3.457,9.122,10.392,13.396,15.51,11.602c0,0,7.942,6.792,16.285-1.126
					c10.9,3.672,15.245-5.834,15.245-5.834c5.399-0.526,9.889-7.322,9.187-17.053C-351.49,125.785-360.635,119.353-367.721,118.678z
					"/>
				<path fill="#EBD4B8" d="M-393.723,128.733c1.893-2.71,2.058-5.114,1.439-7.123c-1.895,1.438-4.536,2.479-7.31,4.103
					c-6.144,3.594-11.731,13.278-7.202,25.228c3.457,9.122,10.392,13.396,15.51,11.602
					C-397.85,155.041-400.192,137.994-393.723,128.733z"/>
			</g>
			<g>
				<path fill="#EEE4B8" d="M-393.442,128.434c-0.178,0.182-0.28,0.3-0.28,0.3S-393.617,128.621-393.442,128.434z"/>
				<path fill="#C6B59E" d="M-367.721,118.678c-7.087-0.674-12.398,0.979-14.282-7.557c-1.562-7.074-1.158-6.025-1.2-6.212
					c0,0-0.277-1.326-4.362-0.425c-0.62,0.137-1.152,0.289-1.626,0.448c-2.639,0.886-2.153,1.774-2.153,1.774
					c0.041,0.186-0.036-0.934,1.525,6.139c1.884,8.535-3.629,9.272-9.773,12.867c-1.164,0.682-2.286,1.688-3.369,2.675
					c-0.001,0.001,0,0-0.001,0.001c4.91-3.199,7.744-1.266,9.24,0.345c0,0,0.103-0.118,0.28-0.3c1.1-1.123,5.396-4.965,10.627-2.428
					c3.567-5.264,9.296-3.227,13.399-0.721c5.103,3.117,14.424,16.778,9.663,30.297c5.397-0.526,9.887-7.322,9.185-17.053
					C-351.49,125.785-360.635,119.353-367.721,118.678z"/>
			</g>
		</g>
		<circle fill="#FFFFFF" cx="-388.813" cy="137.217" r="5.808"/>
		<g>
			<defs>
				<path id="SVGID_3_" d="M-367.721,118.678c-7.087-0.674-12.398,0.979-14.282-7.557c-1.884-8.537-1.2-6.211-1.2-6.211
					s-0.541-1.27-4.362-0.426c-3.823,0.844-3.779,2.223-3.779,2.223s-0.359-2.397,1.525,6.139c1.884,8.535-3.629,9.272-9.773,12.867
					c-6.144,3.594-11.731,13.279-7.202,25.228c3.457,9.122,10.392,13.396,15.51,11.602c0,0,7.942,6.792,16.285-1.126
					c10.9,3.672,15.245-5.834,15.245-5.834c5.399-0.526,9.889-7.322,9.187-17.053C-351.49,125.785-360.635,119.353-367.721,118.678z
					"/>
			</defs>
			<clipPath id="SVGID_4_">
				<use xlink:href="#SVGID_3_"  overflow="visible"/>
			</clipPath>
			<path clip-path="url(#SVGID_4_)" fill="#9D8F7F" d="M-381.6,169.929c0,0-0.314-0.019-0.864-0.19
				c-0.552-0.17-1.339-0.497-2.267-1.048c-1.86-1.097-4.204-3.144-6.593-5.952c-1.195-1.406-2.3-3.119-3.168-5.047
				c-0.885-1.924-1.61-4.045-2.133-6.29c-0.527-2.243-0.862-4.61-0.95-7.024c-0.127-2.412-0.01-4.883,0.421-7.304
				c0.434-2.419,1.18-4.801,2.36-6.935c1.173-2.154,2.778-3.93,4.184-5.739c1.401-1.791,2.769-3.597,3.241-5.605
				c0.235-0.999,0.197-1.996-0.05-2.946c-0.206-0.969-0.404-1.904-0.595-2.804c-0.754-3.597-1.382-6.595-1.821-8.694
				c-0.421-2.103-0.661-3.305-0.661-3.305l0.04-0.008c0,0,0.287,1.191,0.79,3.275c0.485,2.089,1.178,5.072,2.008,8.652
				c0.206,0.896,0.42,1.829,0.641,2.795c0.258,0.966,0.309,2.074,0.059,3.128c-0.5,2.138-1.901,3.986-3.33,5.769
				c-1.428,1.797-3.026,3.577-4.212,5.646c-1.192,2.074-1.981,4.414-2.444,6.809c-0.456,2.398-0.611,4.855-0.505,7.26
				c0.127,2.404,0.497,4.755,1.058,6.975c1.107,4.442,3.001,8.369,5.309,11.191c1.166,1.413,2.324,2.634,3.415,3.641
				c1.091,1.012,2.132,1.79,3.025,2.371c0.896,0.578,1.663,0.931,2.201,1.119c0.54,0.191,0.846,0.22,0.846,0.22L-381.6,169.929z"/>
			<path clip-path="url(#SVGID_4_)" fill="#9D8F7F" d="M-365.266,166.283c0,0,0.27-0.148,0.687-0.546
				c0.417-0.394,0.975-1.032,1.551-1.936c0.575-0.903,1.195-2.052,1.754-3.438c0.563-1.384,1.085-2.991,1.529-4.776
				c0.443-1.787,0.733-3.754,0.878-5.855c0.127-2.1,0.054-4.332-0.285-6.607c-0.345-2.272-0.94-4.592-1.868-6.826
				c-0.936-2.23-2.212-4.354-3.748-6.266c-1.541-1.906-3.355-3.588-5.326-4.973c-1.955-1.414-4.088-2.462-6.166-3.474
				c-2.051-1.022-4.131-2.057-5.537-3.759c-0.699-0.837-1.139-1.862-1.32-2.855c-0.207-0.973-0.407-1.914-0.599-2.817
				c-0.758-3.614-1.389-6.626-1.83-8.735c-0.422-2.112-0.665-3.32-0.665-3.32l0.041-0.008c0,0,0.288,1.197,0.793,3.291
				c0.488,2.098,1.183,5.096,2.018,8.693c0.206,0.9,0.421,1.838,0.644,2.809c0.183,0.963,0.585,1.885,1.245,2.678
				c1.323,1.596,3.359,2.613,5.396,3.656c2.055,1.031,4.229,2.094,6.177,3.571c1.971,1.435,3.768,3.17,5.295,5.112
				c1.526,1.943,2.774,4.103,3.699,6.349c0.968,2.229,1.604,4.554,1.987,6.838c0.376,2.287,0.481,4.537,0.384,6.661
				c-0.091,2.125-0.435,4.125-0.907,5.915c-0.945,3.583-2.204,6.451-3.447,8.229c-0.617,0.892-1.206,1.516-1.642,1.897
				c-0.436,0.384-0.717,0.527-0.717,0.527L-365.266,166.283z"/>
			<path clip-path="url(#SVGID_4_)" fill="#9D8F7F" d="M-379.221,169.404c0,0-0.302-0.021-0.807-0.24
				c-0.506-0.213-1.198-0.638-1.978-1.3c-1.57-1.323-3.389-3.646-5.155-6.663c-0.871-1.523-1.659-3.258-2.32-5.15
				c-0.685-1.884-1.238-3.927-1.714-6.056c-0.468-2.131-0.845-4.358-1.066-6.638c-0.253-2.273-0.38-4.605-0.267-6.934
				c0.103-2.325,0.437-4.658,1.169-6.852c0.741-2.208,2.011-4.104,3.031-6.015c1.036-1.888,1.896-3.845,1.878-5.809
				c0.008-0.974-0.222-1.899-0.423-2.824c-0.194-0.919-0.382-1.807-0.563-2.659c-0.713-3.411-1.307-6.254-1.723-8.244
				c-0.397-1.994-0.623-3.134-0.623-3.134l0.039-0.009c0,0,0.273,1.129,0.753,3.105c0.461,1.98,1.119,4.809,1.908,8.203
				c0.195,0.849,0.399,1.732,0.609,2.648c0.199,0.906,0.448,1.882,0.442,2.913c0.025,2.077-0.868,4.12-1.939,6.008
				c-1.05,1.91-2.306,3.798-3.072,5.927c-0.757,2.137-1.142,4.441-1.275,6.752c-0.141,2.312-0.057,4.639,0.18,6.908
				c0.259,2.271,0.674,4.483,1.174,6.598c0.515,2.113,1.135,4.12,1.812,5.99c0.688,1.865,1.421,3.602,2.262,5.113
				c0.858,1.508,1.722,2.852,2.567,3.979c0.848,1.127,1.686,2.029,2.426,2.716c0.742,0.685,1.41,1.13,1.899,1.357
				c0.49,0.235,0.78,0.267,0.78,0.267L-379.221,169.404z"/>
			<path clip-path="url(#SVGID_4_)" fill="#9D8F7F" d="M-367.4,166.755c0,0,0.237-0.169,0.56-0.61
				c0.322-0.435,0.716-1.135,1.089-2.078c0.376-0.94,0.753-2.118,1.066-3.497c0.319-1.379,0.565-2.962,0.769-4.69
				c0.18-1.729,0.258-3.617,0.206-5.611c-0.062-1.992-0.225-4.098-0.601-6.246c-0.367-2.146-0.912-4.343-1.674-6.503
				c-0.789-2.149-1.785-4.266-3.012-6.239c-1.217-1.977-2.669-3.812-4.301-5.404c-1.612-1.621-3.458-2.902-5.244-4.17
				c-1.771-1.258-3.485-2.694-4.37-4.584c-0.454-0.928-0.649-1.926-0.847-2.834c-0.193-0.922-0.382-1.813-0.561-2.669
				c-0.717-3.423-1.313-6.275-1.731-8.271c-0.399-2.001-0.629-3.145-0.629-3.145l0.039-0.008c0,0,0.274,1.133,0.753,3.115
				c0.462,1.986,1.12,4.825,1.912,8.232c0.196,0.852,0.402,1.738,0.615,2.656c0.205,0.928,0.393,1.863,0.826,2.74
				c0.838,1.784,2.489,3.152,4.235,4.432c1.757,1.279,3.644,2.588,5.237,4.268c1.624,1.642,3.049,3.521,4.246,5.529
				c1.209,2.004,2.183,4.142,2.945,6.309c0.797,2.156,1.382,4.352,1.787,6.504c0.401,2.153,0.66,4.266,0.719,6.276
				c0.082,2.011-0.012,3.917-0.229,5.66c-0.443,3.478-1.162,6.34-1.996,8.218c-0.417,0.938-0.845,1.629-1.19,2.057
				c-0.345,0.431-0.598,0.596-0.598,0.596L-367.4,166.755z"/>
			<path clip-path="url(#SVGID_4_)" fill="#9D8F7F" d="M-377.188,168.953c0,0-0.293-0.063-0.717-0.383
				c-0.429-0.313-0.993-0.854-1.61-1.623c-0.623-0.768-1.275-1.775-1.962-2.961c-0.682-1.19-1.396-2.561-2.091-4.1
				c-1.38-3.092-2.508-6.881-3.389-10.999c-0.441-2.06-0.831-4.202-1.121-6.394c-0.321-2.186-0.563-4.422-0.653-6.668
				c-0.09-2.244-0.046-4.506,0.313-6.705c0.36-2.215,1.236-4.237,1.874-6.227c0.66-1.979,1.025-3.98,0.777-5.867
				c-0.109-0.935-0.346-1.846-0.532-2.734c-0.187-0.888-0.369-1.744-0.543-2.567c-0.687-3.295-1.259-6.04-1.659-7.962
				c-0.382-1.926-0.601-3.025-0.601-3.025l0.04-0.01c0,0,0.266,1.09,0.729,2.998c0.445,1.912,1.082,4.643,1.846,7.92
				c0.188,0.82,0.385,1.674,0.589,2.558c0.189,0.885,0.43,1.793,0.55,2.773c0.267,1.956-0.109,4.056-0.807,6.047
				c-0.67,2.001-1.531,4.005-1.933,6.155c-0.394,2.157-0.49,4.404-0.435,6.64c0.063,2.237,0.263,4.474,0.568,6.657
				c0.328,2.183,0.754,4.313,1.23,6.357c0.486,2.044,1.039,3.997,1.609,5.834c0.585,1.829,1.177,3.552,1.83,5.091
				c1.337,3.078,2.734,5.521,3.898,7.087c0.579,0.786,1.115,1.342,1.523,1.666c0.408,0.333,0.681,0.402,0.681,0.402
				L-377.188,168.953z"/>
			<path clip-path="url(#SVGID_4_)" fill="#9D8F7F" d="M-369.433,167.205c0,0,0.188-0.205,0.373-0.696
				c0.191-0.483,0.393-1.225,0.549-2.185c0.334-1.918,0.521-4.71,0.469-8.055c-0.04-1.667-0.141-3.477-0.329-5.383
				c-0.198-1.905-0.446-3.914-0.844-5.967c-0.388-2.056-0.884-4.164-1.517-6.268c-0.658-2.098-1.446-4.189-2.38-6.213
				c-0.938-2.023-2.028-3.975-3.28-5.771c-1.233-1.815-2.707-3.379-4.126-4.934c-1.42-1.545-2.598-3.311-3.158-5.191
				c-0.288-0.939-0.461-1.857-0.651-2.739c-0.186-0.884-0.364-1.738-0.536-2.559c-0.687-3.281-1.258-6.016-1.658-7.93
				c-0.385-1.918-0.604-3.014-0.604-3.014l0.039-0.009c0,0,0.263,1.086,0.722,2.987c0.442,1.905,1.075,4.626,1.834,7.892
				c0.188,0.816,0.387,1.666,0.59,2.547c0.213,0.879,0.379,1.804,0.662,2.697c0.544,1.82,1.693,3.487,3.073,5.044
				c1.382,1.556,2.888,3.159,4.09,5.021c1.232,1.836,2.287,3.824,3.198,5.869c0.912,2.047,1.675,4.156,2.306,6.266
				c0.654,2.102,1.198,4.204,1.617,6.261c0.853,4.109,1.289,8.024,1.285,11.392c-0.005,3.359-0.239,6.162-0.621,8.09
				c-0.202,0.961-0.44,1.701-0.657,2.182c-0.209,0.486-0.416,0.695-0.416,0.695L-369.433,167.205z"/>
			<path clip-path="url(#SVGID_4_)" fill="#9D8F7F" d="M-375.119,168.494c0,0-0.065-0.036-0.162-0.129
				c-0.099-0.092-0.226-0.243-0.381-0.449c-0.307-0.415-0.695-1.064-1.132-1.919c-0.44-0.853-0.903-1.922-1.4-3.16
				c-0.489-1.238-1.033-2.649-1.551-4.204c-0.516-1.56-1.048-3.261-1.508-5.086c-0.491-1.815-0.914-3.754-1.347-5.759
				c-0.42-2.007-0.833-4.087-1.188-6.21c-0.38-2.119-0.751-4.277-1.017-6.449c-0.267-2.17-0.506-4.352-0.525-6.516
				c-0.046-2.172,0.279-4.285,0.441-6.316c0.18-2.03,0.106-3.998-0.237-5.828c-0.389-1.836-0.758-3.57-1.098-5.173
				c-0.667-3.21-1.225-5.886-1.614-7.759c-0.371-1.877-0.584-2.949-0.584-2.949l0.04-0.009c0,0,0.259,1.062,0.712,2.921
				c0.435,1.863,1.057,4.524,1.802,7.718c0.373,1.601,0.773,3.32,1.156,5.174c0.36,1.862,0.444,3.89,0.233,5.94
				c-0.191,2.049-0.508,4.142-0.516,6.28c-0.021,2.142,0.165,4.323,0.399,6.491c0.237,2.171,0.565,4.332,0.932,6.451
				c0.393,2.115,0.843,4.186,1.299,6.182c0.952,3.982,1.944,7.676,2.914,10.797c1.004,3.117,2.003,5.663,2.806,7.392
				c0.397,0.866,0.757,1.526,1.043,1.948c0.145,0.21,0.264,0.365,0.355,0.457c0.091,0.096,0.146,0.127,0.146,0.127L-375.119,168.494
				z"/>
			<path clip-path="url(#SVGID_4_)" fill="#9D8F7F" d="M-371.421,167.649c0,0,0.076-0.258,0.097-0.767
				c0.024-0.508,0.012-1.255-0.047-2.203c-0.089-1.898-0.356-4.604-0.79-7.839c-0.458-3.224-1.02-6.991-1.828-10.988
				c-0.397-1.999-0.864-4.056-1.386-6.132c-0.549-2.072-1.167-4.157-1.835-6.227c-0.684-2.064-1.441-4.103-2.27-6.072
				c-0.825-1.974-1.793-3.832-2.722-5.659c-0.934-1.824-1.617-3.715-2.06-5.544c-0.428-1.832-0.766-3.562-1.107-5.16
				c-0.668-3.195-1.226-5.859-1.614-7.724c-0.374-1.868-0.589-2.935-0.589-2.935l0.04-0.01c0,0,0.256,1.059,0.702,2.91
				c0.432,1.855,1.049,4.506,1.787,7.686c0.367,1.59,0.765,3.312,1.185,5.133c0.436,1.807,1.138,3.635,2.032,5.461
				c0.895,1.823,1.871,3.713,2.654,5.714c0.796,1.995,1.513,4.056,2.166,6.134c0.641,2.084,1.232,4.181,1.754,6.26
				c0.533,2.076,1.053,4.122,1.479,6.119c0.887,3.987,1.563,7.744,1.945,10.994c0.382,3.245,0.595,5.963,0.645,7.873
				c0.012,0.954-0.014,1.705-0.063,2.215c-0.046,0.511-0.139,0.776-0.139,0.776L-371.421,167.649z"/>
			<path clip-path="url(#SVGID_4_)" fill="#9D8F7F" d="M-373.445,168.441c-0.867-3.518-1.699-7.042-2.492-10.576
				c-0.818-3.527-1.559-7.073-2.29-10.62c-0.718-3.551-1.521-7.083-2.337-10.61l-2.44-10.586l-0.004-0.01l-0.001-0.01
				c-0.23-1.929-0.533-3.838-0.893-5.742c-0.359-1.902-0.812-3.795-1.203-5.696c-0.775-3.808-1.6-7.604-2.326-11.421l0.04-0.01
				c0.939,3.771,1.779,7.564,2.671,11.346c0.424,1.896,0.865,3.785,1.24,5.7c0.376,1.909,0.639,3.846,0.857,5.776l-0.003-0.018
				l2.255,10.627c0.747,3.543,1.511,7.084,2.357,10.605c0.833,3.525,1.659,7.051,2.405,10.596c0.772,3.539,1.506,7.085,2.203,10.639
				L-373.445,168.441z"/>
			<path clip-path="url(#SVGID_4_)" fill="#9D8F7F" d="M-368.793,170.99c0,0,0.315-0.174,0.906-0.502
				c0.589-0.329,1.437-0.837,2.469-1.559c1.024-0.729,2.235-1.66,3.518-2.854c1.278-1.193,2.617-2.655,3.901-4.383
				c1.294-1.722,2.507-3.723,3.582-5.941c1.048-2.23,1.992-4.664,2.664-7.27c0.676-2.602,1.113-5.37,1.125-8.196
				c-0.01-2.815-0.41-5.706-1.385-8.413c-0.989-2.694-2.503-5.203-4.456-7.238c-1.944-2.043-4.294-3.622-6.771-4.623
				c-1.237-0.506-2.513-0.854-3.78-1.04c-1.268-0.168-2.546-0.209-3.776-0.268c-2.455-0.114-4.876-0.099-6.946-0.98
				c-1.017-0.452-1.878-1.147-2.481-1.957c-0.615-0.804-1.022-1.675-1.319-2.511c-0.584-1.685-0.786-3.209-1.063-4.438
				c-0.25-1.236-0.415-2.215-0.523-2.882c-0.112-0.657-0.132-1.053-0.093-1.022l0.04-0.01c-0.038,0.008-0.003,0.351,0.139,1.018
				c0.132,0.66,0.36,1.625,0.636,2.854c0.307,1.22,0.548,2.747,1.146,4.376c0.585,1.606,1.704,3.392,3.683,4.197
				c1.951,0.83,4.338,0.822,6.8,0.925c1.242,0.049,2.511,0.108,3.819,0.29c1.303,0.203,2.605,0.57,3.864,1.098
				c2.524,1.041,4.872,2.709,6.807,4.805c1.941,2.095,3.44,4.639,4.4,7.362c0.981,2.72,1.473,5.605,1.501,8.458
				c0.017,2.85-0.399,5.645-1.055,8.273c-0.651,2.635-1.569,5.107-2.669,7.34c-1.105,2.227-2.348,4.234-3.668,5.957
				c-1.313,1.728-2.674,3.188-3.974,4.377c-1.296,1.195-2.536,2.107-3.586,2.811c-1.053,0.697-1.92,1.188-2.516,1.502
				c-0.599,0.313-0.919,0.479-0.919,0.479L-368.793,170.99z"/>
			<path clip-path="url(#SVGID_4_)" fill="#9D8F7F" d="M-368.775,170.986c0,0,0.305-0.184,0.878-0.525
				c0.57-0.348,1.39-0.881,2.384-1.629c0.991-0.752,2.145-1.73,3.359-2.961c1.216-1.23,2.453-2.752,3.617-4.531
				c1.154-1.787,2.212-3.85,3.045-6.139c0.819-2.291,1.482-4.787,1.79-7.432c0.326-2.637,0.336-5.408-0.024-8.182
				c-0.368-2.766-0.965-5.58-2.135-8.176c-1.139-2.6-2.813-4.975-4.951-6.762c-2.132-1.798-4.661-2.979-7.199-3.72
				c-2.542-0.763-5.122-0.977-7.534-1.515c-1.202-0.275-2.375-0.666-3.374-1.311c-1.006-0.637-1.777-1.525-2.333-2.459
				c-1.117-1.885-1.48-3.875-1.832-5.561c-0.354-1.699-0.664-3.182-0.893-4.408c-0.466-2.45-0.683-3.859-0.683-3.859l0.04-0.008
				c0,0,0.26,1.401,0.799,3.836c0.271,1.216,0.598,2.693,0.974,4.389c0.378,1.688,0.783,3.63,1.895,5.429
				c0.551,0.89,1.3,1.706,2.253,2.297c0.945,0.604,2.067,0.979,3.248,1.245c2.367,0.516,4.974,0.73,7.555,1.539
				c2.574,0.766,5.144,2.01,7.271,3.888c2.135,1.863,3.794,4.287,4.904,6.918c1.103,2.638,1.824,5.424,2.216,8.208
				c0.396,2.787,0.412,5.581,0.111,8.248c-0.298,2.666-0.895,5.213-1.771,7.516c-0.865,2.307-1.955,4.379-3.139,6.168
				c-2.378,3.59-5.093,6.016-7.124,7.455c-1.018,0.725-1.856,1.24-2.434,1.576c-0.583,0.326-0.894,0.5-0.894,0.5L-368.775,170.986z"
				/>
			<path clip-path="url(#SVGID_4_)" fill="#9D8F7F" d="M-368.795,170.99c0,0,0.285-0.194,0.822-0.559
				c0.521-0.381,1.283-0.949,2.155-1.785c1.749-1.646,4.004-4.331,5.762-8.083c0.891-1.862,1.666-3.974,2.247-6.267
				c0.593-2.289,1.011-4.762,1.137-7.34c0.117-2.576-0.053-5.268-0.737-7.895c-0.301-1.33-0.693-2.64-1.158-3.932
				c-0.253-0.641-0.482-1.291-0.797-1.906c-0.293-0.623-0.582-1.249-0.938-1.841c-0.646-1.218-1.456-2.34-2.305-3.413
				c-0.896-1.033-1.83-2.035-2.9-2.86c-1.061-0.835-2.179-1.577-3.359-2.174c-1.181-0.598-2.403-1.043-3.645-1.407
				c-1.239-0.367-2.467-0.721-3.657-1.119c-1.188-0.402-2.349-0.873-3.355-1.566c-1.015-0.684-1.8-1.624-2.346-2.621
				c-0.553-1-0.901-2.045-1.162-3.056c-0.475-2.032-0.811-3.896-1.162-5.547c-0.332-1.653-0.622-3.094-0.861-4.28
				c-0.471-2.375-0.74-3.731-0.74-3.731l0.04-0.009c0,0,0.301,1.35,0.828,3.712c0.261,1.182,0.578,2.616,0.94,4.263
				c0.373,1.641,0.729,3.52,1.236,5.518c0.535,1.961,1.494,4.119,3.459,5.412c1.938,1.307,4.44,1.839,6.905,2.618
				c2.504,0.727,4.99,1.952,7.088,3.731c1.071,0.864,1.998,1.899,2.882,2.963c0.833,1.105,1.64,2.244,2.271,3.481
				c0.673,1.214,1.213,2.495,1.695,3.788c0.491,1.287,0.913,2.607,1.236,3.927c0.734,2.637,0.929,5.358,0.839,7.956
				c-0.107,2.602-0.471,5.11-1.091,7.418c-0.612,2.31-1.417,4.43-2.335,6.299c-1.822,3.757-4.099,6.471-5.918,8.068
				c-0.9,0.816-1.684,1.367-2.217,1.735c-0.547,0.349-0.838,0.536-0.838,0.536L-368.795,170.99z"/>
			<g clip-path="url(#SVGID_4_)">
				<path fill="#9D8F7F" d="M-376.603,172.754c0,0-0.359-0.016-1.035-0.047c-0.673-0.035-1.665-0.115-2.914-0.305
					c-1.247-0.195-2.757-0.502-4.436-1.039c-1.68-0.532-3.529-1.283-5.446-2.299c-1.923-1.007-3.896-2.305-5.837-3.859
					c-1.937-1.562-3.809-3.42-5.509-5.534c-1.701-2.11-3.255-4.469-4.439-7.062c-1.175-2.6-1.944-5.424-2.198-8.303
					c-0.277-2.876,0.014-5.814,0.892-8.531c0.872-2.715,2.301-5.217,4.152-7.224c0.921-1.008,1.947-1.89,3.043-2.622
					c1.111-0.715,2.237-1.304,3.343-1.871c2.189-1.129,4.357-2.127,5.778-3.701c1.456-1.563,1.72-3.654,1.574-5.357
					c-0.144-1.729-0.568-3.216-0.803-4.451c-0.268-1.232-0.466-2.203-0.625-2.857c-0.152-0.664-0.265-0.99-0.302-0.98l0.04-0.009
					c0.022-0.044,0.171,0.323,0.345,0.967c0.183,0.651,0.446,1.607,0.739,2.835c0.266,1.23,0.726,2.697,0.903,4.472
					c0.083,0.883,0.08,1.845-0.14,2.833c-0.206,0.988-0.695,1.981-1.427,2.82c-1.508,1.672-3.71,2.676-5.888,3.813
					c-1.092,0.571-2.234,1.146-3.313,1.832c-1.071,0.704-2.082,1.557-2.991,2.535c-1.826,1.951-3.292,4.371-4.196,7.043
					c-0.914,2.67-1.231,5.582-0.995,8.442c0.255,2.865,1.107,5.656,2.285,8.214c1.2,2.559,2.763,4.887,4.471,6.961
					c1.706,2.082,3.587,3.893,5.476,5.473c1.91,1.561,3.854,2.865,5.751,3.883c1.893,1.026,3.721,1.789,5.384,2.332
					c1.664,0.543,3.156,0.879,4.393,1.109c1.238,0.22,2.223,0.324,2.896,0.374c0.674,0.05,1.033,0.073,1.033,0.073L-376.603,172.754
					z"/>
				<path fill="#9D8F7F" d="M-376.622,172.758c0,0-0.354-0.027-1.021-0.078c-0.665-0.061-1.642-0.176-2.87-0.404
					c-2.449-0.451-5.933-1.51-9.601-3.764c-1.826-1.125-3.688-2.547-5.442-4.273c-1.765-1.721-3.379-3.78-4.771-6.073
					c-1.396-2.292-2.558-4.833-3.372-7.528c-0.815-2.689-1.333-5.521-1.444-8.377c-0.1-2.855,0.385-5.752,1.537-8.34
					c1.14-2.6,2.946-4.811,4.961-6.588c2-1.819,4.272-3.112,6.204-4.576c0.959-0.738,1.818-1.551,2.422-2.496
					c0.616-0.938,0.952-1.994,1.077-3.032c0.251-2.1-0.2-4.032-0.568-5.722c-0.372-1.696-0.696-3.174-0.964-4.392
					c-0.534-2.435-0.891-3.815-0.891-3.815l0.04-0.01c0,0,0.397,1.369,1.006,3.788c0.31,1.209,0.652,2.684,1.047,4.375
					c0.39,1.677,0.897,3.634,0.678,5.815c-0.11,1.08-0.437,2.211-1.08,3.212c-0.637,1.005-1.534,1.854-2.51,2.608
					c-1.962,1.504-4.211,2.785-6.196,4.546c-1.989,1.74-3.788,3.876-4.965,6.403c-1.188,2.521-1.705,5.381-1.645,8.219
					c0.032,2.847,0.674,5.651,1.506,8.314c0.839,2.668,2.016,5.177,3.421,7.433c1.393,2.269,3.045,4.255,4.752,5.987
					c1.72,1.727,3.546,3.152,5.346,4.286c1.805,1.124,3.567,1.983,5.188,2.588s3.079,1.007,4.294,1.272
					c1.218,0.26,2.186,0.398,2.849,0.475c0.664,0.068,1.018,0.105,1.018,0.105L-376.622,172.758z"/>
				<path fill="#9D8F7F" d="M-376.604,172.754c0,0-0.343-0.048-0.984-0.134c-0.641-0.108-1.582-0.279-2.742-0.64
					c-2.323-0.684-5.53-2.188-8.764-4.828c-1.62-1.311-3.243-2.895-4.771-4.73c-1.533-1.833-2.918-3.955-4.112-6.271
					c-1.174-2.319-2.144-4.869-2.587-7.57c-0.262-1.333-0.436-2.707-0.532-4.082c-0.107-1.375-0.157-2.765-0.057-4.149
					c0.053-1.389,0.304-2.762,0.594-4.115c0.354-1.336,0.761-2.666,1.369-3.899c1.152-2.497,2.894-4.656,4.858-6.369
					c1.907-1.744,3.952-3.28,5.161-5.28c1.237-2,1.2-4.362,0.859-6.366c-0.381-2.026-0.85-3.881-1.201-5.524
					c-0.363-1.646-0.68-3.082-0.941-4.264c-0.517-2.364-0.811-3.715-0.811-3.715l0.04-0.01c0,0,0.326,1.344,0.898,3.697
					c0.283,1.176,0.626,2.605,1.021,4.244c0.377,1.646,0.855,3.479,1.28,5.521c0.188,1.026,0.313,2.121,0.232,3.261
					c-0.074,1.134-0.392,2.317-1.024,3.364c-0.62,1.053-1.477,1.969-2.384,2.834c-0.912,0.862-1.877,1.699-2.847,2.555
					c-0.973,0.853-1.894,1.771-2.714,2.811c-0.819,1.037-1.521,2.183-2.132,3.385c-0.624,1.2-1.049,2.502-1.428,3.816
					c-0.317,1.33-0.579,2.689-0.653,4.066c-0.072,0.686-0.072,1.375-0.075,2.064c-0.025,0.69,0.04,1.377,0.079,2.063
					c0.122,1.368,0.317,2.722,0.604,4.054c0.485,2.672,1.464,5.186,2.654,7.472c1.2,2.286,2.619,4.354,4.121,6.181
					c1.492,1.834,3.084,3.423,4.676,4.738c3.173,2.664,6.349,4.148,8.629,4.906c1.143,0.391,2.073,0.586,2.707,0.712
					c0.64,0.104,0.981,0.161,0.981,0.161L-376.604,172.754z"/>
			</g>
		</g>
		<path fill="#C6B59E" d="M-392.426,157.832l-30.688-10.965c0,0,2.023,8.225,4.716,15.757c2.853,7.981,10.954,13.38,21.134,9.365
			c6.383-2.517,7.589-7.112,7.6-10.192C-389.658,160.017-390.765,158.425-392.426,157.832z"/>
		<path fill="#FFECD2" d="M-421.027,148.659c0,0,4.827,15.42,14.843,17.405c10.017,1.984,14.578-4.052,14.047-6.459
			L-421.027,148.659z"/>
	</g>
</g>
<g id="BACKGROUND_1">
</g>
</svg>
