<svg id="Contact_Us" data-name="Contact Us" xmlns="http://www.w3.org/2000/svg" width="811" height="719" viewBox="0 0 811 719">
  <metadata><?xpacket begin="﻿" id="W5M0MpCehiHzreSzNTczkc9d"?>
<x:xmpmeta xmlns:x="adobe:ns:meta/" x:xmptk="Adobe XMP Core 5.6-c138 79.159824, 2016/09/14-01:09:01        ">
   <rdf:RDF xmlns:rdf="http://www.w3.org/1999/02/22-rdf-syntax-ns#">
      <rdf:Description rdf:about=""/>
   </rdf:RDF>
</x:xmpmeta>
                                                                                                    
                                                                                                    
                                                                                                    
                                                                                                    
                                                                                                    
                                                                                                    
                                                                                                    
                                                                                                    
                                                                                                    
                                                                                                    
                                                                                                    
                                                                                                    
                                                                                                    
                                                                                                    
                                                                                                    
                                                                                                    
                                                                                                    
                                                                                                    
                                                                                                    
                                                                                                    
                           
<?xpacket end="w"?></metadata>
<defs>
    <style>
      .cls-1, .cls-13 {
        fill: #f7b586;
      }

      .cls-1, .cls-10, .cls-11, .cls-12, .cls-14, .cls-15, .cls-16, .cls-17, .cls-18, .cls-19, .cls-2, .cls-20, .cls-21, .cls-22, .cls-23, .cls-24, .cls-25, .cls-26, .cls-27, .cls-3, .cls-5, .cls-6, .cls-7, .cls-8, .cls-9 {
        fill-rule: evenodd;
      }

      .cls-2 {
        fill: #f0aa78;
      }

      .cls-3 {
        fill: #dfa174;
      }

      .cls-14, .cls-4 {
        fill: #1f2d4a;
      }

      .cls-5 {
        fill: #222;
      }

      .cls-6 {
        fill: #e1e1e1;
      }

      .cls-7 {
        fill: #696b83;
      }

      .cls-8 {
        opacity: 0.1;
      }

      .cls-9 {
        fill: #e9a16f;
      }

      .cls-10 {
        fill: #ff8686;
      }

      .cls-11 {
        fill: #5c412e;
      }

      .cls-12 {
        fill: #674a35;
      }

      .cls-15 {
        fill: #b2485b;
      }

      .cls-16 {
        fill: #973c4d;
      }

      .cls-17 {
        fill: #de8c61;
      }

      .cls-18 {
        fill: #e2a377;
      }

      .cls-19 {
        fill: #333;
      }

      .cls-20 {
        fill: #212337;
      }

      .cls-21 {
        fill: #181927;
      }

      .cls-22 {
        fill: #524adf;
      }

      .cls-23 {
        fill: #6f6ae6;
      }

      .cls-24 {
        fill: #e5e5e5;
      }

      .cls-25 {
        fill: #fff;
      }

      .cls-26 {
        fill: #e94949;
      }

      .cls-27 {
        fill: #fa6464;
      }
    </style>
  </defs>
  <g id="Girl_Character_copy" data-name="Girl Character copy">
    <path id="neck" class="cls-1" d="M495.279,388.848l-26.06,6.093,12.116,52.426,26.06-6.093Z"/>
    <path class="cls-2" d="M499.009,399.269l-25.417-1.345v14.8s21.732,9.743,28.093,5.383C501.685,417.49,499.009,399.269,499.009,399.269Z"/>
    <path id="face" class="cls-1" d="M485.841,328.052h-3.3c-21,0-38.032,17.267-38.032,38.566v4.347c0,21.3,17.028,38.75,38.032,38.75h3.3c21,0,38.032-17.267,38.032-38.566v-4.531C523.873,345.319,506.846,328.052,485.841,328.052Z"/>
    <path id="face_copy" data-name="face copy" class="cls-3" d="M515.368,365.289v4.562a38.726,38.726,0,0,1-38.611,38.838h-3.349c-0.217,0-.428-0.03-0.645-0.034a37.992,37.992,0,0,0,10.01,1.379h3.348A38.725,38.725,0,0,0,524.732,371.2v-4.563a38.71,38.71,0,0,0-37.9-38.8A38.782,38.782,0,0,1,515.368,365.289Z"/>
    <rect id="base" class="cls-4" x="420.375" y="715.5" width="122.5" height="3.5" rx="1.5" ry="1.5"/>
    <g id="feets">
      <g id="r">
        <path class="cls-5" d="M450.533,709.946c-0.606-.525,9.442-9.664,20.4-8.751,6.761,0.563,10.228,0,14.281,0,1.324-.706,2.4-0.707,3.06,0,0.04,0.945,0,14.22,0,14.22-4.511-.167-32.833.261-37.721-0.045C448.224,711.771,450.533,709.946,450.533,709.946Z"/>
        <path class="cls-6" d="M470.928,680.5h14.725v24.331c0,2.337-3.987,5.289-6.31,5.289h-4.208a4.219,4.219,0,0,1-4.207-4.231V680.5Z"/>
        <path class="cls-5" d="M471.15,702.783l3.329,3.89a2.064,2.064,0,0,1-.213,2.9,2.029,2.029,0,0,1-2.877-.215l-3.33-3.889a2.065,2.065,0,0,1,.213-2.9A2.032,2.032,0,0,1,471.15,702.783Z"/>
      </g>
      <g id="l">
        <path class="cls-5" d="M494.678,709.946c-0.605-.525,9.443-9.664,20.4-8.751,6.761,0.563,10.228,0,14.281,0,1.324-.706,2.4-0.707,3.06,0,0.04,0.945,0,14.22,0,14.22-4.512-.167-32.833.261-37.721-0.045C492.37,711.771,494.678,709.946,494.678,709.946Z"/>
        <path class="cls-6" d="M515.074,680.5H529.8v24.331c0,2.337-3.987,5.289-6.311,5.289h-4.207a4.219,4.219,0,0,1-4.207-4.231V680.5Z"/>
        <path class="cls-5" d="M515.295,702.783l3.33,3.89a2.064,2.064,0,0,1-.213,2.9,2.03,2.03,0,0,1-2.878-.215l-3.33-3.889a2.066,2.066,0,0,1,.214-2.9A2.031,2.031,0,0,1,515.295,702.783Z"/>
      </g>
    </g>
    <path id="jean" class="cls-7" d="M540.479,531.137H461.552l6.689,166.854c0.008,0.323,17.236,5.919,20.405,0,0-2.221,9.025-119.758,9.025-119.758l13.378,119.758c0.016,0.352,18.513,5.972,22.742,0C533.791,695.55,540.479,531.137,540.479,531.137Z"/>
    <path class="cls-8" d="M540.479,529.792H527.1l2.675,170.89,4.014-2.691Z"/>
    <path class="cls-1" d="M476.326,491.468L419,510l4.57,12.788,58.47-9.276Z"/>
    <path class="cls-1" d="M424.094,508.63l-4.617.673a6.441,6.441,0,0,0-5.427,7.306l0.167,1.16a6.419,6.419,0,0,0,7.269,5.455l4.618-.673a6.441,6.441,0,0,0,5.427-7.306l-0.167-1.16A6.421,6.421,0,0,0,424.094,508.63Z"/>
    <path class="cls-9" d="M472.254,493.461l-17.39,5.382s2.368,10.721-1.338,18.838c3.37-.449,18.728-2.691,18.728-2.691V493.461Z"/>
    <path class="cls-10" d="M533.791,412.725c0.228-1.753-13.384-10.48-32.712,4.037-7.6,5.71-19.551,3.169-28.622.306-14.721-4.647-19.048,6.631-20.269,9.113-4.841,9.844,15.655,84.608,15.655,84.608s-5.694,19.475-6.291,21.694c21.907-4.169,67.59,12.934,78.927-1.346,0-2.4-6.706-19.934-6.706-19.934Z"/>
    <path id="hair_copy" data-name="hair copy" class="cls-3" d="M446,357c15.126-16.279,58.439,9.381,57.838,43.072-0.07,3.936,18.682,4.7,18.682,4.7S477.084,282.408,446,357Z"/>
    <path id="hair" class="cls-11" d="M447,351c18.722-20.148,84.619,23.948,53,68,0,0-1.145,2.883,2,3C591.555,367.129,482.846,264.983,447,351Z"/>
    <path class="cls-12" d="M478,329c36.078-4.357,52.673,32.848,48,46C521.289,362.4,511.933,336.228,478,329Z"/>
    <path class="cls-8" d="M533.791,454.439l-12.04-8.074,8.026,65.934,5.351,22.875s5.612-.975,5.351-5.382c0-.979-3.874-9.394-6.688-18.839C533.553,485.987,533.791,454.439,533.791,454.439Z"/>
    <path class="cls-1" d="M501.685,416.762H474.93l6.688,33.64Z"/>
    <path id="Rectangle_633_copy" data-name="Rectangle 633 copy" class="cls-1" d="M559.274,477.616l-12.155,49.461a2.506,2.506,0,0,0-2.571,2.128l-0.066.715a2.291,2.291,0,0,0,1.383,2.257l-0.066.269h0.227l-0.213,2.638a8.709,8.709,0,0,0,7.779,9.485,8.6,8.6,0,0,0,9.191-8.026l0.218-2.7a9.063,9.063,0,0,0-.007-1.418l22.532-61.886s1.132-2.339-.157-3.982l-22.932-26.913-19.282,22.509Z"/>
    <path class="cls-10" d="M515.063,437.946l19.507-25.209,29.988,27.245-19.507,25.21Z"/>
    <rect id="Rectangle_13_copy" data-name="Rectangle 13 copy" class="cls-13" x="421.375" y="506.906" width="6.75" height="5.375" rx="2" ry="2"/>
  </g>
  <g id="Character_1_copy_2" data-name="Character 1 copy 2">
    <path class="cls-1" d="M307.374,379.869h20.552s-1.958,32.272-1.958,58.547c0,18.042-1.957,52.79-1.957,52.79H307.374V379.869Z"/>
    <path class="cls-13" d="M311.281,485.344H324a0,0,0,0,1,0,0v8.3A6.359,6.359,0,0,1,317.641,500h0a6.359,6.359,0,0,1-6.359-6.359v-8.3A0,0,0,0,1,311.281,485.344Z"/>
    <rect class="cls-13" x="322.062" y="485.344" width="3.907" height="3.906" rx="1.5" ry="1.5"/>
    <path id="base-line" class="cls-14" d="M343.787,667a1.692,1.692,0,1,0,0-3.213H219.306a1.692,1.692,0,1,0,0,3.213H343.787Z"/>
    <path id="t-shirt" class="cls-15" d="M213.86,401.386l-0.436,80.053h99.822l-5.914-101.473,21.572-.1c-0.724-20.067-17.381-40.6-37.688-40.6H234.273C210.261,338.963,187,356.05,187,376.753v24.633h26.86Z"/>
    <path id="t-shadow" class="cls-16" d="M216.009,374.611l-1.075-1.071-3.223,108.173h16.116Z"/>
    <g id="face-2" data-name="face">
      <path id="neck-2" data-name="neck" class="cls-17" d="M258.448,268.584c-9.79,0-17.726,11.251-17.726,25.129,0,0,3.785,23.293,3.221,45.554-0.5,19.8,14.5,20.34,14.5,20.34,9.789,0,17.726-8.038,17.726-21.916V293.713C276.174,279.835,268.237,268.584,258.448,268.584Z"/>
      <rect id="face-3" data-name="face" class="cls-13" x="242.844" y="261.656" width="54.844" height="74.375" rx="25.531" ry="25.531"/>
      <path id="face-shadow" class="cls-18" d="M270.265,336.054a27.638,27.638,0,0,0,5.372-.532A27.383,27.383,0,0,1,253.565,308.7V289.021A27.383,27.383,0,0,1,275.637,262.2a27.439,27.439,0,0,0-32.816,26.825V308.7A27.4,27.4,0,0,0,270.265,336.054Z"/>
      <path id="hair-2" data-name="hair" class="cls-19" d="M296.877,287.486S292.278,277.714,285,278s-28.5-2.37-28.5-2.37-7.006,7.833-7.126,21.335c0,0-5.494-6.472-7.125-4.742s-0.686,8.085,0,9.483,2.375,11.853,2.375,11.853L237.5,301.71s-1.083-29.821,0-35.559c38.491-41.2,61.756,4.741,61.756,4.741S304.115,281.2,296.877,287.486Z"/>
    </g>
    <g id="feets-2" data-name="feets">
      <g id="l-2" data-name="l">
        <path class="cls-5" d="M322.373,658.432c0.638-.514-9.946-9.462-21.487-8.568-7.122.551-10.773,0-15.042,0-1.394-.692-2.525-0.693-3.223,0-0.042.925,0,13.923,0,13.923,4.752-.164,34.581.256,39.73-0.044C324.8,660.219,322.373,658.432,322.373,658.432Z"/>
        <path class="cls-6" d="M300.886,627.372H285.844v24.634c0,2.366,4.073,5.355,6.446,5.355h4.3a4.291,4.291,0,0,0,4.3-4.284V627.372Z"/>
        <path class="cls-5" d="M300.658,650.611l-3.507,4.056a2.146,2.146,0,0,0,3.256,2.8l3.507-4.056A2.146,2.146,0,0,0,300.658,650.611Z"/>
      </g>
      <g id="r-2" data-name="r">
        <path class="cls-5" d="M261.133,658.432c0.637-.514-9.946-9.462-21.488-8.568-7.121.551-10.772,0-15.041,0-1.4-.692-2.525-0.693-3.223,0-0.043.925,0,13.923,0,13.923,4.752-.164,34.581.256,39.73-0.044C263.564,660.219,261.133,658.432,261.133,658.432Z"/>
        <path class="cls-6" d="M239.645,627.372H224.6v24.634c0,2.366,4.072,5.355,6.446,5.355h4.3a4.291,4.291,0,0,0,4.3-4.284V627.372Z"/>
        <path class="cls-5" d="M239.418,650.611l-3.507,4.056a2.146,2.146,0,0,0,3.255,2.8l3.508-4.056A2.146,2.146,0,0,0,239.418,650.611Z"/>
      </g>
    </g>
    <path id="Rectangle_7_copy_2" data-name="Rectangle 7 copy 2" class="cls-20" d="M313.246,481.439H211.466L222.455,645.58h21.172l20.625-111.387L282.144,645.58h23.039Z"/>
    <path id="Rectangle_7_copy_3" data-name="Rectangle 7 copy 3" class="cls-21" d="M222.455,645.58h4.3l1.35-164.141H211.466Zm48.285-71,11.4,71h11.818L264.356,534.193Z"/>
    <path class="cls-1" d="M213.86,401.386H188.074A67.52,67.52,0,0,0,208.53,443.35c31.243,21.766,81.071-15.987,81.781-13.936,11.362-1.435,4.843-10.35,2.383-11.456-7.057-5.5-63.656,17.084-68.505,7.813A147.471,147.471,0,0,1,213.86,401.386Z"/>
    <path class="cls-1" d="M301.014,418.713a6.736,6.736,0,0,0-8.689-4.014l-5.445,2.032a6.845,6.845,0,0,0-4.016,8.758,6.738,6.738,0,0,0,8.69,4.014L297,427.47A6.843,6.843,0,0,0,301.014,418.713Z"/>
    <path class="cls-1" d="M291.21,413.873l1.141,1.055a2.091,2.091,0,0,1,.12,2.941l-0.287.314a2.059,2.059,0,0,1-2.923.128l-1.141-1.055a2.09,2.09,0,0,1-.12-2.941l0.287-.315A2.06,2.06,0,0,1,291.21,413.873Z"/>
  </g>
  <g id="Conversation_1" data-name="Conversation 1">
    <path id="Rectangle_1760_copy_21" data-name="Rectangle 1760 copy 21" class="cls-22" d="M269.9,187.87c-0.034,5.279-3.473,11.06-7.683,12.912l-2.22.977-0.007,31.226-1-.537v0.537L227.46,216.074l-209.9,92.358a5.958,5.958,0,0,1-3.041.542,4.482,4.482,0,0,1-4.1-1.808,4.871,4.871,0,0,1-1.034-1.023,4.911,4.911,0,0,1-1.006-1,4.889,4.889,0,0,1-1-1,4.908,4.908,0,0,1-1-1,4.907,4.907,0,0,1-1-1,4.907,4.907,0,0,1-1-1,4.907,4.907,0,0,1-1-1,4.9,4.9,0,0,1-1-1c-1.477-1.09-2.4-3.154-2.379-5.91L0,292.383c0-.052-0.006-0.1-0.005-0.155l1.088-171.09c0.034-5.278,3.473-11.059,7.683-12.911L253.425,0.576c2.593-1.141,4.869-.52,6.23,1.355a4.788,4.788,0,0,1,1,1,4.809,4.809,0,0,1,1,1,4.808,4.808,0,0,1,1,1,4.809,4.809,0,0,1,1,1,4.779,4.779,0,0,1,1,1,4.76,4.76,0,0,1,1,1,4.784,4.784,0,0,1,1,1,4.789,4.789,0,0,1,1,.995,4.746,4.746,0,0,1,.955.944c1.48,1.086,2.4,3.154,2.38,5.911Z"/>
    <path class="cls-23" d="M270.9,188.87c-0.034,5.279-3.473,11.06-7.683,12.912l-2.22.977-0.007,31.226L229.01,216.832l-210.454,92.6c-4.209,1.852-7.595-.925-7.561-6.2l1.088-171.09c0.034-5.278,3.473-11.059,7.683-12.911L264.425,11.576c4.209-1.852,7.595.926,7.561,6.2Z"/>
    <path id="Shape_1762_copy_9" data-name="Shape 1762 copy 9" class="cls-24" d="M57,178l-0.016-.43L56,178l-0.052-1.414L55,177l-0.052-1.414L54,176l-0.052-1.414L53,175l-1-27,0.036-.016L52,147,226,70l0.051,1.42L227,71l0.051,1.42L228,72l0.051,1.42L229,73l0.051,1.42L230,74l1,28Z"/>
    <path class="cls-25" d="M231,75l1,28L58,179l-1-27Z"/>
    <path id="Shape_1762_copy_10" data-name="Shape 1762 copy 10" class="cls-24" d="M57,232l-0.016-.43L56,232l-0.052-1.414L55,231l-0.052-1.414L54,230l-0.052-1.414L53,229l-1-27,0.036-.016L52,201l83.721-37.049L142,168l-2.831,28.11Z"/>
    <path id="Shape_1762_copy" data-name="Shape 1762 copy" class="cls-25" d="M144.373,195.274L58,233l-1-27,85.138-37.676Z"/>
  </g>
  <g id="Conversation_2" data-name="Conversation 2">
    <path id="Rectangle_1769_copy_23" data-name="Rectangle 1769 copy 23" class="cls-26" d="M808.873,392.162a4.5,4.5,0,0,1-1,1,4.5,4.5,0,0,1-1,1,4.5,4.5,0,0,1-1,1,4.5,4.5,0,0,1-1,1,2826.307,2826.307,0,0,0-2,2,4.517,4.517,0,0,1-1,1,557.092,557.092,0,0,0-1.986,1.991,4.512,4.512,0,0,1-.948.963c-1.413,1.958-4.111,2.52-7.213,1.159L570.062,306.037l-31.094,18.115-0.023-31.765-8.564-3.757c-4.567-2-8.273-7.408-8.276-12.071l-0.112-169.03s0-.009,0-0.013v-0.987a5.482,5.482,0,0,1,1.991-4.58A935.912,935.912,0,0,1,526,99.93a28286.393,28286.393,0,0,1,2-2,4.391,4.391,0,0,1,1-1,4.391,4.391,0,0,1,1-1,4.391,4.391,0,0,1,1-1,4.391,4.391,0,0,1,1-1,4.391,4.391,0,0,1,1-1A4.778,4.778,0,0,1,537.408,91a7.73,7.73,0,0,1,3.849.715L802.6,206.36c4.567,2,8.273,7.407,8.276,12.07l0.112,169.03A5.461,5.461,0,0,1,808.873,392.162Z"/>
    <path class="cls-27" d="M791.727,403.275L570.062,306.037l-31.094,18.115-0.023-31.765-8.564-3.757c-4.567-2-8.273-7.408-8.276-12.071l-0.112-169.03c0-4.663,3.7-6.818,8.264-4.815L791.6,217.36c4.568,2,8.273,7.407,8.276,12.07l0.112,169.03C800,403.123,796.3,405.279,791.727,403.275Z"/>
    <path id="Shape_1770_copy_9" data-name="Shape 1770 copy 9" class="cls-24" d="M776,273.565V275l-1-.435V276l-1-.435V277l-1-.435V278L557,184V151l1,0.44V150l1,0.44V149l1,0.44V148l1,0.44V148l216,95v31Z"/>
    <path class="cls-25" d="M556,153v32l216,94V248Z"/>
    <path id="Shape_1770_copy_10" data-name="Shape 1770 copy 10" class="cls-24" d="M633,270l-4,4-72-32V209l1,0.44V208l1,0.44V207l1,0.44V206l1,0.44V206l72,32v32Z"/>
    <path id="Shape_1770_copy" data-name="Shape 1770 copy" class="cls-25" d="M556,211v32l73,31V243Z"/>
  </g>
</svg>
