<?xml version="1.0" encoding="utf-8"?>
<!-- Generator: Adobe Illustrator 16.0.3, SVG Export Plug-In . SVG Version: 6.00 Build 0)  -->
<!DOCTYPE svg PUBLIC "-//W3C//DTD SVG 1.1//EN" "http://www.w3.org/Graphics/SVG/1.1/DTD/svg11.dtd">
<svg version="1.1" id="Capa_1" xmlns="http://www.w3.org/2000/svg" xmlns:xlink="http://www.w3.org/1999/xlink" x="0px" y="0px"
	 width="400px" height="100px" viewBox="0 0 400 100" enable-background="new 0 0 400 100" xml:space="preserve">
<g>
	<g>
		<path fill-rule="evenodd" clip-rule="evenodd" fill="#A0B738" d="M111.55,19.492c-1.915,1.236-3.806,2.263-5.74,3.208
			c-3.941,1.927-8.017,3.493-12.3,4.478c-1.98,0.455-3.976,0.798-6.008,0.965c-1.934,0.158-3.87,0.154-5.794,0.065
			c-2.285-0.105-4.558-0.439-6.818-0.837c-2.765-0.489-5.48-1.187-8.184-1.923c-1.549-0.422-3.053-1.018-4.57-1.553
			c-0.183-0.065-0.516-0.053-0.49-0.336c0.026-0.28,0.105-0.578,0.432-0.735c1.041-0.504,2.061-1.053,3.106-1.546
			c4.662-2.199,9.487-3.953,14.52-5.083c1.984-0.446,3.996-0.765,6.037-0.929c2.091-0.167,4.173-0.268,6.263-0.103
			c2.024,0.16,4.038,0.387,6.047,0.701c4.395,0.688,8.661,1.829,12.831,3.358C111.063,19.29,111.242,19.368,111.55,19.492z"/>
	</g>
	<path fill-rule="evenodd" clip-rule="evenodd" fill="#80674E" d="M81.269,4.249c-2.836,1.757-5.428,3.612-7.881,5.661
		c-3.002,2.508-5.719,5.286-7.879,8.559c-1.575,2.387-2.92,4.904-3.633,7.701c-0.285,1.119-0.482,2.267-0.419,3.435
		c0.017,0.3,0.003,0.471-0.407,0.541c-0.58,0.098-1.149,0.036-1.721,0.082c-0.318,0.025-0.399-0.099-0.406-0.407
		c-0.045-2.202,0.156-4.373,0.703-6.511c1.423-5.567,4.268-10.322,8.337-14.33c1.929-1.901,4.363-3.022,6.942-3.799
		c1.57-0.473,3.168-0.813,4.822-0.859C80.192,4.307,80.655,4.178,81.269,4.249z"/>
</g>
<g>
	<path fill-rule="evenodd" clip-rule="evenodd" fill="#FFFFFF" d="M62.91,23.222c9.599-1.837,19.237-3.285,29.102-2.262
		C88.095,23.087,70.722,24.451,62.91,23.222z"/>
</g>
<g>
	<path fill-rule="evenodd" clip-rule="evenodd" fill="#8C1C21" d="M15.231,44.814c0.88-0.935,1.711-1.676,2.577-2.379
		c6.866-5.576,14.637-9.219,23.317-10.938c6.651-1.318,13.365-1.843,20.135-1.647c5.423,0.157,10.768,0.986,16.07,2.085
		c5.062,1.049,10.073,2.309,14.824,4.384c7.177,3.136,13.1,7.807,17.245,14.556c0.456,0.742,0.869,1.511,1.19,2.398
		c-1.598-0.606-3.129-1.205-4.673-1.771c-9.532-3.495-19.587-5.895-29.585-7.651c-10.095-1.772-19.984-2.444-30.211-2.077
		c-5.151,0.185-10.292,0.534-15.42,1.037C25.575,43.313,20.467,43.953,15.231,44.814z"/>
</g>
<g>
	<path fill-rule="evenodd" clip-rule="evenodd" fill="#6D0507" d="M8.613,57.388c0.418-2.242,2.153-5.911,3.029-7.938
		c1.608-0.193-0.47,0.056,0.96-0.115c5.724-0.685,11.973-1.618,17.686-2.396c5.14-0.701,10.281-1.387,15.42-2.087
		c5.713-0.779,11.423-1.581,17.138-2.337c1.091-0.145,2.361-0.376,3.451-0.272c5.086,0.484,9.816,1.28,14.838,2.229
		c5.917,1.119,11.913,2.939,17.711,4.557c3.452,0.962,6.915,1.902,10.188,3.402c0.478,0.218,0.941,0.473,1.539,0.775
		c-1.703,0-3.249,0.016-4.794-0.002c-8.267-0.096-16.534-0.193-24.8-0.307c-2.297-0.032-4.575-0.362-6.862-0.545
		c-7.391-0.588-14.784-0.949-22.201-0.58c-4.229,0.211-8.457,0.418-12.674,0.781c-4.611,0.396-9.234,0.719-13.778,1.664
		c-2.188,0.456-4.332,1.086-6.413,1.894c-1.048,0.408-2.131,0.481-3.217,0.591c-2.521,0.254-4.521,0.437-7.044,0.674
		C8.676,57.387,8.737,57.388,8.613,57.388z"/>
</g>
<g>
	<path fill-rule="evenodd" clip-rule="evenodd" fill="#E5B229" d="M56.253,51.512c2.256-0.098,4.513-0.025,6.768,0.013
		c2.937,0.05,5.893,0.241,8.814,0.509c2.88,0.262,5.755,0.536,8.631,0.851c4.661,0.511,9.265,1.354,13.883,2.158
		c5.875,1.021,11.711,2.23,17.5,3.663c0.394,0.098,0.544,0.243,0.572,0.66c0.266,3.978-0.367,8.48-2.376,12.071
		c0,0-0.021-0.022-0.07-0.05c-5.678-2.343-12.091-4.188-18.088-5.469c-4.451-0.951-8.943-1.648-13.467-2.127
		c-2.938-0.312-5.885-0.512-8.838-0.639c-4.953-0.215-9.906-0.11-14.856,0.036c-5.368,0.158-10.728,0.478-16.069,1.06
		c-8.936,0.973-17.589,3.062-25.875,6.589c-0.496,0.211-0.984,0.438-1.469,0.671l0,0c-1.139-2.701-2.291-6.189-3.308-8.897
		c-0.153-0.354,0.147-0.448,0.335-0.609c2.615-2.234,4.83-3.367,7.937-4.815c4.379-2.04,9.016-3.158,13.773-3.86
		c6.802-1.003,13.645-1.493,20.512-1.714C52.46,51.552,54.357,51.552,56.253,51.512z"/>
</g>
<g>
	<path fill-rule="evenodd" clip-rule="evenodd" fill="#D76525" d="M12.54,74.015c3.15-0.61,6.318-1.237,9.47-1.835
		c5.977-1.133,11.965-2.204,17.969-3.183c5.061-0.824,10.131-1.584,15.218-2.229c4.931-0.625,9.87-1.175,14.819-1.618
		c3.698-0.331,7.401-0.617,11.106-0.857c1.357-0.088,2.722,0.185,4.061,0.386c4.933,0.739,9.815,1.693,14.622,3.052
		c3.36,0.951,6.65,2.104,9.87,3.458c0.125,0.053,0.248,0.111,0.371,0.249c-0.182,0-0.366,0.006-0.547-0.001
		c-7.927-0.264-15.855-0.266-23.783-0.084c-6.948,0.159-13.892,0.458-20.814,1.09c-11.344,1.035-22.531,3.022-33.597,5.708
		c-0.396,0.097-0.768,0.109-1.17,0.017c-5.771-1.324-11.545-2.635-17.319-3.949c-0.089-0.021-0.158-0.042-0.247-0.065
		C12.572,74.105,12.537,74.061,12.54,74.015z"/>
</g>
<g>
	<path fill-rule="evenodd" clip-rule="evenodd" fill="#ABB633" d="M105.053,77.888c-0.823,1.032-1.782,1.871-2.776,2.667
		c-5.694,4.554-12.128,7.65-19.12,9.621c-5.005,1.411-10.124,2.198-15.284,2.798c-4.299,0.499-8.572,0.165-12.853-0.125
		c-4.025-0.271-8.025-0.751-11.996-1.468C31.842,89.362,22.24,84.34,14.264,76.234c-0.447-0.455-0.859-0.945-1.286-1.421
		c-0.067-0.073-0.132-0.149-0.19-0.231c-0.127-0.18-0.196-0.302-0.228-0.421c-0.038-0.146-0.057-0.166,0.027-0.13
		c2.458,0.688,5.547,1.32,8.029,1.919c7.584,1.832,15.229,3.35,22.958,4.436c5.855,0.824,11.729,1.396,17.644,1.578
		c5.596,0.174,11.181,0.015,16.763-0.373c8.57-0.595,17.068-1.719,25.496-3.384C104.003,78.104,104.528,77.995,105.053,77.888z"/>
</g>
<g>
	<path d="M138.826,37.07l4.552,1.444c-0.698,2.538-1.858,4.422-3.481,5.654c-1.624,1.232-3.683,1.848-6.178,1.848
		c-3.088,0-5.626-1.055-7.614-3.165c-1.988-2.11-2.982-4.994-2.982-8.653c0-3.871,0.999-6.876,2.998-9.017s4.626-3.212,7.883-3.212
		c2.845,0,5.155,0.841,6.932,2.522c1.057,0.994,1.85,2.421,2.379,4.283l-4.647,1.11c-0.276-1.206-0.849-2.157-1.721-2.855
		c-0.872-0.697-1.933-1.047-3.18-1.047c-1.724,0-3.122,0.619-4.196,1.856c-1.073,1.237-1.61,3.241-1.61,6.011
		c0,2.94,0.529,5.034,1.586,6.282c1.057,1.248,2.432,1.871,4.124,1.871c1.248,0,2.322-0.396,3.22-1.189
		C137.79,40.02,138.435,38.772,138.826,37.07z"/>
	<path d="M168.376,45.619h-5.107l-2.03-5.282h-9.295l-1.919,5.282h-4.98l9.057-23.253h4.965L168.376,45.619z M159.732,36.419
		l-3.204-8.628l-3.141,8.628H159.732z"/>
	<path d="M170.882,45.619V22.366h9.882c2.485,0,4.291,0.209,5.417,0.626c1.125,0.418,2.028,1.161,2.704,2.229
		c0.677,1.068,1.016,2.289,1.016,3.664c0,1.745-0.514,3.186-1.539,4.322c-1.025,1.137-2.559,1.854-4.6,2.149
		c1.015,0.592,1.854,1.243,2.514,1.951c0.661,0.708,1.552,1.967,2.672,3.775l2.84,4.536h-5.616l-3.394-5.06
		c-1.206-1.808-2.031-2.948-2.475-3.418c-0.444-0.471-0.915-0.793-1.412-0.968c-0.497-0.174-1.285-0.262-2.363-0.262h-0.952v9.708
		H170.882z M175.577,32.2h3.474c2.252,0,3.658-0.095,4.219-0.285c0.56-0.191,0.999-0.518,1.316-0.983
		c0.317-0.465,0.476-1.047,0.476-1.745c0-0.782-0.208-1.414-0.626-1.896c-0.418-0.481-1.007-0.785-1.769-0.912
		c-0.38-0.052-1.523-0.079-3.426-0.079h-3.664V32.2z"/>
	<path d="M205.143,37.07v-3.917h10.119v9.263c-0.982,0.952-2.408,1.79-4.273,2.514c-1.867,0.725-3.756,1.087-5.671,1.087
		c-2.433,0-4.552-0.51-6.361-1.531c-1.807-1.021-3.166-2.479-4.076-4.378c-0.91-1.898-1.364-3.963-1.364-6.194
		c0-2.421,0.507-4.574,1.522-6.456c1.016-1.882,2.502-3.325,4.458-4.33c1.492-0.771,3.347-1.158,5.568-1.158
		c2.887,0,5.141,0.605,6.764,1.816c1.625,1.211,2.668,2.884,3.133,5.02l-4.662,0.872c-0.328-1.142-0.943-2.043-1.85-2.704
		c-0.902-0.661-2.031-0.992-3.385-0.992c-2.053,0-3.684,0.651-4.894,1.951c-1.211,1.301-1.816,3.231-1.816,5.79
		c0,2.76,0.613,4.831,1.84,6.21c1.226,1.379,2.834,2.069,4.821,2.069c0.984,0,1.969-0.193,2.959-0.579
		c0.988-0.386,1.836-0.854,2.547-1.404v-2.95H205.143z"/>
	<path d="M240.563,45.619h-5.107l-2.031-5.282h-9.295l-1.918,5.282h-4.98l9.057-23.253h4.965L240.563,45.619z M231.918,36.419
		l-3.205-8.628l-3.139,8.628H231.918z"/>
	<path d="M123.806,84.601V61.348h4.695v23.253H123.806z"/>
	<path d="M133.021,84.601V61.348h4.568l9.517,15.528V61.348h4.362v23.253h-4.711l-9.374-15.163v15.163H133.021z"/>
	<path d="M161.667,84.601V65.281h-6.9v-3.934h18.479v3.934h-6.883v19.319H161.667z"/>
	<path d="M176.275,84.601V61.348h17.241v3.934h-12.546v5.154h11.674v3.919h-11.674v6.329h12.99v3.917H176.275z"/>
	<path d="M197.958,84.601V61.348h9.882c2.484,0,4.291,0.209,5.418,0.627c1.125,0.417,2.027,1.161,2.703,2.229
		c0.678,1.067,1.016,2.289,1.016,3.663c0,1.745-0.514,3.187-1.539,4.322c-1.027,1.137-2.559,1.854-4.6,2.149
		c1.016,0.593,1.854,1.242,2.514,1.951s1.551,1.968,2.674,3.774l2.838,4.537h-5.615l-3.395-5.06
		c-1.205-1.809-2.029-2.947-2.475-3.418c-0.443-0.471-0.914-0.794-1.41-0.968c-0.498-0.175-1.285-0.262-2.364-0.262h-0.952v9.707
		H197.958z M202.652,71.182h3.475c2.252,0,3.658-0.096,4.219-0.286c0.561-0.189,1-0.518,1.316-0.982
		c0.318-0.466,0.477-1.047,0.477-1.745c0-0.782-0.209-1.414-0.627-1.895c-0.418-0.482-1.006-0.786-1.77-0.913
		c-0.379-0.053-1.521-0.079-3.426-0.079h-3.664V71.182z"/>
	<path d="M221.449,84.601V61.348h4.568l9.518,15.528V61.348h4.361v23.253h-4.711l-9.375-15.163v15.163H221.449z"/>
	<path d="M265.83,84.601h-5.107l-2.029-5.282h-9.295l-1.922,5.282h-4.98l9.059-23.253h4.963L265.83,84.601z M257.184,75.401
		l-3.201-8.629l-3.143,8.629H257.184z"/>
	<path d="M283.199,76.051l4.551,1.443c-0.699,2.538-1.857,4.423-3.482,5.655c-1.623,1.231-3.682,1.848-6.176,1.848
		c-3.09,0-5.627-1.055-7.615-3.164c-1.988-2.11-2.982-4.994-2.982-8.652c0-3.87,1-6.877,2.998-9.018
		c1.998-2.142,4.627-3.212,7.885-3.212c2.844,0,5.154,0.84,6.93,2.522c1.059,0.993,1.85,2.421,2.379,4.282l-4.646,1.11
		c-0.275-1.206-0.848-2.157-1.721-2.854c-0.873-0.699-1.932-1.048-3.18-1.048c-1.725,0-3.123,0.618-4.197,1.856
		c-1.072,1.236-1.609,3.24-1.609,6.011c0,2.939,0.529,5.034,1.588,6.281c1.057,1.248,2.43,1.872,4.123,1.872
		c1.248,0,2.32-0.396,3.219-1.19C282.16,79.002,282.805,77.754,283.199,76.051z"/>
	<path d="M291.635,84.601V61.348h4.695v23.253H291.635z"/>
	<path d="M299.852,73.116c0-2.368,0.355-4.355,1.063-5.963c0.529-1.185,1.252-2.247,2.166-3.188s1.916-1.639,3.006-2.095
		c1.449-0.612,3.119-0.919,5.012-0.919c3.426,0,6.168,1.063,8.225,3.188c2.057,2.125,3.086,5.081,3.086,8.866
		c0,3.754-1.021,6.69-3.063,8.812c-2.039,2.12-4.77,3.18-8.186,3.18c-3.455,0-6.205-1.055-8.246-3.164
		C300.873,79.723,299.852,76.818,299.852,73.116z M304.689,72.958c0,2.633,0.609,4.629,1.824,5.987
		c1.217,1.359,2.76,2.039,4.631,2.039c1.873,0,3.41-0.675,4.609-2.022c1.199-1.349,1.801-3.371,1.801-6.067
		c0-2.665-0.586-4.652-1.754-5.964s-2.719-1.967-4.656-1.967c-1.934,0-3.492,0.663-4.678,1.991
		C305.281,68.282,304.689,70.283,304.689,72.958z"/>
	<path d="M326.119,84.601V61.348h4.568l9.516,15.528V61.348h4.363v23.253h-4.711l-9.375-15.163v15.163H326.119z"/>
	<path d="M370.5,84.601h-5.107l-2.031-5.282h-9.295l-1.918,5.282h-4.98l9.057-23.253h4.965L370.5,84.601z M361.855,75.401
		l-3.205-8.629l-3.139,8.629H361.855z"/>
	<path d="M373.117,84.601V61.537h4.695v19.146h11.674v3.917H373.117z"/>
</g>
</svg>
