<?xml version="1.0" encoding="utf-8"?>
<!-- Generator: Adobe Illustrator 16.0.3, SVG Export Plug-In . SVG Version: 6.00 Build 0)  -->
<!DOCTYPE svg PUBLIC "-//W3C//DTD SVG 1.1//EN" "http://www.w3.org/Graphics/SVG/1.1/DTD/svg11.dtd">
<svg version="1.1" id="Capa_1" xmlns="http://www.w3.org/2000/svg" xmlns:xlink="http://www.w3.org/1999/xlink" x="0px" y="0px"
	 width="1280px" height="800px" viewBox="0 0 1280 800" enable-background="new 0 0 1280 800" xml:space="preserve">
<g>
	<g>
		<path fill-rule="evenodd" clip-rule="evenodd" fill="#A0B738" d="M978.309,179.787c-15.969,10.313-31.744,18.875-47.881,26.764
			c-32.878,16.074-66.879,29.139-102.614,37.355c-16.517,3.797-33.17,6.659-50.124,8.047c-16.133,1.321-32.285,1.286-48.34,0.545
			c-19.063-0.88-38.024-3.662-56.876-6.99c-23.068-4.074-45.723-9.895-68.275-16.039c-12.929-3.522-25.467-8.493-38.13-12.957
			c-1.526-0.538-4.305-0.44-4.087-2.799c0.218-2.34,0.886-4.82,3.604-6.137c8.684-4.206,17.188-8.782,25.913-12.896
			c38.897-18.343,79.147-32.975,121.13-42.403c16.556-3.718,33.337-6.382,50.367-7.745c17.443-1.396,34.813-2.234,52.243-0.86
			c16.883,1.331,33.685,3.226,50.453,5.85c36.661,5.738,72.255,15.252,107.036,28.015
			C974.255,178.097,975.747,178.75,978.309,179.787z"/>
	</g>
	<path fill-rule="evenodd" clip-rule="evenodd" fill="#80674E" d="M725.697,52.62c-23.658,14.66-45.283,30.13-65.746,47.224
		c-25.046,20.924-47.713,44.096-65.73,71.405c-13.135,19.91-24.361,40.914-30.305,64.24c-2.379,9.338-4.024,18.905-3.496,28.661
		c0.135,2.5,0.023,3.929-3.394,4.505c-4.836,0.815-9.593,0.302-14.36,0.68c-2.652,0.21-3.332-0.826-3.384-3.395
		c-0.376-18.366,1.301-36.477,5.862-54.316c11.875-46.442,35.606-86.112,69.549-119.55c16.098-15.857,36.397-25.215,57.91-31.693
		c13.105-3.946,26.434-6.787,40.23-7.171C716.713,53.103,720.574,52.027,725.697,52.62z"/>
</g>
<g>
	<path fill-rule="evenodd" clip-rule="evenodd" fill="#FFFFFF" d="M572.538,210.9c80.077-15.329,160.486-27.405,242.781-18.869
		C782.64,209.779,637.71,221.155,572.538,210.9z"/>
</g>
<g>
	<path fill-rule="evenodd" clip-rule="evenodd" fill="#8C1C21" d="M174.779,391.035c7.336-7.798,14.28-13.986,21.494-19.845
		c57.28-46.516,122.104-76.908,194.521-91.258c55.486-10.996,111.499-15.374,167.973-13.737
		c45.242,1.311,89.828,8.226,134.066,17.391c42.229,8.748,84.039,19.264,123.668,36.579
		c59.881,26.164,109.289,65.125,143.867,121.432c3.801,6.19,7.252,12.606,9.93,20.008c-13.33-5.062-26.107-10.056-38.986-14.778
		C851.795,417.669,767.908,397.649,684.5,383c-84.212-14.792-166.712-20.388-252.037-17.33c-42.977,1.54-85.855,4.45-128.64,8.646
		C261.075,378.507,218.46,383.85,174.779,391.035z"/>
</g>
<g>
	<path fill-rule="evenodd" clip-rule="evenodd" fill="#6D0507" d="M119.568,495.927c3.485-18.698,17.964-49.32,25.271-66.219
		c13.42-1.608-3.917,0.47,8.009-0.959c47.75-5.719,99.888-13.498,147.545-19.993c42.876-5.844,85.769-11.571,128.645-17.415
		c47.658-6.495,95.291-13.183,142.973-19.495c9.101-1.205,19.693-3.138,28.789-2.272c42.432,4.04,81.893,10.675,123.789,18.598
		c49.365,9.335,99.389,24.52,147.757,38.012c28.797,8.033,57.685,15.869,84.993,28.377c3.992,1.828,7.85,3.95,12.835,6.477
		c-14.2,0-27.096,0.128-39.988-0.021c-68.966-0.799-137.933-1.599-206.897-2.557c-19.165-0.267-38.167-3.024-57.251-4.544
		c-61.654-4.907-123.334-7.916-185.207-4.838c-35.274,1.756-70.551,3.479-105.735,6.512c-38.467,3.316-77.036,6.008-114.947,13.895
		c-18.245,3.795-36.132,9.047-53.493,15.794c-8.75,3.4-17.78,4.017-26.839,4.928c-21.04,2.116-37.717,3.635-58.77,5.624
		C120.09,495.918,120.601,495.927,119.568,495.927z"/>
</g>
<g>
	<path fill-rule="evenodd" clip-rule="evenodd" fill="#E5B229" d="M517.005,446.901c18.824-0.806,37.646-0.2,56.465,0.114
		c24.5,0.409,49.161,2.012,73.53,4.234c24.03,2.191,48.015,4.479,72.005,7.107c38.879,4.259,77.29,11.299,115.821,18
		c49.008,8.522,97.697,18.607,145.992,30.563c3.289,0.814,4.543,2.032,4.773,5.501c2.217,33.179-3.059,70.746-19.818,100.711
		c0,0-0.181-0.195-0.588-0.424c-47.365-19.539-100.867-34.939-150.893-45.622c-37.131-7.93-74.609-13.746-112.354-17.742
		c-24.51-2.595-49.098-4.265-73.731-5.33c-41.32-1.789-82.635-0.914-123.936,0.304c-44.783,1.321-89.498,3.985-134.054,8.838
		c-74.549,8.119-146.738,25.543-215.862,54.974c-4.132,1.759-8.214,3.644-12.258,5.597c-2.095,1.013-3.198,0.674-4.153-1.594
		c-9.498-22.538-19.028-45.063-28.737-67.509c-1.277-2.952,0.524-3.907,2.094-5.248c21.819-18.641,46.294-33.05,72.21-45.127
		c36.533-17.025,75.214-26.36,114.902-32.216c56.746-8.373,113.828-12.451,171.121-14.289
		C485.362,447.237,501.185,447.244,517.005,446.901z"/>
</g>
<g>
	<path fill-rule="evenodd" clip-rule="evenodd" fill="#D76525" d="M152.327,634.644c26.279-5.099,52.707-10.332,79.007-15.315
		c49.863-9.447,99.819-18.385,149.91-26.546c42.218-6.879,84.514-13.223,126.955-18.601c41.134-5.213,82.338-9.802,123.631-13.497
		c30.853-2.761,61.744-5.153,92.653-7.16c11.313-0.733,22.701,1.544,33.874,3.218c41.151,6.165,81.88,14.125,121.987,25.466
		c28.034,7.927,55.478,17.55,82.334,28.843c1.044,0.439,2.066,0.932,3.096,2.082c-1.524,0-3.05,0.045-4.572-0.006
		c-66.129-2.207-132.27-2.22-198.406-0.706c-57.964,1.327-115.893,3.817-173.642,9.091c-94.636,8.642-187.962,25.216-280.277,47.619
		c-3.306,0.802-6.403,0.911-9.767,0.14c-48.146-11.047-96.316-21.981-144.48-32.948c-0.743-0.169-1.321-0.35-2.057-0.548
		C152.597,635.398,152.301,635.02,152.327,634.644z"/>
</g>
<g>
	<path fill-rule="evenodd" clip-rule="evenodd" fill="#ABB633" d="M924.116,666.946c-6.867,8.611-14.863,15.617-23.162,22.254
		c-47.506,37.986-101.184,63.818-159.506,80.26c-41.75,11.77-84.459,18.344-127.507,23.341
		c-35.865,4.163-71.506,1.377-107.226-1.038c-33.58-2.271-66.949-6.273-100.072-12.251
		c-93.286-16.835-173.391-58.737-239.933-126.354c-3.735-3.796-7.169-7.889-10.734-11.853c-0.557-0.618-1.104-1.253-1.583-1.931
		c-1.063-1.502-1.638-2.525-1.898-3.515c-0.322-1.223-0.479-1.39,0.225-1.077c20.507,5.734,46.282,11.003,66.98,16.003
		c63.274,15.284,127.051,27.935,191.529,37.004c48.847,6.871,97.854,11.642,147.19,13.169c46.687,1.445,93.278,0.114,139.848-3.117
		c71.492-4.961,142.391-14.335,212.695-28.227C915.351,668.747,919.731,667.837,924.116,666.946z"/>
</g>
</svg>
