<?xml version="1.0" encoding="utf-8"?>
<!-- Generator: Adobe Illustrator 16.0.3, SVG Export Plug-In . SVG Version: 6.00 Build 0)  -->
<!DOCTYPE svg PUBLIC "-//W3C//DTD SVG 1.1//EN" "http://www.w3.org/Graphics/SVG/1.1/DTD/svg11.dtd">
<svg version="1.1" id="Capa_1" xmlns="http://www.w3.org/2000/svg" xmlns:xlink="http://www.w3.org/1999/xlink" x="0px" y="0px"
	 width="3271.084px" height="800px" viewBox="0 0 3271.084 800" enable-background="new 0 0 3271.084 800" xml:space="preserve">
<g>
	<g>
		<path fill-rule="evenodd" clip-rule="evenodd" fill="#A0B738" d="M900.301,141.344c-15.969,10.313-31.744,18.875-47.881,26.764
			c-32.878,16.074-66.879,29.139-102.614,37.355c-16.517,3.797-33.17,6.659-50.124,8.047c-16.133,1.321-32.285,1.286-48.34,0.545
			c-19.063-0.88-38.024-3.662-56.876-6.99c-23.068-4.074-45.723-9.895-68.275-16.039c-12.929-3.522-25.467-8.493-38.13-12.957
			c-1.526-0.538-4.305-0.44-4.087-2.799c0.218-2.34,0.886-4.82,3.604-6.137c8.684-4.206,17.188-8.782,25.913-12.896
			c38.897-18.343,79.147-32.975,121.13-42.403c16.556-3.718,33.337-6.382,50.367-7.745c17.443-1.396,34.813-2.234,52.243-0.86
			c16.883,1.331,33.685,3.226,50.453,5.85c36.661,5.738,72.255,15.252,107.036,28.015
			C896.247,139.654,897.739,140.308,900.301,141.344z"/>
	</g>
	<path fill-rule="evenodd" clip-rule="evenodd" fill="#80674E" d="M647.689,14.177c-23.658,14.66-45.283,30.13-65.746,47.224
		c-25.046,20.924-47.713,44.096-65.73,71.405c-13.135,19.91-24.361,40.914-30.305,64.24c-2.379,9.338-4.024,18.905-3.496,28.661
		c0.135,2.5,0.023,3.929-3.394,4.505c-4.836,0.815-9.593,0.302-14.36,0.68c-2.652,0.21-3.332-0.826-3.384-3.395
		c-0.376-18.366,1.301-36.477,5.862-54.316c11.875-46.442,35.606-86.112,69.549-119.55c16.098-15.857,36.397-25.215,57.91-31.693
		c13.105-3.946,26.434-6.787,40.23-7.171C638.705,14.661,642.566,13.584,647.689,14.177z"/>
</g>
<g>
	<path fill-rule="evenodd" clip-rule="evenodd" fill="#FFFFFF" d="M494.53,172.458c80.077-15.329,160.486-27.405,242.781-18.869
		C704.632,171.336,559.702,182.712,494.53,172.458z"/>
</g>
<g>
	<path fill-rule="evenodd" clip-rule="evenodd" fill="#8C1C21" d="M96.771,352.593c7.336-7.798,14.28-13.986,21.494-19.845
		c57.28-46.516,122.104-76.908,194.521-91.258c55.486-10.996,111.499-15.374,167.973-13.737
		c45.242,1.311,89.828,8.226,134.066,17.391c42.229,8.748,84.039,19.264,123.668,36.579
		c59.881,26.164,109.289,65.125,143.867,121.432c3.801,6.19,7.252,12.606,9.93,20.008c-13.33-5.062-26.107-10.056-38.986-14.778
		c-79.516-29.156-163.402-49.176-246.811-63.825c-84.212-14.792-166.712-20.388-252.037-17.33
		c-42.977,1.54-85.855,4.45-128.64,8.646C183.067,340.064,140.452,345.407,96.771,352.593z"/>
</g>
<g>
	<path fill-rule="evenodd" clip-rule="evenodd" fill="#6D0507" d="M41.56,457.484c3.485-18.698,17.964-49.32,25.271-66.219
		c13.42-1.608-3.917,0.47,8.009-0.959c47.75-5.719,99.888-13.498,147.545-19.993c42.876-5.844,85.769-11.571,128.645-17.415
		c47.658-6.495,95.291-13.183,142.973-19.495c9.101-1.205,19.693-3.138,28.789-2.272c42.432,4.04,81.893,10.675,123.789,18.598
		c49.365,9.335,99.389,24.52,147.757,38.012c28.797,8.033,57.685,15.869,84.993,28.377c3.992,1.828,7.85,3.95,12.835,6.477
		c-14.2,0-27.096,0.128-39.988-0.021c-68.966-0.799-137.933-1.599-206.897-2.557c-19.165-0.267-38.167-3.024-57.251-4.544
		c-61.654-4.907-123.334-7.916-185.207-4.838c-35.274,1.756-70.551,3.479-105.735,6.512c-38.467,3.316-77.036,6.008-114.947,13.895
		c-18.245,3.795-36.132,9.047-53.493,15.794c-8.75,3.4-17.78,4.017-26.839,4.928c-21.04,2.116-37.717,3.635-58.77,5.624
		C42.082,457.476,42.593,457.484,41.56,457.484z"/>
</g>
<g>
	<path fill-rule="evenodd" clip-rule="evenodd" fill="#E5B229" d="M438.997,408.459c18.824-0.806,37.646-0.2,56.465,0.114
		c24.5,0.409,49.161,2.012,73.53,4.234c24.03,2.191,48.015,4.479,72.005,7.107c38.879,4.259,77.29,11.299,115.821,18
		c49.008,8.522,97.697,18.607,145.992,30.563c3.289,0.814,4.543,2.032,4.773,5.501c2.217,33.179-3.059,70.746-19.818,100.711
		c0,0-0.181-0.195-0.588-0.424c-47.365-19.539-100.867-34.939-150.893-45.622c-37.131-7.93-74.609-13.746-112.354-17.742
		c-24.51-2.595-49.098-4.265-73.731-5.33c-41.32-1.789-82.635-0.914-123.936,0.304c-44.783,1.321-89.498,3.985-134.054,8.838
		c-74.549,8.119-146.738,25.543-215.862,54.974c-4.132,1.759-8.214,3.644-12.258,5.597l0,0
		c-9.498-22.538-19.11-51.641-27.598-74.227c-1.277-2.952,1.227-3.746,2.796-5.087c21.819-18.641,40.299-28.087,66.215-40.164
		c36.533-17.025,75.214-26.36,114.902-32.216c56.746-8.373,113.828-12.451,171.121-14.289
		C407.354,408.795,423.177,408.802,438.997,408.459z"/>
</g>
<g>
	<path fill-rule="evenodd" clip-rule="evenodd" fill="#D76525" d="M74.319,596.201c26.279-5.099,52.707-10.332,79.007-15.315
		c49.863-9.447,99.819-18.385,149.91-26.546c42.218-6.879,84.514-13.223,126.955-18.601c41.134-5.213,82.338-9.802,123.631-13.497
		c30.853-2.761,61.744-5.153,92.653-7.16c11.313-0.733,22.701,1.544,33.874,3.218c41.151,6.165,81.88,14.125,121.987,25.466
		c28.034,7.927,55.478,17.55,82.334,28.843c1.044,0.439,2.066,0.932,3.096,2.082c-1.524,0-3.05,0.045-4.572-0.006
		c-66.129-2.207-132.27-2.22-198.406-0.706c-57.964,1.327-115.893,3.817-173.642,9.091c-94.636,8.642-187.962,25.216-280.277,47.619
		c-3.306,0.802-6.403,0.911-9.767,0.14c-48.146-11.047-96.316-21.981-144.48-32.948c-0.743-0.169-1.321-0.35-2.057-0.548
		C74.589,596.956,74.293,596.577,74.319,596.201z"/>
</g>
<g>
	<path fill-rule="evenodd" clip-rule="evenodd" fill="#ABB633" d="M846.108,628.504c-6.867,8.611-14.863,15.617-23.162,22.254
		c-47.506,37.986-101.184,63.818-159.506,80.26c-41.75,11.77-84.459,18.344-127.507,23.341
		c-35.865,4.163-71.506,1.377-107.226-1.038c-33.58-2.271-66.949-6.273-100.072-12.251
		c-93.286-16.835-173.391-58.737-239.933-126.354c-3.735-3.796-7.169-7.889-10.734-11.853c-0.557-0.618-1.104-1.253-1.583-1.931
		c-1.063-1.502-1.638-2.525-1.898-3.515c-0.322-1.223-0.479-1.39,0.225-1.077c20.507,5.734,46.282,11.003,66.98,16.003
		c63.274,15.284,127.051,27.935,191.529,37.004c48.847,6.871,97.854,11.642,147.19,13.169c46.687,1.445,93.278,0.114,139.848-3.117
		c71.492-4.961,142.391-14.335,212.695-28.227C837.343,630.305,841.724,629.395,846.108,628.504z"/>
</g>
<g>
	<path d="M1127.857,287.984l37.978,12.042c-5.822,21.172-15.505,36.898-29.045,47.173c-13.543,10.278-30.723,15.416-51.54,15.416
		c-25.761,0-46.933-8.8-63.516-26.398c-16.587-17.6-24.877-41.66-24.877-72.183c0-32.287,8.336-57.363,25.009-75.226
		c16.673-17.864,38.593-26.796,65.765-26.796c23.729,0,43.006,7.013,57.826,21.04c8.82,8.293,15.437,20.202,19.849,35.728
		l-38.771,9.263c-2.296-10.057-7.08-17.996-14.357-23.818c-7.278-5.822-16.123-8.733-26.531-8.733c-14.38,0-26.047,5.161-35,15.482
		c-8.954,10.321-13.431,27.04-13.431,50.151c0,24.525,4.41,41.992,13.232,52.4c8.82,10.41,20.289,15.614,34.404,15.614
		c10.408,0,19.362-3.308,26.862-9.924C1119.211,312.597,1124.593,302.188,1127.857,287.984z"/>
	<path d="M1374.377,359.307h-42.607l-16.938-44.064h-77.543l-16.011,44.064h-41.55l75.557-193.987h41.418L1374.377,359.307z
		 M1302.261,282.559l-26.729-71.984l-26.2,71.984H1302.261z"/>
	<path d="M1395.284,359.307V165.32h82.438c20.729,0,35.793,1.743,45.188,5.227c9.395,3.486,16.914,9.682,22.562,18.591
		c5.644,8.911,8.469,19.1,8.469,30.567c0,14.556-4.28,26.577-12.836,36.059c-8.558,9.484-21.35,15.461-38.374,17.93
		c8.469,4.941,15.459,10.367,20.974,16.276c5.512,5.911,12.944,16.408,22.297,31.493l23.686,37.845h-46.843l-28.317-42.211
		c-10.057-15.085-16.938-24.589-20.643-28.516c-3.705-3.924-7.632-6.616-11.777-8.072c-4.147-1.455-10.718-2.183-19.716-2.183
		h-7.939v80.982H1395.284z M1434.452,247.361h28.979c18.789,0,30.521-0.794,35.197-2.382c4.675-1.588,8.337-4.321,10.983-8.204
		c2.646-3.881,3.97-8.733,3.97-14.556c0-6.527-1.743-11.797-5.227-15.813c-3.486-4.013-8.402-6.55-14.754-7.608
		c-3.176-0.44-12.703-0.662-28.582-0.662h-30.567V247.361z"/>
	<path d="M1681.104,287.984V255.3h84.424v77.277c-8.205,7.939-20.093,14.932-35.662,20.973c-15.57,6.042-31.34,9.064-47.306,9.064
		c-20.291,0-37.978-4.255-53.062-12.77c-15.086-8.512-26.422-20.686-34.008-36.521c-7.588-15.833-11.38-33.058-11.38-51.672
		c0-20.2,4.234-38.153,12.703-53.856c8.469-15.701,20.861-27.743,37.183-36.125c12.439-6.438,27.921-9.66,46.446-9.66
		c24.083,0,42.894,5.051,56.437,15.151c13.54,10.102,22.251,24.062,26.134,41.88l-38.903,7.278
		c-2.735-9.527-7.873-17.047-15.416-22.562c-7.542-5.512-16.96-8.27-28.251-8.27c-17.115,0-30.722,5.425-40.822,16.276
		c-10.102,10.851-15.151,26.951-15.151,48.298c0,23.024,5.115,40.292,15.35,51.805c10.232,11.512,23.641,17.268,40.227,17.268
		c8.205,0,16.43-1.608,24.679-4.83c8.248-3.219,15.327-7.123,21.238-11.711v-24.612H1681.104z"/>
	<path d="M1976.584,359.307h-42.607l-16.938-44.064h-77.543l-16.011,44.064h-41.55l75.557-193.987h41.418L1976.584,359.307z
		 M1904.468,282.559l-26.729-71.984l-26.2,71.984H1904.468z"/>
	<path d="M1002.547,684.508V490.52h39.168v193.988H1002.547z"/>
	<path d="M1079.428,684.508V490.52h38.109l79.395,129.545V490.52h36.389v193.988h-39.3l-78.204-126.502v126.502H1079.428z"/>
	<path d="M1318.404,684.508V523.336h-57.561V490.52h154.158v32.816h-57.43v161.172H1318.404z"/>
	<path d="M1440.275,684.508V490.52h143.836v32.816h-104.668v43.006h97.391v32.684h-97.391v52.797h108.373v32.686H1440.275z"/>
	<path d="M1621.162,684.508V490.52h82.438c20.729,0,35.794,1.744,45.189,5.227c9.395,3.486,16.914,9.684,22.561,18.592
		c5.645,8.912,8.469,19.102,8.469,30.566c0,14.557-4.279,26.578-12.835,36.059c-8.558,9.484-21.35,15.463-38.374,17.93
		c8.469,4.943,15.459,10.367,20.974,16.277c5.512,5.91,12.944,16.408,22.296,31.492l23.687,37.846h-46.843l-28.317-42.213
		c-10.057-15.084-16.938-24.588-20.643-28.516c-3.705-3.924-7.632-6.615-11.776-8.07c-4.148-1.457-10.719-2.184-19.717-2.184h-7.939
		v80.982H1621.162z M1660.33,572.561h28.979c18.791,0,30.521-0.793,35.199-2.381c4.674-1.588,8.336-4.322,10.982-8.205
		c2.646-3.881,3.97-8.732,3.97-14.555c0-6.527-1.743-11.799-5.227-15.813c-3.486-4.014-8.403-6.551-14.755-7.609
		c-3.176-0.439-12.703-0.662-28.582-0.662h-30.566V572.561z"/>
	<path d="M1817.135,684.508V490.52h38.109l79.395,129.545V490.52h36.389v193.988h-39.3l-78.204-126.502v126.502H1817.135z"/>
	<path d="M2187.377,684.508h-42.607l-16.938-44.064h-77.543l-16.011,44.064h-41.55l75.557-193.988h41.418L2187.377,684.508z
		 M2115.261,607.76l-26.729-71.984l-26.2,71.984H2115.261z"/>
	<path d="M2332.271,613.184l37.978,12.043c-5.822,21.172-15.505,36.896-29.045,47.174c-13.543,10.277-30.723,15.414-51.54,15.414
		c-25.761,0-46.933-8.799-63.516-26.398c-16.587-17.598-24.877-41.658-24.877-72.182c0-32.287,8.336-57.363,25.009-75.227
		s38.593-26.797,65.765-26.797c23.729,0,43.006,7.014,57.826,21.041c8.82,8.293,15.437,20.201,19.849,35.727l-38.771,9.264
		c-2.296-10.057-7.08-17.996-14.357-23.818c-7.278-5.822-16.123-8.734-26.531-8.734c-14.38,0-26.047,5.16-35,15.482
		c-8.954,10.32-13.431,27.039-13.431,50.15c0,24.525,4.41,41.992,13.232,52.4c8.82,10.41,20.289,15.615,34.404,15.615
		c10.408,0,19.362-3.309,26.862-9.926C2323.625,637.797,2329.007,627.389,2332.271,613.184z"/>
	<path d="M2402.668,684.508V490.52h39.168v193.988H2402.668z"/>
	<path d="M2471.213,588.705c0-19.76,2.954-36.344,8.865-49.754c4.41-9.879,10.431-18.744,18.063-26.598
		c7.629-7.85,15.988-13.672,25.075-17.467c12.085-5.115,26.022-7.676,41.814-7.676c28.582,0,51.451,8.867,68.61,26.598
		c17.156,17.732,25.736,42.391,25.736,73.969c0,31.318-8.514,55.82-25.538,73.508c-17.026,17.688-39.786,26.529-68.279,26.529
		c-28.847,0-51.784-8.799-68.809-26.398C2479.725,643.818,2471.213,619.582,2471.213,588.705z M2511.571,587.381
		c0,21.967,5.071,38.619,15.218,49.953c10.143,11.336,23.023,17.004,38.639,17.004c15.613,0,28.427-5.625,38.439-16.871
		c10.012-11.248,15.02-28.119,15.02-50.615c0-22.23-4.876-38.814-14.622-49.754c-9.749-10.938-22.694-16.408-38.837-16.408
		c-16.145,0-29.157,5.537-39.036,16.607C2516.511,548.369,2511.571,565.064,2511.571,587.381z"/>
	<path d="M2690.342,684.508V490.52h38.109l79.395,129.545V490.52h36.389v193.988h-39.3l-78.204-126.502v126.502H2690.342z"/>
	<path d="M3060.584,684.508h-42.607l-16.938-44.064h-77.543l-16.011,44.064h-41.55l75.557-193.988h41.418L3060.584,684.508z
		 M2988.468,607.76l-26.729-71.984l-26.2,71.984H2988.468z"/>
	<path d="M3082.418,684.508v-192.4h39.168v159.715h97.391v32.686H3082.418z"/>
</g>
</svg>
